<svg preserveAspectRatio="none" width="100%" height="100%" overflow="visible" style="display: block;" viewBox="0 0 121 24" fill="none" xmlns="http://www.w3.org/2000/svg">
<g id="svg2110464708" clip-path="url(#clip0_0_4)">
<path id="Vector" d="M22.023 9.679H25.365C25.724 9.68 26.015 9.971 26.015 10.33V13.675C26.015 14.034 25.723 14.326 25.364 14.326H22.017C21.658 14.327 21.368 14.617 21.368 14.977V22.969C21.368 23.328 21.076 23.62 20.717 23.62H17.37H16.071H12.725H12.075V23.614C5.657 23.614 0.455 18.413 0.455 11.997C0.455 5.582 5.657 0.381 12.075 0.381V0.386H16.075C16.434 0.388 16.723 0.679 16.723 1.037V4.383V4.385C16.724 4.743 17.015 5.033 17.374 5.033H20.721C21.075 5.033 21.363 4.75 21.371 4.398V4.39V4.384V4.381V1.035C21.372 0.678 21.662 0.388 22.02 0.386H25.372C25.731 0.388 26.02 0.679 26.02 1.037V4.383C26.02 4.742 25.729 5.033 25.37 5.033H22.023H22.022C21.663 5.033 21.372 5.325 21.372 5.683V9.028C21.372 9.387 21.664 9.679 22.023 9.679ZM12.728 9.679H16.075C16.434 9.679 16.726 9.387 16.726 9.028V5.683C16.726 5.324 16.435 5.032 16.076 5.032H12.727C12.369 5.032 12.078 5.323 12.078 5.682V9.029C12.078 9.389 12.369 9.679 12.728 9.679ZM20.723 14.326C21.082 14.326 21.373 14.034 21.373 13.675V10.33C21.373 9.971 21.083 9.679 20.724 9.679H17.375C17.016 9.68 16.725 9.971 16.725 10.33V13.675C16.725 14.034 17.017 14.326 17.376 14.326H20.723ZM117.008 8.978V15.151C117.008 15.943 117.289 16.199 118.312 16.199H120.455V18.854H118.079C115.238 18.854 114.119 17.759 114.119 15.29V8.978V6.509V3.527H117.007V6.509H120.455V8.978H117.008ZM41.787 6.159C37.968 6.159 35.056 8.954 35.056 12.68C35.056 16.431 37.968 19.201 41.787 19.201C44.885 19.201 47.378 17.478 48.076 14.823L45.375 14.078C44.839 15.778 43.582 16.664 41.787 16.664C39.575 16.664 37.945 15.056 37.945 12.68C37.945 10.304 39.575 8.697 41.787 8.697C43.582 8.697 44.862 9.652 45.375 11.282L48.076 10.537C47.378 7.882 44.885 6.159 41.787 6.159ZM49.846 6.509V13.683H49.848C49.848 17.131 51.945 19.204 55.369 19.204C57.208 19.204 58.699 18.622 59.701 17.573H59.747V18.854H62.542V6.509H59.653V13.217C59.653 15.197 58.28 16.595 56.113 16.595C53.945 16.595 52.735 15.36 52.735 13.217V6.509H49.846ZM65.102 6.51H67.85V7.698H67.896C68.735 6.812 69.923 6.276 71.367 6.276C72.066 6.276 72.672 6.393 73.347 6.603L72.719 9.235C72.067 9.049 71.624 8.978 70.972 8.978C69.178 8.978 67.991 10.189 67.991 12.635V18.854H65.102V6.51ZM77.61 6.51H74.862V18.854H77.75V12.635C77.75 10.189 78.938 8.978 80.732 8.978C81.384 8.978 81.827 9.049 82.479 9.235L83.107 6.603C82.432 6.393 81.826 6.276 81.127 6.276C79.683 6.276 78.495 6.812 77.656 7.698H77.61V6.51ZM83.363 12.729C83.363 8.863 86.134 6.16 90.001 6.16C93.869 6.16 96.593 9.026 96.593 12.752V13.614H86.228C86.321 15.548 87.882 16.805 90.142 16.805C91.819 16.805 93.031 16.13 94.172 14.709L96.105 16.432C94.731 18.202 92.798 19.204 90.165 19.204C85.949 19.204 83.363 16.641 83.363 12.729ZM93.751 11.518C93.589 9.795 92.074 8.56 90.048 8.56C88.021 8.56 86.461 9.794 86.275 11.518H93.751ZM101.508 6.51H98.713L98.711 6.511V18.856H101.599V12.125C101.599 10.121 103.205 8.747 105.349 8.747C107.493 8.747 108.82 10.004 108.82 12.1V18.855H111.709V11.658C111.709 8.396 109.334 6.16 105.816 6.16C104.14 6.16 102.556 6.742 101.554 7.79H101.508V6.51Z" fill="var(--fill-0, #242424)"/>
</g>
<defs>
<clipPath id="clip0_0_4">
<rect width="121" height="24" fill="white"/>
</clipPath>
</defs>
</svg>
