<svg preserveAspectRatio="none" width="100%" height="100%" overflow="visible" style="display: block;" viewBox="0 0 26 25" fill="none" xmlns="http://www.w3.org/2000/svg">
<g id="svg2987495473" clip-path="url(#clip0_0_13)">
<path id="Vector" d="M12.737 0.137C5.88 0.137 0.32 5.836 0.32 12.867C0.32 18.492 3.878 23.264 8.811 24.948C9.432 25.066 9.66 24.672 9.66 24.335C9.66 24.032 9.648 23.029 9.643 21.965C6.189 22.735 5.46 20.463 5.46 20.463C4.895 18.991 4.081 18.6 4.081 18.6C2.955 17.81 4.166 17.826 4.166 17.826C5.413 17.916 6.069 19.138 6.069 19.138C7.177 21.084 8.974 20.522 9.683 20.197C9.794 19.374 10.116 18.812 10.471 18.494C7.713 18.172 4.814 17.081 4.814 12.203C4.814 10.813 5.299 9.677 6.093 8.785C5.964 8.465 5.539 7.17 6.214 5.416C6.214 5.416 7.256 5.074 9.629 6.721C10.619 6.439 11.682 6.298 12.737 6.293C13.792 6.298 14.855 6.439 15.847 6.721C18.217 5.074 19.258 5.416 19.258 5.416C19.934 7.17 19.509 8.465 19.38 8.785C20.176 9.677 20.658 10.813 20.658 12.203C20.658 17.092 17.753 18.169 14.989 18.484C15.434 18.879 15.831 19.654 15.831 20.842C15.831 22.545 15.816 23.916 15.816 24.335C15.816 24.674 16.04 25.071 16.669 24.946C21.6 23.261 25.153 18.49 25.153 12.867C25.153 5.836 19.594 0.137 12.737 0.137Z" fill="var(--fill-0, #E5FF76)"/>
</g>
<defs>
<clipPath id="clip0_0_13">
<rect width="26" height="25" fill="white"/>
</clipPath>
</defs>
</svg>
