<svg preserveAspectRatio="none" width="100%" height="100%" overflow="visible" style="display: block;" viewBox="0 0 65 65" fill="none" xmlns="http://www.w3.org/2000/svg">
<g id="svg1151785002" clip-path="url(#clip0_0_4)">
<path id="Vector" d="M64.919 29.29H45.319L62.293 19.488L58.927 13.655L41.951 23.456L51.749 6.481L45.917 3.114L36.117 20.085V0.486H29.38V20.087L19.58 3.114L13.746 6.481L23.544 23.452L6.573 13.655L3.204 19.488L20.178 29.29H0.578V36.026H20.176L3.204 45.827L6.571 51.661L23.547 41.86L13.746 58.835L19.578 62.202L29.38 45.229V64.827H36.117V44.809L46.097 62.095L51.566 58.938L41.584 41.647L58.922 51.659L62.291 45.825L45.319 36.024H64.917V29.29H64.919ZM32.749 41.815C31.546 41.815 30.355 41.578 29.244 41.118C28.133 40.658 27.124 39.983 26.273 39.133C25.423 38.282 24.748 37.272 24.288 36.161C23.828 35.05 23.591 33.859 23.591 32.656C23.59 31.453 23.827 30.262 24.287 29.15C24.747 28.039 25.422 27.029 26.272 26.178C27.122 25.328 28.131 24.653 29.242 24.192C30.353 23.732 31.544 23.495 32.746 23.495C35.175 23.494 37.504 24.459 39.222 26.177C40.939 27.894 41.904 30.224 41.904 32.654C41.905 35.083 40.94 37.413 39.223 39.131C37.506 40.849 35.177 41.814 32.749 41.815Z" fill="var(--fill-0, #E5FF76)"/>
</g>
<defs>
<clipPath id="clip0_0_4">
<rect width="65" height="65" fill="white"/>
</clipPath>
</defs>
</svg>
