<svg preserveAspectRatio="none" width="100%" height="100%" overflow="visible" style="display: block;" viewBox="0 0 79 79" fill="none" xmlns="http://www.w3.org/2000/svg">
<g id="svg804253095" clip-path="url(#clip0_0_8)">
<path id="Vector" d="M0.07 27.981C0.07 18.273 0.07 13.419 1.96 9.712C3.621 6.45 6.273 3.799 9.534 2.137C13.242 0.248 18.096 0.248 27.804 0.248H50.337C60.045 0.248 64.898 0.248 68.606 2.137C71.868 3.799 74.519 6.45 76.181 9.712C78.07 13.419 78.07 18.273 78.07 27.981V50.514C78.07 60.222 78.07 65.076 76.181 68.783C74.519 72.045 71.868 74.697 68.606 76.358C64.898 78.248 60.045 78.248 50.337 78.248H27.804C18.096 78.248 13.242 78.248 9.534 76.358C6.273 74.697 3.621 72.045 1.96 68.783C0.07 65.076 0.07 60.222 0.07 50.514V27.981Z" fill="var(--fill-0, #C6DF5D)"/>
</g>
<defs>
<clipPath id="clip0_0_8">
<rect width="79" height="79" fill="white"/>
</clipPath>
</defs>
</svg>
