<svg preserveAspectRatio="none" width="100%" height="100%" overflow="visible" style="display: block;" viewBox="0 0 74 74" fill="none" xmlns="http://www.w3.org/2000/svg">
<g id="svg3364894485">
<path id="Vector" d="M23.822 30.224V29.665C23.822 28.249 24.956 27.075 26.418 26.977L37.064 26.267L51.786 47.947V28.919L47.997 28.414V28.148C47.997 26.716 49.157 25.534 50.637 25.458L60.324 24.962V26.356C60.324 27.01 59.837 27.57 59.17 27.683L56.839 28.077V58.893L53.914 59.899C51.47 60.739 48.749 59.84 47.349 57.728L33.056 36.16V56.746L37.456 57.588L37.394 57.996C37.203 59.274 36.099 60.241 34.764 60.3L23.822 60.787C23.677 59.413 24.707 58.183 26.129 58.033L27.568 57.882V30.434L23.822 30.224Z" fill="var(--fill-0, #E5FF76)"/>
<path id="Vector_2" d="M49.746 1.041L5.879 4.036C3.252 4.215 1.215 6.328 1.215 8.874V51.54C1.215 53.932 2.038 56.256 3.555 58.146L13.014 69.928C14.543 71.833 16.949 72.882 19.439 72.729L68.126 69.732C70.621 69.579 72.564 67.578 72.564 65.161V16.654C72.564 15.159 71.809 13.758 70.541 12.901L55.129 2.481C53.558 1.419 51.658 0.911 49.746 1.041ZM8.054 9.539C7.444 9.087 7.735 8.146 8.501 8.091L50.041 5.112C51.364 5.017 52.679 5.382 53.75 6.14L62.084 12.045C62.401 12.269 62.252 12.753 61.861 12.774L17.87 15.167C16.539 15.239 15.225 14.848 14.166 14.064L8.054 9.539ZM15.807 22.667C15.807 21.238 16.962 20.057 18.438 19.977L64.948 17.444C66.387 17.366 67.598 18.472 67.598 19.865V61.867C67.598 63.293 66.448 64.473 64.974 64.556L18.759 67.186C17.157 67.277 15.807 66.047 15.807 64.496V22.667Z" fill="var(--fill-0, #E5FF76)"/>
</g>
</svg>
