<svg preserveAspectRatio="none" width="100%" height="100%" overflow="visible" style="display: block;" viewBox="0 0 40 56" fill="none" xmlns="http://www.w3.org/2000/svg">
<g id="svg2203343966" clip-path="url(#clip0_0_6)">
<path id="Vector" d="M0.449 10.834C0.449 5.142 5.14 0.581 10.859 0.581H28.627C34.346 0.581 39.037 5.142 39.037 10.834C39.037 14.388 37.209 17.501 34.444 19.338C37.209 21.176 39.037 24.289 39.037 27.843C39.037 33.535 34.346 38.096 28.627 38.096H28.402C25.759 38.096 23.335 37.122 21.493 35.512V44.74C21.493 50.508 16.681 55.104 10.914 55.104C5.21 55.104 0.449 50.557 0.449 44.85C0.449 41.296 2.277 38.184 5.042 36.346C2.277 34.509 0.449 31.396 0.449 27.842C0.449 24.289 2.277 21.176 5.042 19.338C2.277 17.501 0.449 14.388 0.449 10.834ZM21.493 27.894C21.521 31.571 24.574 34.597 28.402 34.597H28.627C32.473 34.597 35.537 31.543 35.537 27.843C35.537 24.142 32.473 21.089 28.627 21.089H28.402C24.574 21.089 21.521 24.114 21.493 27.791V27.894ZM10.859 38.097L10.815 38.096C6.989 38.12 3.949 41.164 3.949 44.85C3.949 48.536 7.054 51.604 10.914 51.604C14.837 51.604 17.993 48.487 17.993 44.74V38.097H10.859ZM21.493 4.081V17.588H28.627C32.473 17.588 35.537 14.535 35.537 10.835C35.537 7.134 32.473 4.081 28.627 4.081H21.493ZM17.993 21.089H10.859C7.013 21.089 3.949 24.142 3.949 27.842C3.949 31.529 6.989 34.573 10.815 34.596H10.859H17.993V27.907C17.993 27.885 17.993 27.864 17.993 27.843C17.993 27.821 17.993 27.8 17.993 27.778V21.089ZM3.949 10.835C3.949 14.535 7.013 17.588 10.859 17.588H17.993V4.081H10.859C7.013 4.081 3.949 7.134 3.949 10.835Z" fill="var(--fill-0, #E5FF76)"/>
</g>
<defs>
<clipPath id="clip0_0_6">
<rect width="40" height="56" fill="white"/>
</clipPath>
</defs>
</svg>
