<svg preserveAspectRatio="none" width="100%" height="100%" overflow="visible" style="display: block;" viewBox="0 0 40 40" fill="none" xmlns="http://www.w3.org/2000/svg">
<g id="svg754942005_400" clip-path="url(#clip0_0_4)">
<path id="Vector" fill-rule="evenodd" clip-rule="evenodd" d="M8 1C8 0.734784 8.10536 0.48043 8.29289 0.292893C8.48043 0.105357 8.73478 0 9 0L31 0C31.2652 0 31.5196 0.105357 31.7071 0.292893C31.8946 0.48043 32 0.734784 32 1V16H39C39.2652 16 39.5196 16.1054 39.7071 16.2929C39.8946 16.4804 40 16.7348 40 17V39C40 39.2652 39.8946 39.5196 39.7071 39.7071C39.5196 39.8946 39.2652 40 39 40H1C0.734784 40 0.48043 39.8946 0.292893 39.7071C0.105357 39.5196 0 39.2652 0 39V17C0 16.7348 0.105357 16.4804 0.292893 16.2929C0.48043 16.1054 0.734784 16 1 16H8V1ZM17 16H23C23.2652 16 23.5196 15.8946 23.7071 15.7071C23.8946 15.5196 24 15.2652 24 15V9C24 8.73478 23.8946 8.48043 23.7071 8.29289C23.5196 8.10536 23.2652 8 23 8H17C16.7348 8 16.4804 8.10536 16.2929 8.29289C16.1054 8.48043 16 8.73478 16 9V15C16 15.2652 16.1054 15.5196 16.2929 15.7071C16.4804 15.8946 16.7348 16 17 16ZM8 26C8 25.7348 8.10536 25.4804 8.29289 25.2929C8.48043 25.1054 8.73478 25 9 25H31C31.2652 25 31.5196 25.1054 31.7071 25.2929C31.8946 25.4804 32 25.7348 32 26V32C32 32.2652 31.8946 32.5196 31.7071 32.7071C31.5196 32.8946 31.2652 33 31 33H9C8.73478 33 8.48043 32.8946 8.29289 32.7071C8.10536 32.5196 8 32.2652 8 32V26Z" fill="var(--fill-0, #F0F0F0)"/>
</g>
<defs>
<clipPath id="clip0_0_4">
<rect width="40" height="40" fill="white"/>
</clipPath>
</defs>
</svg>
