<svg preserveAspectRatio="none" width="100%" height="100%" overflow="visible" style="display: block;" viewBox="0 0 18.5 20.75" fill="none" xmlns="http://www.w3.org/2000/svg">
<g id="Group">
<path id="Vector" d="M16.75 7.75H1.75C1.33579 7.75 1 8.08579 1 8.5V19C1 19.4142 1.33579 19.75 1.75 19.75H16.75C17.1642 19.75 17.5 19.4142 17.5 19V8.5C17.5 8.08579 17.1642 7.75 16.75 7.75Z" stroke="var(--stroke-0, #242424)" stroke-width="2" stroke-linecap="round" stroke-linejoin="round"/>
<path id="Vector_2" d="M5.875 7.75V4.375C5.875 3.47989 6.23058 2.62145 6.86351 1.98851C7.49645 1.35558 8.35489 1 9.25 1C10.1451 1 11.0035 1.35558 11.6365 1.98851C12.2694 2.62145 12.625 3.47989 12.625 4.375V7.75" stroke="var(--stroke-0, #242424)" stroke-width="2" stroke-linecap="round" stroke-linejoin="round"/>
</g>
</svg>
