<svg preserveAspectRatio="none" width="100%" height="100%" overflow="visible" style="display: block;" viewBox="0 0 19.9818 19.9818" fill="none" xmlns="http://www.w3.org/2000/svg">
<g id="Group">
<path id="Vector" d="M9.9818 13C12.0529 13 13.7318 11.3211 13.7318 9.25002C13.7318 7.17895 12.0529 5.50002 9.9818 5.50002C7.91073 5.50002 6.2318 7.17895 6.2318 9.25002C6.2318 11.3211 7.91073 13 9.9818 13Z" stroke="var(--stroke-0, #242424)" stroke-width="2" stroke-miterlimit="10"/>
<path id="Vector_2" d="M3.96296 16.6913C4.52791 15.5806 5.3892 14.6478 6.45149 13.9964C7.51378 13.3449 8.73563 13 9.98179 13C11.2279 13 12.4498 13.3448 13.5121 13.9963C14.5744 14.6478 15.4357 15.5806 16.0006 16.6913" stroke="var(--stroke-0, #242424)" stroke-width="2" stroke-linecap="round" stroke-linejoin="round"/>
<path id="Vector_3" d="M14.4818 3.25002H18.9818" stroke="var(--stroke-0, #242424)" stroke-width="2" stroke-linecap="round" stroke-linejoin="round"/>
<path id="Vector_4" d="M16.7318 1.00002V5.50002" stroke="var(--stroke-0, #242424)" stroke-width="2" stroke-linecap="round" stroke-linejoin="round"/>
<path id="Vector_5" d="M18.8705 8.58043C19.1684 10.456 18.8648 12.3776 18.0032 14.07C17.1417 15.7623 15.7663 17.1384 14.0745 18.0009C12.3826 18.8635 10.4611 19.1681 8.58541 18.8713C6.70972 18.5744 4.9762 17.6912 3.63338 16.3484C2.29056 15.0056 1.40741 13.2721 1.11054 11.3964C0.813682 9.5207 1.11836 7.59917 1.98088 5.90732C2.84341 4.21546 4.21949 2.84015 5.91184 1.97858C7.60418 1.11701 9.52588 0.813418 11.4014 1.11134" stroke="var(--stroke-0, #242424)" stroke-width="2" stroke-linecap="round" stroke-linejoin="round"/>
</g>
</svg>
