<svg preserveAspectRatio="none" width="100%" height="100%" overflow="visible" style="display: block;" viewBox="0 0 18.3115 20.7499" fill="none" xmlns="http://www.w3.org/2000/svg">
<g id="Group">
<path id="Vector" d="M2.4248 7.74994C2.42356 6.86045 2.59838 5.97951 2.93919 5.1579C3.28 4.33628 3.78006 3.59025 4.41054 2.9628C5.04101 2.33535 5.78945 1.83889 6.61269 1.50204C7.43593 1.16519 8.3177 0.994607 9.20718 1.00013C12.9187 1.02772 15.8875 4.11275 15.8875 7.83468V8.49994C15.8875 11.8577 16.59 13.8061 17.2087 14.871C17.2753 14.9848 17.3108 15.1142 17.3115 15.246C17.3122 15.3779 17.2781 15.5076 17.2127 15.6221C17.1473 15.7366 17.0528 15.8318 16.9388 15.8982C16.8249 15.9645 16.6954 15.9996 16.5635 15.9999H1.74798C1.6161 15.9996 1.48663 15.9645 1.37265 15.8981C1.25867 15.8318 1.1642 15.7366 1.09877 15.622C1.03335 15.5075 0.999283 15.3778 1.00001 15.2459C1.00074 15.114 1.03624 14.9846 1.10292 14.8709C1.72198 13.8059 2.4248 11.8575 2.4248 8.49994L2.4248 7.74994Z" stroke="var(--stroke-0, #242424)" stroke-width="2" stroke-linecap="round" stroke-linejoin="round"/>
<path id="Vector_2" d="M6.15577 15.9999V16.7499C6.15577 17.5456 6.47184 18.3087 7.03445 18.8713C7.59706 19.4339 8.36012 19.7499 9.15577 19.7499C9.95142 19.7499 10.7145 19.4339 11.2771 18.8713C11.8397 18.3087 12.1558 17.5456 12.1558 16.7499V15.9999" stroke="var(--stroke-0, #242424)" stroke-width="2" stroke-linecap="round" stroke-linejoin="round"/>
</g>
</svg>
