<svg preserveAspectRatio="none" width="100%" height="100%" overflow="visible" style="display: block;" viewBox="0 0 23.0074 16.8493" fill="none" xmlns="http://www.w3.org/2000/svg">
<g id="Group">
<path id="Vector" d="M11.5037 11.4246C13.1606 11.4246 14.5037 10.0815 14.5037 8.42462C14.5037 6.76777 13.1606 5.42462 11.5037 5.42462C9.84686 5.42462 8.50372 6.76777 8.50372 8.42462C8.50372 10.0815 9.84686 11.4246 11.5037 11.4246Z" stroke="var(--stroke-0, #242424)" stroke-width="2" stroke-linecap="round" stroke-linejoin="round"/>
<path id="Vector_2" d="M6.73075 13.1976C6.10327 12.5712 5.60546 11.8272 5.26581 11.0082C4.92616 10.1892 4.75133 9.31126 4.75133 8.42462C4.75133 7.53799 4.92616 6.66005 5.26581 5.84105C5.60546 5.02205 6.10327 4.27806 6.73075 3.65165" stroke="var(--stroke-0, #242424)" stroke-width="2" stroke-linecap="round" stroke-linejoin="round"/>
<path id="Vector_3" d="M16.2767 3.65165C16.9042 4.27806 17.402 5.02205 17.7416 5.84105C18.0813 6.66005 18.2561 7.53799 18.2561 8.42462C18.2561 9.31126 18.0813 10.1892 17.7416 11.0082C17.402 11.8272 16.9042 12.5712 16.2767 13.1976" stroke="var(--stroke-0, #242424)" stroke-width="2" stroke-linecap="round" stroke-linejoin="round"/>
<path id="Vector_4" d="M4.07909 15.8493C3.10301 14.8749 2.32864 13.7176 1.8003 12.4436C1.27195 11.1696 1 9.80391 1 8.4247C1 7.04549 1.27195 5.67981 1.8003 4.40581C2.32864 3.13181 3.10301 1.9745 4.07909 1.00008" stroke="var(--stroke-0, #242424)" stroke-width="2" stroke-linecap="round" stroke-linejoin="round"/>
<path id="Vector_5" d="M18.9283 1C19.9044 1.97442 20.6788 3.13173 21.2071 4.40573C21.7355 5.67973 22.0074 7.04541 22.0074 8.42462C22.0074 9.80383 21.7355 11.1695 21.2071 12.4435C20.6788 13.7175 19.9044 14.8748 18.9283 15.8492" stroke="var(--stroke-0, #242424)" stroke-width="2" stroke-linecap="round" stroke-linejoin="round"/>
</g>
</svg>
