<svg preserveAspectRatio="none" width="100%" height="100%" overflow="visible" style="display: block;" viewBox="0 0 26.9998 27.0001" fill="none" xmlns="http://www.w3.org/2000/svg">
<g id="Group">
<path id="Vector" d="M20.2051 15.7913L25.8013 13.3588C26.17 13.1954 26.4806 12.9243 26.6924 12.5811C26.9043 12.238 27.0074 11.8388 26.9884 11.436C26.9693 11.0332 26.8289 10.6455 26.5856 10.3239C26.3423 10.0023 26.0075 9.76176 25.6251 9.63383L5.61508 3.10008C5.26513 2.98792 4.89104 2.97434 4.53388 3.06084C4.17671 3.14735 3.85029 3.33058 3.59043 3.59043C3.33058 3.85029 3.14735 4.17671 3.06084 4.53388C2.97434 4.89104 2.98792 5.26513 3.10008 5.61508L9.63383 25.6251C9.75713 26.0111 9.99599 26.35 10.3181 26.596C10.6403 26.8419 11.0302 26.9829 11.4351 27.0001H11.5338C11.9221 27.0014 12.3021 26.8884 12.6266 26.6752C12.9512 26.4621 13.2058 26.1582 13.3588 25.8013L15.7913 20.2051L22.0001 26.4138C22.1858 26.5996 22.4063 26.747 22.649 26.8475C22.8917 26.948 23.1518 26.9998 23.4145 26.9998C23.6771 26.9998 23.9372 26.948 24.1799 26.8475C24.4226 26.747 24.6431 26.5996 24.8288 26.4138L26.4138 24.8288C26.5996 24.6431 26.747 24.4226 26.8475 24.1799C26.948 23.9372 26.9998 23.6771 26.9998 23.4145C26.9998 23.1518 26.948 22.8917 26.8475 22.649C26.747 22.4063 26.5996 22.1858 26.4138 22.0001L20.2051 15.7913ZM23.4138 25.0001L17.2063 18.7913C16.9758 18.5605 16.6923 18.3896 16.3806 18.2934C16.0689 18.1973 15.7384 18.1789 15.4179 18.2398C15.0974 18.3007 14.7967 18.439 14.5419 18.6428C14.2872 18.8466 14.0861 19.1096 13.9563 19.4088L11.5288 24.9901L5.00008 5.00008L24.9838 11.5263L19.4038 13.9526C19.1045 14.0824 18.8416 14.2834 18.6378 14.5382C18.434 14.7929 18.2957 15.0936 18.2348 15.4141C18.1739 15.7346 18.1923 16.0651 18.2884 16.3769C18.3846 16.6886 18.5555 16.9721 18.7863 17.2026L25.0001 23.4138L23.4138 25.0001ZM10.0001 2.00008V1.00008C10.0001 0.734866 10.1054 0.480512 10.293 0.292975C10.4805 0.105439 10.7349 8.22752e-05 11.0001 8.22752e-05C11.2653 8.22752e-05 11.5197 0.105439 11.7072 0.292975C11.8947 0.480512 12.0001 0.734866 12.0001 1.00008V2.00008C12.0001 2.2653 11.8947 2.51965 11.7072 2.70719C11.5197 2.89473 11.2653 3.00008 11.0001 3.00008C10.7349 3.00008 10.4805 2.89473 10.293 2.70719C10.1054 2.51965 10.0001 2.2653 10.0001 2.00008ZM8.22752e-05 11.0001C8.22752e-05 10.7349 0.105439 10.4805 0.292975 10.293C0.480512 10.1054 0.734866 10.0001 1.00008 10.0001H2.00008C2.2653 10.0001 2.51965 10.1054 2.70719 10.293C2.89473 10.4805 3.00008 10.7349 3.00008 11.0001C3.00008 11.2653 2.89473 11.5197 2.70719 11.7072C2.51965 11.8947 2.2653 12.0001 2.00008 12.0001H1.00008C0.734866 12.0001 0.480512 11.8947 0.292975 11.7072C0.105439 11.5197 8.22752e-05 11.2653 8.22752e-05 11.0001ZM14.1063 2.55258L15.1063 0.552582C15.225 0.315379 15.4331 0.135039 15.6847 0.0512334C15.9364 -0.0325719 16.211 -0.0129771 16.4482 0.105707C16.6854 0.224392 16.8658 0.432444 16.9496 0.684094C17.0334 0.935744 17.0138 1.21038 16.8951 1.44758L15.8951 3.44758C15.8363 3.56503 15.755 3.66976 15.6558 3.75578C15.5565 3.8418 15.4413 3.90743 15.3167 3.94893C15.1921 3.99043 15.0605 4.00697 14.9295 3.99763C14.7985 3.98828 14.6707 3.95322 14.5532 3.89446C14.4358 3.83569 14.331 3.75437 14.245 3.65513C14.159 3.55589 14.0934 3.44068 14.0519 3.31607C14.0104 3.19147 13.9938 3.05991 14.0032 2.92891C14.0125 2.79791 14.0476 2.67003 14.1063 2.55258ZM3.89508 14.5526C3.95393 14.6701 3.98904 14.7981 3.9984 14.9292C4.00776 15.0603 3.99119 15.1919 3.94963 15.3166C3.90806 15.4413 3.84233 15.5565 3.75619 15.6558C3.67004 15.7551 3.56517 15.8364 3.44758 15.8951L1.44758 16.8951C1.21038 17.0138 0.935744 17.0334 0.684094 16.9496C0.432444 16.8658 0.224392 16.6854 0.105707 16.4482C-0.0129771 16.211 -0.0325719 15.9364 0.0512334 15.6847C0.135039 15.4331 0.315379 15.225 0.552582 15.1063L2.55258 14.1063C2.67002 14.0474 2.79792 14.0123 2.92896 14.0028C3.06001 13.9934 3.19163 14.0098 3.3163 14.0513C3.44098 14.0927 3.55626 14.1583 3.65557 14.2443C3.75488 14.3304 3.83627 14.4351 3.89508 14.5526Z" fill="var(--fill-0, #F7F7F7)"/>
</g>
</svg>
