<svg preserveAspectRatio="none" width="100%" height="100%" overflow="visible" style="display: block;" viewBox="0 0 52 52" fill="none" xmlns="http://www.w3.org/2000/svg">
<g id="svg4249672539" clip-path="url(#clip0_0_4)">
<path id="Vector" d="M21 22C21 21.448 21.448 21 22 21H30C30.552 21 31 21.448 31 22V30C31 30.552 30.552 31 30 31H22C21.448 31 21 30.552 21 30V22Z" fill="var(--fill-0, #F7F7F7)"/>
<path id="Vector_2" d="M0 1C0 0.448 0.448 0 1 0H20C20.552 0 21 0.448 21 1V9C21 9.552 20.552 10 20 10H11C10.448 10 10 10.448 10 11V20C10 20.552 9.552 21 9 21H1C0.448 21 0 20.552 0 20V1ZM0 51C0 51.552 0.448 52 1 52H20C20.552 52 21 51.552 21 51V43C21 42.448 20.552 42 20 42H11C10.448 42 10 41.552 10 41V32C10 31.448 9.552 31 9 31H1C0.448 31 0 31.448 0 32V51ZM52 1C52 0.448 51.552 0 51 0H32C31.448 0 31 0.448 31 1V9C31 9.552 31.448 10 32 10H41C41.552 10 42 10.448 42 11V20C42 20.552 42.448 21 43 21H51C51.552 21 52 20.552 52 20V1ZM52 51C52 51.552 51.552 52 51 52H32C31.448 52 31 51.552 31 51V43C31 42.448 31.448 42 32 42H41C41.552 42 42 41.552 42 41V32C42 31.448 42.448 31 43 31H51C51.552 31 52 31.448 52 32V51Z" fill="var(--fill-0, #F7F7F7)"/>
</g>
<defs>
<clipPath id="clip0_0_4">
<rect width="52" height="52" fill="white"/>
</clipPath>
</defs>
</svg>
