<svg preserveAspectRatio="none" width="100%" height="100%" overflow="visible" style="display: block;" viewBox="0 0 79.7884 30.27" fill="none" xmlns="http://www.w3.org/2000/svg">
<g id="Group">
<path id="Vector" d="M46.9584 30.27V25.743C46.8454 25.867 46.7624 25.937 46.7044 26.023C45.8714 27.246 44.9144 28.343 43.6434 29.135C42.8915 29.6074 42.0539 29.9268 41.1784 30.075C40.8804 30.125 40.2004 30.167 39.8934 30.162C39.0194 30.147 38.5024 30.169 37.6434 29.917C35.6264 29.327 34.1414 28.084 33.1654 26.234C32.4224 24.827 32.0934 23.314 32.0024 21.733C31.9004 19.933 32.0874 18.176 32.7264 16.484C33.6214 14.117 35.1914 12.354 37.4674 11.212C39.0654 10.411 40.7564 10.024 42.5264 9.92C43.7714 9.846 45.0024 9.931 46.2154 10.244C46.3524 10.278 46.4894 10.322 46.6554 10.37C46.6554 10.215 46.6624 10.087 46.6554 9.957C46.6024 8.973 46.5674 7.99 46.4824 7.008C46.3364 5.312 45.3524 4.185 43.9284 3.375C43.8434 3.328 43.7604 3.278 43.5994 3.182L51.9474 0.817C51.9474 1.139 51.9544 1.423 51.9474 1.706C51.9124 2.98 51.8514 4.255 51.8384 5.53C51.7994 9.627 51.7514 13.722 51.7604 17.82C51.7644 19.89 51.8714 21.959 51.9644 24.028C52.0064 24.929 52.1364 25.826 52.4434 26.686C52.7884 27.656 53.3884 28.349 54.5254 29.044C52.0414 29.428 49.3864 29.893 46.9604 30.267M46.7514 18.419C46.7514 16.619 46.7494 14.821 46.7564 13.021C46.7564 12.834 46.6954 12.745 46.5324 12.645C45.7924 12.191 44.9844 11.955 44.1394 11.82C42.9594 11.631 41.8284 11.768 40.7894 12.387C39.4604 13.177 38.6874 14.397 38.2104 15.827C37.6564 17.49 37.5344 19.203 37.6764 20.94C37.7504 21.852 37.9194 22.749 38.2694 23.6C38.9824 25.33 40.2784 26.284 42.1364 26.484C43.6974 26.654 45.1734 26.308 46.6154 25.748C46.8054 25.674 46.8354 25.544 46.8254 25.363C46.7954 24.543 46.7584 23.72 46.7514 22.897C46.7414 21.405 46.7494 19.913 46.7474 18.421L46.7514 18.419ZM0.00436782 25.493C0.0563678 24.01 0.852368 22.983 1.16437 22.624C2.07137 21.586 3.27137 21.024 4.55437 20.62C6.52137 20.001 8.54337 19.85 10.5904 20.001C10.8534 20.021 10.9404 19.945 10.9474 19.68C10.9644 18.857 11.0474 18.034 11.0304 17.213C11.0034 15.943 10.5164 14.892 9.38237 14.221C8.78037 13.865 8.10837 13.715 7.41937 13.65C5.31737 13.456 3.39537 14.05 1.55437 14.996C1.50837 15.02 1.46037 15.042 1.34737 15.098C1.39337 14.955 1.41537 14.866 1.44737 14.781C2.22337 12.772 3.61737 11.352 5.60637 10.561C7.94537 9.631 10.3084 9.615 12.6194 10.673C14.6824 11.617 15.7824 13.3 16.0124 15.517C16.1124 16.481 16.0624 17.467 15.9954 18.437C15.8604 20.444 15.7904 22.448 15.9234 24.455C16.0274 26.062 16.7824 27.223 18.3254 27.812C18.5354 27.892 18.7474 27.977 18.9554 28.059L19.1904 28.157C19.0034 28.316 18.8534 28.455 18.6924 28.578C17.6624 29.371 16.5104 29.912 15.2214 30.068C14.5926 30.1467 13.9551 30.1217 13.3344 29.994C12.2604 29.764 11.6404 28.956 11.2644 27.984C11.0564 27.443 10.9494 26.863 10.7904 26.277C10.7454 26.342 10.6824 26.42 10.6364 26.505C9.64737 28.298 8.19737 29.568 6.18637 29.99C4.99737 30.24 3.81037 30.226 2.72137 29.753C2.31088 29.5759 1.92849 29.3398 1.58637 29.052C0.955424 28.5086 0.483099 27.8048 0.219368 27.015C0.0589321 26.5249 -0.0145085 26.0104 0.00236782 25.495L0.00436782 25.493ZM10.8734 23.104C10.8734 23.104 10.8834 21.321 10.8864 20.418C10.8864 20.268 10.8864 20.138 10.6764 20.177C9.38437 20.416 8.09937 20.685 6.94337 21.339C5.79937 21.984 5.04737 22.889 5.10837 24.296C5.15137 25.315 5.62537 26.014 6.57337 26.359C7.98637 26.874 9.35137 26.579 10.6934 26.062C10.7584 26.038 10.8214 25.916 10.8234 25.838C10.8324 24.935 10.8754 24.008 10.8754 23.104H10.8734ZM26.5464 0.011C28.1014 -0.00399996 29.3554 1.702 29.0664 3.387C28.7874 5.02 27.1574 6.399 25.4994 6.357C24.2964 6.327 23.3314 5.832 22.7694 4.744C22.2144 3.672 22.3534 2.612 23.0014 1.611C23.4774 0.875 24.1534 0.393 24.9714 0.113C25.2184 0.028 25.4984 0.037 25.7814 0M55.2244 12.233C57.9454 11.448 60.6374 10.668 63.3564 9.884L63.2304 14.119C63.2704 14.14 63.3084 14.162 63.3454 14.184C63.3974 14.101 63.4394 14.012 63.5044 13.941C64.5824 12.753 65.7694 11.693 67.1954 10.944C69.0754 9.958 71.0624 9.6 73.1554 10.141C74.3824 10.458 75.3044 11.183 75.9514 12.269C76.5774 13.315 76.8494 14.47 76.9974 15.66C77.1914 17.209 77.1544 18.763 77.1514 20.32C77.1494 22.118 77.1414 23.918 77.4314 25.706C77.6804 27.228 78.3414 28.494 79.5914 29.427C79.6604 29.479 79.7414 29.521 79.7884 29.614C76.0914 29.597 72.4254 29.436 68.7434 29.649C69.0364 29.389 69.3324 29.129 69.6234 28.867C70.4064 28.166 71.0994 27.399 71.4584 26.385C71.7544 25.545 71.9154 24.67 71.9514 23.784C72.0044 22.474 72.0264 21.163 72.0124 19.851C72.0071 18.7652 71.8633 17.6844 71.5844 16.635C71.3864 15.904 71.0714 15.233 70.5394 14.67C69.9564 14.056 69.2264 13.79 68.4134 13.708C66.7934 13.548 65.2234 13.852 63.6694 14.264C63.5784 14.288 63.4764 14.42 63.4544 14.518C63.4134 14.701 63.4214 14.896 63.4214 15.085C63.4214 16.931 63.4064 18.776 63.4264 20.622C63.4394 21.997 63.4804 23.369 63.5364 24.742C63.5694 25.519 63.7024 26.285 63.9894 27.017C64.3764 27.998 65.1104 28.687 65.9304 29.304C66.0734 29.412 66.2234 29.512 66.3674 29.649C62.7506 29.5006 59.1289 29.515 55.5134 29.692C55.6674 29.547 55.7654 29.458 55.8564 29.364C56.2744 28.937 56.7154 28.533 57.0984 28.074C57.8384 27.186 58.1544 26.105 58.2004 24.984C58.2784 23.08 58.2764 21.171 58.2784 19.265C58.2784 18.453 58.2264 17.639 58.1634 16.829C58.0354 15.176 57.3634 13.806 55.9964 12.816C55.7414 12.633 55.4984 12.436 55.2324 12.23L55.2244 12.234V12.233ZM30.9614 29.647H19.6844C19.7994 29.547 19.8744 29.479 19.9534 29.412C20.8054 28.693 21.5604 27.894 21.9574 26.826C22.2474 26.046 22.3664 25.228 22.3874 24.406C22.4334 22.672 22.4574 20.937 22.4424 19.202C22.4324 17.975 22.3754 16.746 22.0364 15.55C21.7704 14.622 21.2534 13.869 20.5404 13.24C20.1624 12.905 19.7734 12.581 19.3684 12.234L27.7014 9.88C27.7014 10.023 27.7054 10.108 27.7014 10.193C27.6724 10.716 27.6224 11.239 27.6164 11.763C27.6014 12.992 27.6094 14.221 27.6014 15.45C27.5904 16.716 27.5444 17.982 27.5554 19.245C27.5684 20.835 27.5964 22.427 27.6774 24.016C27.7144 24.741 27.8554 25.469 28.0164 26.179C28.2814 27.351 28.9864 28.242 29.9534 28.932C30.2984 29.18 30.6444 29.422 30.9634 29.647H30.9614Z" fill="var(--fill-0, #121212)"/>
</g>
</svg>
