<svg preserveAspectRatio="none" width="100%" height="100%" overflow="visible" style="display: block;" viewBox="0 0 119.886 21.339" fill="none" xmlns="http://www.w3.org/2000/svg">
<g id="Group">
<path id="Vector" d="M14.4 17.792C14.6 16.657 14.172 15.493 13.286 14.699C12.6335 14.1162 11.7899 13.7931 10.915 13.791C10.4001 13.7933 9.89166 13.6769 9.429 13.451C8.83896 13.1435 8.35216 12.6696 8.029 12.088C8.20176 11.6253 8.28885 11.1349 8.286 10.641C8.286 12.06 9.457 13.195 10.886 13.195H10.943C12.372 13.167 13.486 12.032 13.486 10.641C13.486 10.131 13.572 9.648 13.743 9.194C14.0313 8.47 14.5162 7.841 15.143 7.378C15.923 6.81477 16.8674 6.5254 17.829 6.555C17.143 5.448 16.2 4.484 15.029 3.831V4.03C15.0294 4.91251 14.7379 5.77039 14.2 6.47C14.0423 6.33734 13.8698 6.22325 13.686 6.13C14.156 5.54242 14.4082 4.81037 14.4 4.058C14.4 3.604 14.315 3.178 14.143 2.753C13.8748 2.13109 13.4331 1.59963 12.8707 1.22223C12.3084 0.844834 11.6492 0.637484 10.972 0.625H10.8C9.93164 0.622622 9.06689 0.736979 8.229 0.965C4.686 1.901 1.915 4.597 0.972 8.059C0.372 8.769 0 9.648 0 10.556C0.058 4.766 4.857 0.056 10.8 0H11.086C17 0.086 21.772 4.767 21.829 10.556V10.783C21.8014 11.7021 21.4586 12.5837 20.858 13.28C20.2817 13.9431 19.5125 14.4095 18.658 14.614C18.3402 14.6935 18.0135 14.7315 17.686 14.727C16.7902 14.7285 15.918 14.4398 15.2 13.904C14.943 14.244 14.629 14.528 14.286 14.812C14.858 15.55 15.172 16.515 15.115 17.452C16.2587 16.7884 17.2206 15.8523 17.915 14.727C18.172 14.699 18.429 14.67 18.686 14.614C17.8435 16.1552 16.56 17.4098 15 18.217C13.7511 18.8487 12.3716 19.1792 10.972 19.182C10.6717 19.1829 10.3749 19.1172 10.1031 18.9896C9.83126 18.862 9.59113 18.6756 9.4 18.444C9.143 18.104 9 17.706 9 17.281C9 16.713 9.286 16.174 9.686 15.805C10.086 15.89 10.515 15.947 10.972 15.947C10.229 15.947 9.6 16.543 9.6 17.281C9.6 18.019 10.2 18.614 10.972 18.614H11C11.743 18.614 12.372 18.019 12.372 17.281C12.372 16.543 11.772 15.947 11 15.947C10 15.947 9.029 15.664 8.172 15.181C8 15.068 7.8 14.954 7.658 14.841C7.30988 14.5755 6.99347 14.2708 6.715 13.933C6.886 13.819 7.029 13.677 7.2 13.535C7.572 14.018 8.058 14.443 8.629 14.755C9.35405 15.1598 10.1696 15.3748 11 15.38C11.486 15.38 11.943 15.55 12.286 15.834C12.715 16.174 12.972 16.714 12.972 17.309C12.972 17.735 12.829 18.132 12.572 18.473C13.2223 18.3378 13.8548 18.1281 14.457 17.848L14.4 17.792ZM18.857 9.137C18.7344 8.48686 18.5231 7.85664 18.229 7.264C17.258 7.123 16.286 7.35 15.543 7.917C15.1102 8.2338 14.758 8.64796 14.5148 9.12602C14.2716 9.60408 14.1442 10.1326 14.143 10.669C14.143 11.18 14.029 11.663 13.772 12.117C13.486 12.684 12.972 13.167 12.4 13.479C12.9297 13.6752 13.4154 13.9742 13.829 14.359C14.3179 13.983 14.7344 13.5211 15.058 12.996C15.4774 12.2929 15.6947 11.4877 15.686 10.669C15.686 10.187 15.857 9.761 16.172 9.421C16.5009 9.04286 16.9608 8.80333 17.4591 8.75064C17.9575 8.69794 18.4573 8.83599 18.858 9.137H18.857ZM19 10.613C18.972 9.932 18.372 9.364 17.629 9.336C16.858 9.336 16.258 9.932 16.258 10.641V10.669C16.286 11.379 16.886 11.946 17.628 11.946C18.4 11.946 19 11.35 19 10.641V10.613ZM16.172 11.918C16.029 12.428 15.829 12.968 15.543 13.422C16.315 13.989 17.286 14.245 18.229 14.074C18.486 14.046 18.743 13.961 19 13.876C20.286 13.366 21.172 12.145 21.2 10.783V10.613C21.2 9.761 21.086 8.91 20.829 8.087C19.886 4.654 17.115 1.93 13.6 0.993C14.2662 1.54396 14.7455 2.28768 14.972 3.122V3.15C16.7832 4.0785 18.2094 5.61548 19 7.491C19.429 8.485 19.629 9.563 19.629 10.698C19.6304 10.9961 19.5613 11.2902 19.4273 11.5565C19.2933 11.8227 19.0982 12.0535 18.858 12.23C18.5105 12.4868 18.0901 12.6259 17.658 12.627C17.3755 12.6141 17.0985 12.5447 16.8432 12.4229C16.588 12.3011 16.3598 12.1294 16.172 11.918ZM10.743 21.338C4.829 21.254 0.058 16.572 0 10.784V10.556C0.0278607 9.63679 0.37106 8.75513 0.972 8.059C1.543 7.406 2.315 6.952 3.172 6.725C3.486 6.64 3.829 6.612 4.143 6.612C5.029 6.612 5.915 6.896 6.629 7.435C6.886 7.095 7.2 6.81 7.543 6.527C6.96112 5.77384 6.66747 4.83757 6.715 3.887C5.57135 4.55069 4.60949 5.48678 3.915 6.612C3.65582 6.63573 3.39811 6.67345 3.143 6.725C3.98549 5.18377 5.26898 3.92918 6.829 3.122C8.07789 2.49022 9.4574 2.15973 10.857 2.157C11.487 2.157 12.057 2.441 12.429 2.895C12.686 3.235 12.829 3.632 12.829 4.058C12.829 4.654 12.543 5.165 12.143 5.534C11.7203 5.44316 11.2894 5.39558 10.857 5.392C11.6 5.392 12.229 4.796 12.229 4.058C12.229 3.32 11.629 2.724 10.857 2.724H10.829C10.086 2.724 9.457 3.32 9.457 4.058C9.457 4.796 10.057 5.392 10.829 5.392C11.829 5.392 12.8 5.675 13.658 6.158C13.828 6.271 14.028 6.385 14.172 6.498C14.515 6.782 14.829 7.066 15.115 7.406C14.943 7.52 14.8 7.662 14.629 7.804C14.242 7.30303 13.7555 6.88763 13.2 6.584C12.4749 6.17923 11.6594 5.96424 10.829 5.959C10.3624 5.95123 9.91104 5.79188 9.543 5.505C9.32957 5.32272 9.15785 5.09665 9.03948 4.84215C8.92112 4.58765 8.85888 4.31067 8.857 4.03C8.857 3.576 9.029 3.178 9.257 2.866C8.59742 3.0008 7.95529 3.21014 7.343 3.49C7.143 4.626 7.572 5.789 8.457 6.583C9.10973 7.16604 9.9538 7.48915 10.829 7.491C11.343 7.491 11.857 7.605 12.315 7.831C12.915 8.144 13.4 8.626 13.715 9.194C13.543 9.648 13.429 10.13 13.457 10.641C13.457 9.222 12.287 8.087 10.857 8.087H10.829C9.4 8.116 8.286 9.251 8.286 10.641C8.286 11.151 8.2 11.634 8.029 12.088C7.74074 12.812 7.25582 13.441 6.629 13.904C5.84906 14.4673 4.90463 14.7567 3.943 14.727C4.629 15.834 5.572 16.799 6.743 17.451C6.715 16.515 6.972 15.578 7.572 14.841C7.743 14.983 7.915 15.096 8.086 15.181C7.61602 15.7686 7.36376 16.5006 7.372 17.253C7.372 17.707 7.457 18.133 7.629 18.558C7.89718 19.1799 8.33889 19.7114 8.90126 20.0888C9.46363 20.4662 10.1228 20.6735 10.8 20.686H10.972C11.8403 20.688 12.705 20.5737 13.543 20.346C17.086 19.409 19.857 16.713 20.8 13.252C21.4 12.542 21.772 11.662 21.772 10.755C21.715 16.543 16.915 21.253 10.972 21.31H10.858L10.743 21.339V21.338ZM8.2 20.374C7.53433 19.8232 7.05543 19.0798 6.829 18.246V18.217C5.0174 17.2887 3.59086 15.7517 2.8 13.876C2.3783 12.8598 2.16475 11.7692 2.172 10.669C2.172 10.045 2.457 9.506 2.943 9.137C3.28836 8.87612 3.71019 8.73656 4.143 8.74C4.743 8.74 5.286 9.024 5.629 9.42C5.76128 8.89018 5.97301 8.38343 6.257 7.917C5.487 7.35 4.515 7.094 3.572 7.264C3.286 7.293 3.058 7.378 2.8 7.463C1.515 7.973 0.629 9.193 0.6 10.556V10.726C0.6 11.577 0.715 12.429 0.972 13.252C1.45507 14.9643 2.37553 16.5214 3.64285 17.7702C4.91017 19.0189 6.48071 19.9163 8.2 20.374ZM3.6 14.074C4.572 14.216 5.543 13.989 6.286 13.422C6.71895 13.1051 7.07126 12.6908 7.31447 12.2125C7.55767 11.7343 7.68495 11.2055 7.686 10.669C7.686 10.159 7.8 9.676 8.058 9.222C8.343 8.655 8.858 8.172 9.428 7.86H9.4C8.87093 7.66309 8.38573 7.36408 7.972 6.98C7.48262 7.35625 7.06583 7.81846 6.742 8.344C6.32277 9.04684 6.10547 9.85167 6.114 10.67C6.114 11.153 5.942 11.579 5.628 11.919C5.29913 12.2971 4.83923 12.5367 4.34087 12.5894C3.8425 12.6421 3.34267 12.504 2.942 12.203C3.085 12.855 3.314 13.48 3.599 14.075L3.6 14.074ZM2.829 10.726C2.858 11.407 3.458 12.003 4.2 12.003C4.972 12.003 5.572 11.407 5.572 10.698V10.669C5.543 9.96 4.943 9.393 4.2 9.393C3.429 9.393 2.829 9.988 2.829 10.726C2.829 10.698 2.829 10.698 2.829 10.726ZM30.572 5.08H33.572L36.372 12.429H36.4L39.143 5.079H42.172V15.436H40.286V7.123H40.257L37 15.436H35.657L32.429 7.123H32.4V15.436H30.572V5.08ZM47.4 5.08H54.515V6.696H49.315V9.336H54.257V10.868H49.315V13.791H54.8V15.437H47.4V5.08ZM62.972 9.563C63.257 9.563 63.515 9.534 63.8 9.506C64.058 9.478 64.286 9.393 64.543 9.307C64.772 9.194 64.943 9.024 65.086 8.853C65.229 8.655 65.315 8.399 65.315 8.087C65.315 7.804 65.258 7.577 65.115 7.407C64.972 7.236 64.829 7.066 64.629 6.981C64.4 6.867 64.2 6.782 63.943 6.782C63.6875 6.74678 63.4299 6.72775 63.172 6.725H61.429V9.648C61.429 9.563 62.972 9.563 62.972 9.563ZM59.515 5.08H63.257C63.743 5.08 64.257 5.136 64.743 5.221C65.2 5.307 65.629 5.505 66 5.732C66.372 5.959 66.686 6.3 66.886 6.669C67.115 7.066 67.229 7.519 67.229 8.059C67.229 8.797 67 9.421 66.572 9.903C66.143 10.386 65.543 10.698 64.772 10.868L67.629 15.465H65.342L62.856 11.067H61.456V15.465H59.542V5.08H59.515ZM79.657 7.52C79.3757 7.15327 79.001 6.86899 78.572 6.697C78.1444 6.52797 77.6887 6.44145 77.229 6.442C76.715 6.442 76.2 6.527 75.715 6.725C75.2739 6.91943 74.8756 7.19913 74.543 7.548C74.2 7.888 73.943 8.286 73.772 8.74C73.6 9.222 73.486 9.733 73.515 10.215C73.515 10.783 73.6 11.294 73.772 11.748C73.943 12.202 74.2 12.628 74.515 12.968C74.829 13.308 75.2 13.564 75.657 13.762C76.087 13.961 76.6 14.046 77.143 14.046C77.6768 14.0547 78.2053 13.9382 78.686 13.706C79.115 13.507 79.486 13.195 79.772 12.826L81.315 13.876C80.8457 14.45 80.2489 14.9064 79.572 15.209C78.886 15.522 78.086 15.692 77.143 15.692C76.3543 15.6967 75.571 15.5623 74.829 15.295C74.1553 15.0441 73.5348 14.6685 73 14.188C72.486 13.678 72.086 13.11 71.829 12.458C71.539 11.7562 71.3931 11.0033 71.4 10.244C71.4 9.421 71.543 8.654 71.829 8.002C72.1012 7.34735 72.5216 6.76476 73.057 6.3C73.5904 5.82386 74.2122 5.45724 74.887 5.221C75.9658 4.83153 77.1283 4.73391 78.257 4.938C78.629 4.994 79 5.08 79.343 5.221C79.686 5.363 80 5.505 80.315 5.704C80.6 5.902 80.886 6.129 81.086 6.384C81.115 6.414 79.657 7.52 79.657 7.52ZM93.887 11.634C93.887 12.259 93.772 12.826 93.543 13.337C93.343 13.819 93.029 14.273 92.629 14.614C92.229 14.954 91.772 15.238 91.258 15.436C90.707 15.629 90.1268 15.7251 89.543 15.72C88.9596 15.725 88.3797 15.6289 87.829 15.436C87.3212 15.2567 86.8546 14.9772 86.457 14.614C86.0717 14.2522 85.7612 13.8184 85.543 13.337C85.315 12.826 85.229 12.287 85.229 11.634V5.08H87.143V11.55C87.143 11.861 87.172 12.145 87.258 12.457C87.343 12.741 87.486 13.025 87.658 13.252C87.8543 13.4998 88.1094 13.6947 88.4 13.819C88.686 13.961 89.086 14.018 89.543 14.018C90 14.018 90.372 13.933 90.686 13.819C90.972 13.677 91.229 13.479 91.429 13.252C91.6 13.025 91.743 12.741 91.829 12.457C91.915 12.173 91.943 11.861 91.943 11.549V5.079H93.858C93.886 5.079 93.887 11.634 93.887 11.634ZM102.486 9.563C102.772 9.563 103.029 9.534 103.315 9.506C103.6 9.478 103.829 9.393 104.058 9.307C104.286 9.194 104.458 9.024 104.6 8.853C104.743 8.655 104.829 8.399 104.829 8.087C104.829 7.804 104.772 7.577 104.629 7.407C104.51 7.22236 104.342 7.07478 104.143 6.981C103.915 6.867 103.715 6.782 103.458 6.782C103.202 6.74678 102.944 6.72774 102.686 6.725H100.943V9.648C100.915 9.563 102.486 9.563 102.486 9.563ZM99 5.08H102.743C103.229 5.08 103.743 5.136 104.229 5.221C104.686 5.307 105.115 5.505 105.486 5.732C105.858 5.959 106.143 6.272 106.372 6.669C106.6 7.066 106.715 7.519 106.715 8.059C106.715 8.797 106.486 9.421 106.058 9.903C105.629 10.386 105.029 10.698 104.258 10.868L107.115 15.465H104.829L102.343 11.067H100.943V15.465H99.029C99 15.436 99 5.08 99 5.08ZM113.915 10.953L109.886 5.108H112.229L114.915 9.449L117.658 5.108H119.886L115.858 10.953V15.436H113.943V10.953H113.915Z" fill="var(--fill-0, #121212)"/>
</g>
</svg>
