<svg preserveAspectRatio="none" width="100%" height="100%" overflow="visible" style="display: block;" viewBox="0 0 89.746 15.916" fill="none" xmlns="http://www.w3.org/2000/svg">
<path id="Vector" fill-rule="evenodd" clip-rule="evenodd" d="M41.493 0H43.387V4.232H43.514C43.956 3.411 44.967 2.652 46.419 2.652C48.693 2.652 50.145 4.358 50.145 6.505V13.01H48.251V6.884C48.251 5.432 47.177 4.484 45.851 4.484C44.461 4.484 43.324 5.558 43.324 6.947V13.01H41.43V0H41.493ZM1.768 9.79L0 10.168C0.252 12.126 1.768 13.263 3.979 13.263C6.379 13.263 7.957 11.937 7.957 9.979C7.957 7.611 6.004 7.26 4.35 6.963C3.136 6.745 2.084 6.557 2.084 5.621C2.084 4.863 2.842 4.358 3.915 4.358C5.052 4.358 5.873 4.926 6.063 5.937L7.768 5.432C7.515 3.663 5.873 2.652 4.042 2.652C1.832 2.652 0.314999 3.916 0.314999 5.621C0.314999 7.891 2.128 8.269 3.717 8.6C4.958 8.858 6.063 9.089 6.063 10.168C6.063 10.989 5.368 11.558 4.042 11.558C2.778 11.558 1.957 10.99 1.768 9.79ZM23.304 2.905H21.409V13.01H23.304V7.074C23.304 5.558 24.441 4.484 25.83 4.484C27.093 4.484 28.167 5.431 28.167 6.884V13.01H30.062V6.505C30.062 4.358 28.609 2.653 26.335 2.653C24.883 2.653 23.872 3.41 23.43 4.232H23.304V2.905ZM57.472 2.653C54.756 2.653 52.482 4.737 52.482 7.958C52.482 11.053 54.503 13.263 57.535 13.263C59.745 13.263 61.514 12.126 62.145 10.105L60.314 9.663C59.998 10.926 58.798 11.621 57.534 11.621C55.64 11.621 54.44 10.421 54.44 8.463H62.335V7.831C62.335 4.863 60.566 2.653 57.472 2.653ZM57.472 4.358C58.987 4.358 60.251 5.305 60.377 7.01H54.503C54.63 5.495 55.893 4.358 57.472 4.358ZM64.231 10.168L65.999 9.789C66.189 10.989 67.009 11.558 68.273 11.558C69.599 11.558 70.294 10.989 70.294 10.168C70.294 9.088 69.189 8.858 67.949 8.6C66.359 8.269 64.546 7.891 64.546 5.621C64.546 3.916 66.062 2.653 68.273 2.653C70.104 2.653 71.746 3.663 71.999 5.431L70.294 5.937C70.104 4.927 69.284 4.357 68.146 4.357C67.073 4.357 66.315 4.863 66.315 5.621C66.315 6.557 67.367 6.745 68.581 6.963C70.235 7.26 72.189 7.611 72.189 9.979C72.189 11.937 70.61 13.263 68.209 13.263C65.999 13.263 64.483 12.126 64.231 10.168ZM83.494 2.653C80.715 2.653 78.757 4.926 78.757 7.958C78.757 11.053 80.841 13.263 83.557 13.263C85.548 13.263 86.374 12.16 86.761 11.644L86.778 11.621H86.904C86.904 12.505 87.536 13.011 88.357 13.011H89.746V11.242H89.304C88.989 11.242 88.799 11.116 88.799 10.8V2.905H86.904V4.358H86.778C86.399 3.789 85.452 2.653 83.494 2.653ZM83.873 4.421C85.578 4.421 87.031 5.684 87.031 7.958C87.031 9.916 85.767 11.495 83.873 11.495C82.104 11.495 80.715 10.105 80.715 7.958C80.715 5.874 82.041 4.421 83.873 4.421ZM74.777 3.474V13.01H76.672V2.653L74.777 3.474ZM17.305 2.905H19.389L15.221 13.958C14.652 15.348 13.641 15.916 12.063 15.916H10.231V14.147H12.063C12.883 14.147 13.263 13.768 13.579 13.074V13.01H13.073L9.473 2.905H11.557L14.337 11.179H14.463L17.305 2.905ZM76.736 0H74.842V1.895H76.736V0ZM38.905 2.905V4.548H35.999V9.98C35.999 10.927 36.379 11.306 37.263 11.306H38.842V13.011H37.2C35.305 13.011 34.042 12.127 34.042 10.043V4.548H32.21V2.905H34.168V0.758L35.936 0V2.905H38.905Z" fill="var(--fill-0, #121212)"/>
</svg>
