<svg preserveAspectRatio="none" width="100%" height="100%" overflow="visible" style="display: block;" viewBox="0 0 119.93 21.1903" fill="none" xmlns="http://www.w3.org/2000/svg">
<g id="Group">
<path id="Vector" d="M9.2616 15.6514L3.9436 10.3994C3.50527 9.97395 2.91845 9.736 2.3076 9.736C1.69676 9.736 1.10994 9.97395 0.671602 10.3994C0.458745 10.6112 0.289839 10.8631 0.174585 11.1404C0.0593308 11.4177 0 11.7151 0 12.0154C0 12.3157 0.0593308 12.6131 0.174585 12.8904C0.289839 13.1677 0.458745 13.4195 0.671602 13.6314L7.6456 20.5194C8.08159 20.9493 8.66929 21.1903 9.2816 21.1903C9.89391 21.1903 10.4816 20.9493 10.9176 20.5194L13.7036 17.7494L10.3536 14.5744L9.2616 15.6514ZM19.1006 15.6514L17.4646 14.0354L27.6916 3.91538C28.5876 3.03038 28.6076 1.56738 27.6916 0.682383C26.7756 -0.202617 25.3146 -0.221617 24.4186 0.682383L19.1006 5.93538L13.7626 0.663383C13.3243 0.23795 12.7374 0 12.1266 0C11.5158 0 10.9289 0.23795 10.4906 0.663383C10.2777 0.875239 10.1088 1.12706 9.99358 1.40438C9.87833 1.6817 9.819 1.97906 9.819 2.27938C9.819 2.5797 9.87833 2.87706 9.99358 3.15438C10.1088 3.43171 10.2777 3.68353 10.4906 3.89538L15.8086 9.14838L14.1726 10.7644L8.8536 5.51238C8.41527 5.08695 7.82845 4.849 7.2176 4.849C6.60676 4.849 6.01994 5.08695 5.5816 5.51238C5.36874 5.72424 5.19984 5.97606 5.08458 6.25338C4.96933 6.5307 4.91 6.82806 4.91 7.12838C4.91 7.4287 4.96933 7.72606 5.08458 8.00338C5.19984 8.28071 5.36874 8.53253 5.5816 8.74438L17.4446 20.4814C17.8806 20.9116 18.4685 21.1528 19.0811 21.1528C19.6937 21.1528 20.2816 20.9116 20.7176 20.4814L23.5226 17.7104L20.2306 14.4784L19.1006 15.6514Z" fill="var(--fill-0, #121212)"/>
<path id="Vector_2" d="M34.2356 10.3794L28.9186 15.6324L27.2816 14.0164L32.5996 8.76338C32.8125 8.55153 32.9814 8.29971 33.0966 8.02238C33.2119 7.74506 33.2712 7.4477 33.2712 7.14738C33.2712 6.84706 33.2119 6.5497 33.0966 6.27238C32.9814 5.99506 32.8125 5.74324 32.5996 5.53138C32.1613 5.10595 31.5744 4.868 30.9636 4.868C30.3528 4.868 29.7659 5.10595 29.3276 5.53138L24.0086 10.7834L22.8406 9.62938L19.5866 12.8994L27.2816 20.4994C27.7176 20.9296 28.3055 21.1708 28.9181 21.1708C29.5307 21.1708 30.1186 20.9296 30.5546 20.4994L37.5286 13.6124C37.7387 13.3965 37.9035 13.1409 38.0135 12.8605C38.1235 12.5801 38.1765 12.2806 38.1692 11.9795C38.1619 11.6784 38.0946 11.3817 37.9712 11.107C37.8478 10.8322 37.6708 10.5849 37.4506 10.3794C37.015 9.97142 36.4404 9.74441 35.8436 9.74441C35.2468 9.74441 34.6722 9.97142 34.2366 10.3794H34.2356ZM88.1596 16.5944C87.0876 16.5944 86.3676 15.9214 86.3676 14.7664V9.74438H89.8346V7.45438H86.3676V3.64638H83.6396V7.45638H81.4776V9.74638H83.6396V14.7674C83.6396 17.5194 85.2956 19.0004 87.9256 19.0004C88.8228 19.0222 89.7078 18.7888 90.4776 18.3274L89.7576 16.2104C89.2682 16.4774 88.7169 16.6093 88.1596 16.5944ZM119.93 13.0154C119.93 9.84138 118.196 7.24338 114.67 7.24338C111.378 7.24338 109.04 9.74438 109.04 13.1504C109.04 16.5564 111.32 19.0184 114.865 19.0184C116.989 19.0184 118.489 18.3264 119.618 16.9784L117.729 15.4394C117.183 16.1514 116.229 16.7484 114.885 16.7484C112.976 16.7484 111.885 15.7674 111.807 13.9584H119.93V13.0154ZM111.826 12.0154C111.924 10.4374 113.014 9.37938 114.631 9.37938C116.248 9.37938 117.183 10.4564 117.261 12.0154H111.826ZM50.1716 2.26038H47.3276V18.7884H57.7686V16.2864H50.1716V2.26138V2.26038ZM103.334 16.6514C101.308 16.6514 100.197 15.0934 100.197 13.1114C100.197 11.1304 101.269 9.57138 103.314 9.57138C104.58 9.57138 105.438 10.2834 105.963 11.1874L107.951 9.70638C107.463 8.91717 106.775 8.27045 105.958 7.83139C105.141 7.39232 104.222 7.1764 103.295 7.20538C99.7686 7.20538 97.4116 9.68738 97.4116 13.0924C97.4116 16.5174 99.7876 18.9804 103.314 18.9804C105.223 19.0374 107.015 18.0954 108.009 16.4784L106.041 14.9784C105.476 15.9204 104.58 16.6524 103.334 16.6524V16.6514ZM93.6706 2.16438C93.238 2.15345 92.8183 2.3124 92.5015 2.60718C92.1846 2.90195 91.9959 3.3091 91.9756 3.74138V3.83838C91.9756 4.76138 92.7356 5.51138 93.6706 5.51138C94.6056 5.51138 95.3656 4.76138 95.3656 3.83838C95.3856 2.93338 94.6636 2.20238 93.7676 2.16438H93.6706ZM78.7496 16.5944C77.6776 16.5944 76.9566 15.9214 76.9566 14.7664V9.74438H80.4246V7.45438H76.9556V3.64638H74.2286V7.45638H72.0666V9.74638H74.2286V14.7674C74.2286 17.5194 75.8846 19.0004 78.5146 19.0004C79.4118 19.0222 80.2968 18.7888 81.0666 18.3274L80.3456 16.2104C79.8565 16.4773 79.3056 16.6101 78.7486 16.5954L78.7496 16.5944ZM95.0156 7.45538H92.2876V18.7874H95.0156V7.45538ZM67.4506 8.78238C66.8076 7.93638 65.6586 7.22438 63.9246 7.22438C60.8076 7.22438 58.6846 9.70638 58.6846 13.1114C58.6846 16.5364 60.8076 18.9994 63.9246 18.9994C65.6586 18.9994 66.8276 18.3064 67.4506 17.4404L67.5876 18.7684H70.0416V7.43538H67.5876L67.4506 8.78238ZM67.3146 14.9394C66.6916 15.9014 65.8726 16.6324 64.5096 16.6324C62.7366 16.6324 61.4506 15.2664 61.4506 13.1314C61.4506 10.9954 62.7176 9.62938 64.5096 9.62938C65.8726 9.62938 66.6906 10.3414 67.3146 11.3224V14.9394Z" fill="var(--fill-0, #121212)"/>
</g>
</svg>
