<svg preserveAspectRatio="none" width="100%" height="100%" overflow="visible" style="display: block;" viewBox="0 0 79.8786 59.9811" fill="none" xmlns="http://www.w3.org/2000/svg">
<g id="Group">
<path id="Vector" fill-rule="evenodd" clip-rule="evenodd" d="M58.3626 11.3767V14.4217C66.4776 13.2497 70.7126 13.8377 71.0626 15.7117C71.4186 18.5217 63.4166 21.9207 61.8886 22.5097C61.7686 22.6257 61.6536 22.5097 61.5366 22.3937L61.5346 22.3917C61.527 22.3282 61.5337 22.2639 61.5541 22.2034C61.5745 22.1428 61.6082 22.0876 61.6526 22.0417C65.8866 20.1637 70.2426 17.4647 69.6526 16.0597C68.8286 14.4177 60.7066 15.2377 43.0596 19.5777C21.9976 24.7367 11.8796 24.0337 11.0556 21.4527C10.2316 19.1077 16.8206 16.4107 18.3506 15.8267H18.4676V15.9427C18.2896 16.0377 18.0576 16.1547 17.7906 16.2917C15.7606 17.3237 11.6206 19.4287 12.3536 20.9797C12.7096 22.0397 16.1196 22.2727 22.0016 21.5697V14.8877C21.9925 14.3689 22.1389 13.8593 22.4219 13.4245C22.7049 12.9896 23.1116 12.6494 23.5896 12.4477C23.907 12.3141 24.2478 12.2452 24.5921 12.2451C24.9364 12.245 25.2773 12.3136 25.5948 12.447C25.9122 12.5804 26.1998 12.7758 26.4407 13.0218C26.6816 13.2679 26.8709 13.5595 26.9976 13.8797C27.1256 14.1997 27.1876 14.5427 27.1806 14.8877V20.8687C28.3806 20.6987 29.5806 20.4657 30.8706 20.2157C31.3506 20.1217 31.8456 20.0257 32.3566 19.9297V7.15568C32.3751 6.48059 32.6559 5.83927 33.1395 5.36784C33.623 4.89641 34.2713 4.63198 34.9466 4.63068C35.6224 4.63048 36.2714 4.89462 36.755 5.36663C37.2386 5.83865 37.5184 6.4811 37.5346 7.15668V18.7657L37.6076 18.7487C39.1146 18.4027 40.6216 18.0567 42.2406 17.7097C42.3843 17.6282 42.5475 17.5878 42.7126 17.5927V2.57868C42.721 1.89581 42.9966 1.24342 43.4804 0.761466C43.9643 0.27951 44.6177 0.00638054 45.3006 0.000675227H45.3136C45.8349 -0.011138 46.348 0.132286 46.7876 0.412725C47.2272 0.693164 47.5736 1.09796 47.7826 1.57568C47.9226 1.89268 47.9976 2.23368 48.0056 2.57968V16.2997L48.0656 16.2887C49.8116 15.9397 51.5546 15.5917 53.0646 15.2447V11.3767C53.0654 10.6738 53.3448 9.99993 53.8415 9.50266C54.3382 9.00538 55.0118 8.72526 55.7146 8.72367C56.0629 8.72341 56.4079 8.79187 56.7297 8.92514C57.0516 9.05841 57.3439 9.25387 57.5901 9.50031C57.8363 9.74676 58.0314 10.0394 58.1643 10.3613C58.2972 10.6833 58.3653 11.0283 58.3646 11.3767H58.3626ZM22.0286 26.7647V28.7307C22.0417 29.402 22.3172 30.0415 22.7961 30.5122C23.275 30.9829 23.9192 31.2472 24.5906 31.2487C25.2625 31.249 25.9076 30.9852 26.3868 30.5141C26.8659 30.0431 27.1406 29.4025 27.1516 28.7307V26.1837C25.456 26.4715 23.7457 26.6661 22.0286 26.7647ZM32.3716 25.3147V32.4617C32.3619 32.9688 32.5024 33.4676 32.7756 33.895C33.0487 34.3224 33.4423 34.6595 33.9066 34.8637C34.2929 35.0335 34.7152 35.1052 35.1359 35.0724C35.5566 35.0397 35.9627 34.9034 36.318 34.6757C36.6733 34.4481 36.9668 34.1362 37.1725 33.7677C37.3781 33.3992 37.4894 32.9856 37.4966 32.5637V24.2607C35.8111 24.714 34.1001 25.0663 32.3726 25.3157L32.3716 25.3147ZM43.0686 23.1177H42.7156V28.1417C42.7445 28.8278 43.0369 29.4763 43.5321 29.9521C44.0273 30.4278 44.6869 30.6942 45.3736 30.6957C46.0607 30.6959 46.7213 30.4301 47.2166 29.9539C47.712 29.4778 48.0037 28.8283 48.0306 28.1417V21.9497L46.9506 22.1937C45.7266 22.4677 44.4346 22.7577 43.0686 23.1197V23.1177ZM53.0626 20.7847V23.8157C53.0771 24.3363 53.2453 24.8411 53.546 25.2663C53.8468 25.6916 54.2666 26.0184 54.7526 26.2057C55.0746 26.3297 55.4186 26.3887 55.7646 26.3787H55.7776C56.4596 26.3772 57.1137 26.1078 57.5989 25.6285C58.0842 25.1493 58.3617 24.4986 58.3716 23.8167V19.7377C56.8366 20.0857 55.0646 20.4357 53.0546 20.7857L53.0626 20.7847ZM37.0546 58.9487C36.3669 59.3099 35.6331 59.5756 34.8736 59.7387C34.1116 59.9007 33.3346 59.9817 32.5556 59.9807C31.7659 59.9891 30.9811 59.8556 30.2386 59.5867C29.5564 59.3395 28.9321 58.9549 28.4046 58.4567C27.8817 57.9542 27.4713 57.3465 27.2006 56.6737C26.6251 55.1692 26.6251 53.5052 27.2006 52.0007C27.4713 51.3282 27.8817 50.7208 28.4046 50.2187C28.9321 49.7201 29.5563 49.3352 30.2386 49.0877C30.9811 48.8184 31.7659 48.6846 32.5556 48.6927C33.3562 48.6858 34.1539 48.7904 34.9256 49.0037C35.6356 49.2037 36.2866 49.5717 36.8266 50.0737L35.1606 51.8937C34.8519 51.5703 34.4812 51.3125 34.0706 51.1357C33.6656 50.9637 33.1606 50.8787 32.5546 50.8787C32.0846 50.8717 31.6196 50.9587 31.1846 51.1357C30.7848 51.3018 30.4244 51.5502 30.1267 51.8646C29.829 52.1789 29.6007 52.5524 29.4566 52.9607C29.1438 53.8575 29.1438 54.8338 29.4566 55.7307C29.6056 56.1347 29.8346 56.5047 30.1306 56.8177C30.4266 57.1307 30.7856 57.3777 31.1836 57.5427C31.6196 57.7197 32.0856 57.8077 32.5546 57.8007C33.0056 57.8107 33.4546 57.7507 33.8886 57.6257C34.1966 57.5357 34.4956 57.4167 34.7816 57.2697V55.5197H32.8586V53.3357H37.0546V58.9487ZM6.73461 51.1057C7.06661 51.2527 7.35962 51.4757 7.58962 51.7587L9.40761 50.2707C9.1831 49.9854 8.91754 49.7351 8.61961 49.5277C8.33484 49.3296 8.02731 49.1664 7.70361 49.0417C7.38967 48.922 7.06479 48.8333 6.73361 48.7767C6.42083 48.7225 6.10407 48.6944 5.78661 48.6927C4.99653 48.6844 4.21139 48.8182 3.46862 49.0877C2.78717 49.3352 2.16368 49.7198 1.63662 50.2177C1.11319 50.72 0.70246 51.3277 0.431615 52.0007C-0.143872 53.5052 -0.143872 55.1692 0.431615 56.6737C0.702615 57.3467 1.11362 57.9537 1.63662 58.4557C2.16363 58.9536 2.78713 59.3382 3.46862 59.5857C4.2109 59.8541 4.99532 59.9872 5.78462 59.9787C6.52462 59.9787 7.25762 59.8247 7.93562 59.5257C8.63115 59.2244 9.22938 58.7359 9.66361 58.1147L7.69362 56.6437C7.46062 56.9987 7.14362 57.2907 6.77062 57.4927C6.37362 57.7007 5.93062 57.8047 5.48262 57.7967C5.07166 57.7996 4.66519 57.7111 4.29261 57.5377C3.92507 57.3659 3.59767 57.1189 3.33161 56.8127C3.05129 56.4933 2.83259 56.1248 2.68662 55.7257C2.37385 54.8288 2.37385 53.8525 2.68662 52.9557C2.8322 52.551 3.05347 52.1777 3.33861 51.8557C3.61759 51.5442 3.95987 51.2959 4.34255 51.1274C4.72524 50.9589 5.1395 50.8741 5.55761 50.8787C5.96163 50.8697 6.3629 50.9471 6.73461 51.1057ZM12.7006 52.0007C12.4051 52.7435 12.259 53.5373 12.2706 54.3367C12.2596 55.1367 12.4046 55.9307 12.7006 56.6737C12.9706 57.3467 13.3816 57.9537 13.9046 58.4557C14.4319 58.9537 15.0558 59.3383 15.7376 59.5857C17.2376 60.1117 18.8726 60.1117 20.3726 59.5857C21.0549 59.3386 21.6791 58.954 22.2066 58.4557C22.7295 57.9535 23.1399 57.3462 23.4106 56.6737C23.9861 55.1692 23.9861 53.5052 23.4106 52.0007C23.1399 51.3281 22.7296 50.7208 22.2066 50.2187C21.6791 49.7201 21.0549 49.3352 20.3726 49.0877C18.8723 48.562 17.2379 48.562 15.7376 49.0877C15.0558 49.3351 14.432 49.7197 13.9046 50.2177C13.3816 50.7201 12.9712 51.3278 12.7006 52.0007ZM14.9626 55.7257C14.801 55.2806 14.7207 54.8101 14.7256 54.3367C14.722 53.8663 14.8023 53.3989 14.9626 52.9567C15.1062 52.5486 15.3339 52.1752 15.6311 51.8608C15.9283 51.5464 16.2882 51.298 16.6876 51.1317C17.5694 50.7885 18.5478 50.7885 19.4296 51.1317C19.8304 51.2976 20.1915 51.5465 20.4894 51.8618C20.7872 52.1772 21.0149 52.552 21.1576 52.9617C21.4704 53.8585 21.4704 54.8348 21.1576 55.7317C21.008 56.1354 20.7784 56.5048 20.4826 56.8177C20.1866 57.1287 19.8285 57.374 19.4316 57.5377C18.5501 57.882 17.5712 57.882 16.6896 57.5377C16.2914 57.3725 15.9326 57.1251 15.6366 56.8117C15.3405 56.4988 15.1112 56.13 14.9626 55.7257ZM44.2366 48.9667H41.0256V59.7077H43.3856V52.0607H43.4156L48.0966 59.7077H51.1896V48.9677H48.8266V56.4307H48.7966L44.2366 48.9667ZM55.2346 48.9667H57.5966V59.7077H55.2346V48.9667ZM60.6556 51.0607H63.7156V59.7077H66.0796V51.0607H69.1396V48.9667H60.6556V51.0607ZM72.3206 48.9667H79.6076V51.1507H74.6826V53.1537H79.3326V55.3387H74.6826V57.5237H79.8786V59.7077H72.3186V48.9677L72.3206 48.9667Z" fill="var(--fill-0, #121212)"/>
</g>
</svg>
