<svg preserveAspectRatio="none" width="100%" height="100%" overflow="visible" style="display: block;" viewBox="0 0 25.263 25.264" fill="none" xmlns="http://www.w3.org/2000/svg">
<g id="Group">
<path id="Vector" d="M5.089 6.913C4.712 6.913 4.272 6.788 4.021 6.473C3.707 6.222 3.581 5.845 3.518 5.405C3.455 4.965 3.644 4.588 3.895 4.274C4.023 4.11415 4.18588 3.98572 4.37117 3.89854C4.55646 3.81135 4.75925 3.76772 4.964 3.771C7.477 3.52 9.803 2.326 11.562 0.503C11.688 0.377 11.877 0.252 12.065 0.126C12.254 0.063 12.442 0 12.631 0C12.819 0 13.008 -1.49012e-08 13.259 0.126C13.448 0.189 13.636 0.315 13.762 0.44C13.887 0.566 14.013 0.755 14.139 0.943C14.202 1.132 14.265 1.32 14.265 1.509C14.265 1.697 14.265 1.886 14.139 2.137C14.0724 2.32562 13.9652 2.49733 13.825 2.64C11.562 5.028 8.545 6.536 5.278 6.85C5.215 6.913 5.152 6.913 5.089 6.913Z" fill="url(#paint0_radial_0_25)"/>
<path id="Vector_2" d="M20.173 18.351C20.551 18.351 20.99 18.476 21.242 18.791C21.493 19.105 21.682 19.419 21.745 19.859C21.745 20.236 21.619 20.676 21.368 20.99C21.24 21.1498 21.0771 21.2783 20.8918 21.3655C20.7065 21.4526 20.5038 21.4963 20.299 21.493C17.785 21.744 15.46 22.938 13.7 24.761C13.575 24.886 13.386 25.012 13.198 25.138C13.009 25.201 12.821 25.264 12.632 25.264C12.444 25.264 12.255 25.264 12.004 25.138C11.8154 25.0713 11.6437 24.9641 11.501 24.824C11.3603 24.6681 11.2342 24.4997 11.124 24.321C11.061 24.132 10.998 23.944 10.998 23.755C10.998 23.567 10.998 23.378 11.124 23.127C11.187 22.938 11.312 22.75 11.438 22.624C13.7 20.236 16.717 18.728 19.985 18.414C20.111 18.351 20.173 18.351 20.173 18.351Z" fill="url(#paint1_radial_0_25)"/>
<path id="Vector_3" d="M18.35 5.091C18.35 4.714 18.475 4.274 18.79 4.022C19.041 3.708 19.418 3.582 19.858 3.52C20.235 3.52 20.675 3.645 20.989 3.897C21.303 4.148 21.492 4.525 21.492 4.965C21.743 7.479 22.937 9.805 24.76 11.564C24.886 11.689 25.011 11.878 25.137 12.066C25.2 12.255 25.263 12.444 25.263 12.632C25.263 12.821 25.263 13.009 25.137 13.261C25.0702 13.4492 24.9631 13.6206 24.823 13.763C24.6673 13.9039 24.4989 14.0301 24.32 14.14C24.131 14.203 23.943 14.266 23.754 14.266C23.566 14.266 23.377 14.266 23.126 14.14C22.9374 14.0733 22.7657 13.9661 22.623 13.826C20.235 11.564 18.727 8.547 18.413 5.279C18.35 5.216 18.35 5.154 18.35 5.091Z" fill="url(#paint2_radial_0_25)"/>
<path id="Vector_4" d="M6.913 20.173C6.913 20.55 6.787 20.99 6.473 21.242C6.222 21.556 5.845 21.682 5.405 21.744C5.028 21.744 4.588 21.619 4.274 21.367C4.11435 21.2391 3.98603 21.0763 3.89886 20.8912C3.81169 20.7061 3.76795 20.5036 3.771 20.299C3.519 17.785 2.325 15.459 0.503 13.7C0.377 13.575 0.251 13.386 0.126 13.198C0.063 13.009 0 12.82 0 12.632C0 12.443 -4.47035e-08 12.255 0.126 12.003C0.189 11.815 0.314 11.626 0.44 11.501C0.566 11.375 0.754 11.249 0.943 11.124C1.131 11.061 1.32 10.998 1.508 10.998C1.697 10.998 1.885 10.998 2.137 11.124C2.325 11.187 2.514 11.312 2.64 11.438C5.028 13.7 6.536 16.717 6.85 19.985C6.88383 20.0426 6.90528 20.1066 6.913 20.173Z" fill="url(#paint3_radial_0_25)"/>
<path id="Vector_5" d="M11.375 3.268C11.062 3.017 10.936 2.577 10.873 2.2C10.873 1.823 10.999 1.383 11.25 1.132C11.378 0.972155 11.5409 0.843722 11.7262 0.756536C11.9115 0.66935 12.1142 0.625725 12.319 0.629C12.759 0.629 13.136 0.755 13.449 1.006C15.398 2.577 17.912 3.456 20.426 3.394C20.614 3.394 20.803 3.394 21.054 3.52C21.243 3.582 21.431 3.708 21.557 3.834C21.682 3.96 21.808 4.148 21.934 4.337C21.997 4.525 22.06 4.714 22.06 4.902C22.06 5.091 22.06 5.279 21.934 5.531C21.8672 5.71925 21.7601 5.8906 21.62 6.033C21.4641 6.17366 21.2957 6.29984 21.117 6.41C20.928 6.473 20.74 6.536 20.551 6.536C17.283 6.599 14.078 5.531 11.564 3.456L11.376 3.268H11.375Z" fill="url(#paint4_radial_0_25)"/>
<path id="Vector_6" d="M13.949 22.059C14.264 22.309 14.389 22.749 14.452 23.127C14.452 23.504 14.326 23.944 14.075 24.195C13.9471 24.3547 13.7844 24.4831 13.5993 24.5702C13.4142 24.6574 13.2116 24.7011 13.007 24.698C12.63 24.698 12.19 24.572 11.876 24.321C9.927 22.75 7.413 21.87 4.9 21.933C4.711 21.933 4.523 21.933 4.271 21.807C4.08239 21.7404 3.91069 21.6332 3.768 21.493C3.643 21.367 3.518 21.179 3.391 20.99C3.329 20.802 3.266 20.613 3.266 20.425C3.266 20.236 3.266 20.048 3.391 19.796C3.454 19.608 3.58 19.419 3.706 19.293C3.831 19.168 4.02 19.042 4.208 18.916C4.397 18.853 4.585 18.791 4.774 18.791C8.042 18.728 11.247 19.796 13.761 21.87L13.949 22.059Z" fill="url(#paint5_radial_0_25)"/>
<path id="Vector_7" d="M22.06 11.375C22.311 11.061 22.751 10.935 23.128 10.873C23.505 10.873 23.945 10.998 24.196 11.25C24.511 11.5 24.699 11.878 24.699 12.318C24.699 12.695 24.574 13.135 24.322 13.449C22.751 15.397 21.872 17.911 21.934 20.425C21.934 20.613 21.934 20.802 21.808 21.053C21.7414 21.2416 21.6342 21.4133 21.494 21.556C21.368 21.682 21.18 21.807 20.991 21.933C20.803 21.996 20.614 22.059 20.426 22.059C20.237 22.059 20.049 22.059 19.797 21.933C19.6088 21.8662 19.4374 21.759 19.295 21.619C19.1541 21.4631 19.0276 21.2947 18.917 21.116C18.855 20.927 18.792 20.739 18.792 20.55C18.729 17.283 19.797 14.077 21.872 11.564C21.997 11.438 21.997 11.375 22.06 11.375Z" fill="url(#paint6_radial_0_25)"/>
<path id="Vector_8" d="M3.268 13.952C3.018 14.266 2.578 14.392 2.2 14.454C1.823 14.454 1.383 14.329 1.132 14.077C0.972346 13.9491 0.844034 13.7863 0.75686 13.6012C0.669686 13.4161 0.625953 13.2136 0.629 13.009C0.629 12.632 0.755 12.192 1.006 11.878C2.577 9.93 3.457 7.416 3.394 4.902C3.394 4.714 3.394 4.525 3.52 4.274C3.583 4.085 3.708 3.897 3.834 3.771C3.96 3.645 4.148 3.52 4.337 3.394C4.525 3.331 4.714 3.268 4.902 3.268C5.091 3.268 5.28 3.268 5.531 3.394C5.719 3.457 5.908 3.582 6.034 3.708C6.159 3.834 6.285 4.022 6.411 4.211C6.474 4.399 6.536 4.588 6.536 4.776C6.599 8.044 5.531 11.249 3.457 13.763C3.331 13.826 3.268 13.889 3.268 13.952Z" fill="url(#paint7_radial_0_25)"/>
</g>
<defs>
<radialGradient id="paint0_radial_0_25" cx="0" cy="0" r="1" gradientUnits="userSpaceOnUse" gradientTransform="translate(12.735 1.574) scale(9.771 9.76925)">
<stop offset="0.15"/>
<stop offset="1" stop-opacity="0.1"/>
</radialGradient>
<radialGradient id="paint1_radial_0_25" cx="0" cy="0" r="1" gradientUnits="userSpaceOnUse" gradientTransform="translate(12.555 23.713) rotate(180) scale(9.771 9.76925)">
<stop offset="0.15"/>
<stop offset="1" stop-opacity="0.1"/>
</radialGradient>
<radialGradient id="paint2_radial_0_25" cx="0" cy="0" r="1" gradientUnits="userSpaceOnUse" gradientTransform="translate(23.715 12.734) rotate(90) scale(9.76925 9.771)">
<stop offset="0.15"/>
<stop offset="1" stop-opacity="0.1"/>
</radialGradient>
<radialGradient id="paint3_radial_0_25" cx="0" cy="0" r="1" gradientUnits="userSpaceOnUse" gradientTransform="translate(1.574 12.552) rotate(-90) scale(9.76925 9.771)">
<stop offset="0.15"/>
<stop offset="1" stop-opacity="0.1"/>
</radialGradient>
<radialGradient id="paint4_radial_0_25" cx="0" cy="0" r="1" gradientUnits="userSpaceOnUse" gradientTransform="translate(20.5341 4.88155) rotate(44.995) scale(9.77015)">
<stop offset="0.15"/>
<stop offset="1" stop-opacity="0.1"/>
</radialGradient>
<radialGradient id="paint5_radial_0_25" cx="0" cy="0" r="1" gradientUnits="userSpaceOnUse" gradientTransform="translate(4.76468 20.4077) rotate(-135.006) scale(9.77015)">
<stop offset="0.15"/>
<stop offset="1" stop-opacity="0.1"/>
</radialGradient>
<radialGradient id="paint6_radial_0_25" cx="0" cy="0" r="1" gradientUnits="userSpaceOnUse" gradientTransform="translate(20.4056 20.5485) rotate(135.006) scale(9.77015)">
<stop offset="0.15"/>
<stop offset="1" stop-opacity="0.1"/>
</radialGradient>
<radialGradient id="paint7_radial_0_25" cx="0" cy="0" r="1" gradientUnits="userSpaceOnUse" gradientTransform="translate(4.88509 4.7477) rotate(-44.995) scale(9.77015)">
<stop offset="0.15"/>
<stop offset="1" stop-opacity="0.1"/>
</radialGradient>
</defs>
</svg>
