<svg preserveAspectRatio="none" width="100%" height="100%" overflow="visible" style="display: block;" viewBox="0 0 119.761 32.4218" fill="none" xmlns="http://www.w3.org/2000/svg">
<g id="Group">
<path id="Vector" d="M28.123 22.2168L28.107 22.1628L38.755 12.4248V7.73176H21.671V12.4238H31.876L31.892 12.4698L21.348 22.2168V26.9088H38.927V22.2168H28.123ZM49.414 7.28475C47.444 7.28475 45.837 7.58176 44.596 8.17576C43.44 8.693 42.4659 9.54548 41.8 10.6228C41.1635 11.7067 40.7638 12.9132 40.627 14.1628L45.811 14.8918C45.999 13.7878 46.374 13.0058 46.936 12.5448C47.5758 12.0629 48.3639 11.8195 49.164 11.8568C50.216 11.8568 50.979 12.1368 51.454 12.6998C51.924 13.2618 52.162 14.0398 52.162 15.0658V15.5768H47.178C44.641 15.5768 42.818 16.1388 41.71 17.2628C40.602 18.3868 40.049 19.8698 40.05 21.7128C40.05 23.6018 40.604 25.0068 41.71 25.9278C42.817 26.8498 44.208 27.3078 45.884 27.3018C47.964 27.3018 49.564 26.5878 50.683 25.1578C51.3438 24.2796 51.8157 23.2742 52.069 22.2048H52.258L52.972 26.8968H57.669V15.0148C57.669 12.5588 57.021 10.6568 55.726 9.30776C54.43 7.95976 52.326 7.28475 49.414 7.28475ZM51.057 21.9328C50.311 22.5528 49.336 22.8628 48.12 22.8628C47.119 22.8628 46.423 22.6878 46.033 22.3368C45.8435 22.1709 45.6927 21.9655 45.5912 21.735C45.4898 21.5045 45.4402 21.2545 45.446 21.0028C45.4346 20.765 45.4719 20.5275 45.5554 20.3047C45.639 20.0818 45.7671 19.8784 45.932 19.7068C46.1103 19.5397 46.3206 19.4105 46.5502 19.3269C46.7798 19.2434 47.024 19.2073 47.268 19.2208H52.171V19.5438C52.1813 20.0008 52.0861 20.454 51.8929 20.8683C51.6997 21.2826 51.4137 21.6469 51.057 21.9328ZM86.069 7.73176H80.519V26.9118H86.069V7.73176ZM118.83 7.73176C117.263 7.73176 116.027 8.28476 115.123 9.38976C114.475 10.1838 113.981 11.3578 113.644 12.9098H113.481L112.755 7.73176H108.016V26.9088H113.565V17.0748C113.565 15.8348 113.856 14.8838 114.437 14.2228C115.018 13.5608 116.091 13.2308 117.655 13.2308H119.761V7.73176H118.83ZM102.516 8.35876C101.221 7.58876 99.587 7.20476 97.614 7.20676C94.509 7.20676 92.079 8.08976 90.324 9.85676C88.568 11.6228 87.691 14.0578 87.691 17.1618C87.6462 19.0384 88.0562 20.898 88.886 22.5818C89.6464 24.0827 90.8298 25.328 92.29 26.1638C93.76 27.0138 95.508 27.4378 97.535 27.4398C99.288 27.4398 100.753 27.1698 101.928 26.6308C103.033 26.1465 103.996 25.387 104.724 24.4248C105.417 23.4809 105.932 22.4185 106.243 21.2898L101.462 19.9518C101.26 20.686 100.873 21.3559 100.337 21.8968C99.796 22.4358 98.892 22.7058 97.622 22.7058C96.113 22.7058 94.988 22.2738 94.247 21.4098C93.71 20.7868 93.373 19.8958 93.223 18.7408H106.316C106.37 18.2008 106.398 17.7488 106.398 17.3838V16.1898C106.429 14.5855 106.098 12.9949 105.428 11.5368C104.8 10.2081 103.785 9.10035 102.516 8.35876ZM97.454 11.7788C99.704 11.7788 100.98 12.8848 101.282 15.0968H93.322C93.4482 14.3585 93.7542 13.6627 94.213 13.0708C94.943 12.2068 96.024 11.7768 97.454 11.7788ZM83.355 0.00175532C82.9375 -0.0122541 82.5215 0.0577101 82.1315 0.207499C81.7416 0.357288 81.3857 0.583852 81.085 0.873755C80.7891 1.16627 80.5571 1.51701 80.4038 1.90378C80.2504 2.29056 80.179 2.70495 80.194 3.12076C80.171 3.75188 80.3447 4.37456 80.6912 4.90255C81.0377 5.43055 81.5398 5.83775 82.128 6.06776C82.518 6.22076 82.936 6.29176 83.355 6.27676C83.7713 6.29238 84.1863 6.22124 84.5737 6.06785C84.961 5.91446 85.3122 5.68217 85.605 5.38576C85.8953 5.08647 86.122 4.73148 86.2713 4.3422C86.4207 3.95292 86.4896 3.53741 86.474 3.12076C86.4934 2.70658 86.4261 2.29292 86.2763 1.90631C86.1264 1.5197 85.8974 1.16867 85.604 0.875755C85.3106 0.582729 84.9593 0.354036 84.5726 0.204248C84.1859 0.0544596 83.7723 -0.0131402 83.358 0.00575533L83.355 0.00175532ZM71.892 7.20676C70.002 7.20676 68.482 7.79975 67.335 8.98575C66.485 9.86375 65.862 11.1758 65.465 12.9188H65.287L64.562 7.74076H59.822V32.4218H65.372V22.2558H65.574C65.744 22.9338 65.981 23.5928 66.284 24.2228C66.7535 25.2492 67.523 26.1093 68.491 26.6898C69.4956 27.2375 70.6272 27.51 71.771 27.4798C74.094 27.4798 75.863 26.5758 77.078 24.7678C78.293 22.9608 78.901 20.4378 78.901 17.2008C78.901 14.0748 78.313 11.6278 77.137 9.85976C75.962 8.09076 74.213 7.20676 71.892 7.20676ZM72.454 21.1038C71.807 22.0408 70.794 22.5088 69.416 22.5088C68.848 22.5348 68.282 22.4253 67.7647 22.1893C67.2474 21.9533 66.7937 21.5977 66.441 21.1518C65.722 20.2508 65.364 19.0178 65.366 17.4518V17.0858C65.366 15.4958 65.724 14.2778 66.441 13.4338C67.157 12.5888 68.149 12.1708 69.416 12.1798C70.819 12.1798 71.838 12.6248 72.474 13.5148C73.109 14.4048 73.427 15.6448 73.427 17.2378C73.431 18.8838 73.108 20.1728 72.46 21.1038H72.454ZM19.199 22.2168H0V26.9148H19.2V22.2168H19.199Z" fill="var(--fill-0, #121212)"/>
</g>
</svg>
