<svg preserveAspectRatio="xMidYMid meet" width="179" height="33" overflow="visible" style="display: block;" viewBox="0 0 179 33" fill="none" xmlns="http://www.w3.org/2000/svg">
<g id="svg1059559079" clip-path="url(#clip0_0_6)">
<path id="Vector" d="M21.852 27.597C22.149 25.895 21.514 24.15 20.201 22.959C19.238 22.086 17.986 21.601 16.686 21.597C15.922 21.6 15.168 21.425 14.483 21.087C13.606 20.624 12.885 19.913 12.408 19.044C12.665 18.349 12.794 17.614 12.79 16.874C12.79 19.001 14.526 20.704 16.643 20.704H16.728C18.821 20.675 20.502 18.968 20.498 16.874C20.498 16.108 20.624 15.384 20.878 14.704C21.302 13.639 22.022 12.661 22.954 11.98C24.097 11.129 25.537 10.703 26.934 10.746C25.918 9.086 24.521 7.639 22.784 6.661V6.959C22.786 8.28 22.354 9.566 21.556 10.619C21.323 10.42 21.067 10.248 20.794 10.108C21.514 9.214 21.852 8.108 21.852 7.001C21.852 6.321 21.725 5.682 21.472 5.044C20.671 3.146 18.83 1.896 16.77 1.852H16.516C15.204 1.852 13.933 2.022 12.705 2.362C7.453 3.767 3.345 7.81 1.948 13.002C1.058 14.065 0.508 15.384 0.508 16.746C0.593 8.065 7.708 1 16.516 0.916H16.94C25.706 1.044 32.779 8.065 32.864 16.746V17.086C32.824 18.462 32.316 19.783 31.424 20.831C30.577 21.81 29.434 22.533 28.163 22.831C27.697 22.959 27.189 23.001 26.723 23.001C25.393 23.003 24.099 22.569 23.038 21.767C22.658 22.277 22.191 22.703 21.683 23.129C22.53 24.235 22.996 25.682 22.911 27.086C24.61 26.087 26.036 24.684 27.061 23.001C27.443 22.959 27.824 22.916 28.205 22.831C26.977 25.129 25.071 27.001 22.742 28.235C20.893 29.182 18.847 29.678 16.77 29.682C15.867 29.684 15.011 29.277 14.441 28.576C14.058 28.075 13.85 27.462 13.848 26.831C13.848 25.98 14.272 25.171 14.865 24.618C15.491 24.757 16.129 24.828 16.77 24.831C15.67 24.831 14.738 25.724 14.738 26.831C14.738 27.937 15.627 28.831 16.77 28.831H16.813C17.913 28.831 18.846 27.937 18.846 26.831C18.846 25.724 17.956 24.831 16.813 24.831C15.331 24.831 13.891 24.405 12.62 23.682C12.366 23.512 12.07 23.342 11.858 23.172C11.341 22.773 10.872 22.316 10.46 21.81C10.714 21.64 10.926 21.427 11.18 21.214C11.752 21.964 12.473 22.587 13.298 23.044C14.371 23.65 15.581 23.972 16.813 23.98C17.533 23.98 18.21 24.235 18.719 24.66C19.354 25.171 19.735 25.98 19.735 26.873C19.733 27.504 19.525 28.117 19.142 28.618C20.107 28.415 21.045 28.101 21.937 27.682L21.852 27.597ZM28.459 14.618C28.289 13.639 27.951 12.703 27.528 11.81C26.088 11.597 24.648 11.937 23.547 12.788C22.242 13.759 21.472 15.289 21.471 16.916C21.471 17.682 21.301 18.406 20.921 19.086C20.497 19.937 19.735 20.661 18.888 21.129C19.674 21.425 20.393 21.873 21.005 22.448C21.731 21.883 22.348 21.191 22.827 20.405C23.462 19.341 23.758 18.15 23.758 16.916C23.758 16.193 24.012 15.554 24.478 15.044C25.029 14.4 25.833 14.027 26.68 14.022C27.316 14.022 27.95 14.235 28.459 14.618ZM28.671 16.831C28.629 15.81 27.739 14.959 26.638 14.916C25.495 14.916 24.605 15.81 24.605 16.873V16.916C24.648 17.98 25.537 18.831 26.638 18.831C27.782 18.831 28.671 17.937 28.671 16.874V16.831ZM24.478 18.788C24.266 19.554 23.97 20.363 23.547 21.044C24.69 21.894 26.13 22.278 27.527 22.022C27.909 21.98 28.29 21.852 28.671 21.725C30.577 20.959 31.89 19.129 31.931 17.086V16.831C31.938 15.548 31.753 14.272 31.381 13.044C29.984 7.894 25.876 3.81 20.667 2.405C21.656 3.235 22.366 4.35 22.699 5.597V5.639C25.393 7.04 27.507 9.346 28.671 12.15C29.306 13.64 29.603 15.256 29.603 16.959C29.603 17.895 29.179 18.703 28.459 19.256C27.946 19.641 27.322 19.85 26.68 19.852C25.832 19.811 25.037 19.427 24.478 18.788ZM16.432 32.916C7.665 32.788 0.592 25.767 0.508 17.086V16.746C0.55 15.342 1.058 14.066 1.948 13.002C2.795 12.023 3.938 11.341 5.208 11.001C5.679 10.882 6.163 10.825 6.648 10.831C7.962 10.831 9.274 11.256 10.333 12.065C10.714 11.555 11.18 11.129 11.688 10.703C10.841 9.597 10.375 8.15 10.46 6.746C8.761 7.745 7.335 9.148 6.31 10.831C5.929 10.874 5.548 10.916 5.166 11.001C6.395 8.703 8.3 6.831 10.63 5.597C12.478 4.65 14.524 4.155 16.6 4.15C17.532 4.15 18.379 4.576 18.93 5.256C19.312 5.757 19.52 6.37 19.522 7.001C19.522 7.895 19.099 8.661 18.506 9.214C17.87 9.086 17.279 9 16.6 9C17.701 9 18.633 8.107 18.633 7C18.633 5.894 17.743 5 16.6 5H16.558C15.457 5 14.525 5.894 14.525 7C14.525 8.107 15.415 9 16.558 9C18.04 9 19.48 9.426 20.75 10.15C21.005 10.32 21.3 10.49 21.513 10.66C22.021 11.085 22.487 11.51 22.91 12.021C22.656 12.191 22.444 12.404 22.19 12.617C21.618 11.867 20.898 11.244 20.073 10.787C19 10.181 17.79 9.859 16.558 9.851C15.88 9.851 15.202 9.596 14.652 9.171C14.01 8.614 13.639 7.808 13.635 6.958C13.635 6.277 13.89 5.681 14.228 5.213C13.254 5.426 12.28 5.723 11.391 6.149C11.095 7.851 11.73 9.596 13.043 10.787C14.006 11.66 15.258 12.145 16.558 12.149C17.32 12.149 18.082 12.319 18.76 12.659C19.637 13.122 20.358 13.833 20.835 14.702C20.581 15.383 20.412 16.107 20.454 16.872C20.454 14.745 18.718 13.042 16.6 13.042H16.558C14.465 13.071 12.784 14.778 12.788 16.872C12.788 17.638 12.661 18.362 12.408 19.042C11.984 20.107 11.264 21.085 10.332 21.766C9.189 22.617 7.749 23.043 6.352 23C7.368 24.66 8.765 26.107 10.502 27.085C10.459 25.681 10.84 24.277 11.73 23.17C11.984 23.383 12.238 23.553 12.492 23.681C11.772 24.575 11.433 25.681 11.433 26.787C11.433 27.468 11.56 28.107 11.814 28.745C12.615 30.642 14.456 31.892 16.515 31.936H16.769C18.082 31.936 19.353 31.766 20.581 31.426C25.832 30.021 29.941 25.979 31.338 20.787C32.228 19.723 32.778 18.404 32.778 17.043C32.693 25.723 25.578 32.787 16.769 32.873H16.6L16.43 32.915L16.432 32.916ZM12.662 31.469C11.673 30.639 10.964 29.525 10.63 28.278V28.235C7.937 26.834 5.822 24.529 4.658 21.725C4.023 20.193 3.726 18.575 3.726 16.916C3.726 15.98 4.15 15.171 4.87 14.618C5.38 14.227 6.006 14.017 6.649 14.022C7.538 14.022 8.343 14.448 8.851 15.044C9.063 14.235 9.359 13.469 9.783 12.788C8.639 11.938 7.199 11.554 5.802 11.81C5.378 11.852 5.039 11.98 4.658 12.107C2.752 12.874 1.44 14.703 1.398 16.746V17C1.398 18.277 1.567 19.553 1.948 20.787C3.388 25.979 7.453 30.065 12.662 31.469ZM5.844 22.022C7.284 22.235 8.724 21.895 9.824 21.044C11.129 20.073 11.899 18.543 11.9 16.916C11.9 16.15 12.07 15.426 12.45 14.746C12.874 13.895 13.637 13.171 14.484 12.703H14.441C13.655 12.407 12.936 11.959 12.324 11.384C11.598 11.949 10.981 12.641 10.502 13.427C9.867 14.491 9.571 15.682 9.571 16.916C9.578 17.609 9.321 18.278 8.851 18.788C8.3 19.432 7.496 19.805 6.649 19.81C6.006 19.815 5.379 19.605 4.869 19.214C5.082 20.193 5.42 21.129 5.844 22.022ZM4.701 17.002C4.743 18.022 5.632 18.916 6.733 18.916C7.877 18.916 8.766 18.022 8.766 16.959V16.916C8.724 15.852 7.834 15.001 6.733 15.001C5.59 15.001 4.701 15.895 4.701 17.001C4.701 16.959 4.701 16.959 4.701 17.001V17.002ZM45.823 8.533H50.27L54.42 19.554H54.462L58.528 8.533H63.018V24.065H60.222V11.597H60.18L55.352 24.065H53.362L48.576 11.597H48.533V24.065H45.823V8.533ZM70.767 8.533H81.313V10.959H73.605V14.916H80.931V17.214H73.605V21.597H81.736V24.065H70.767V8.533ZM93.848 15.256C94.272 15.256 94.653 15.214 95.077 15.171C95.457 15.129 95.797 15.001 96.177 14.874C96.517 14.704 96.771 14.448 96.982 14.193C97.194 13.895 97.322 13.512 97.322 13.043C97.322 12.618 97.237 12.278 97.025 12.023C96.813 11.767 96.601 11.512 96.305 11.384C95.966 11.214 95.669 11.086 95.288 11.086C94.909 11.033 94.527 11.005 94.145 11.001H91.56V15.384C91.56 15.256 93.848 15.256 93.848 15.256ZM88.724 8.533H94.272C94.992 8.533 95.754 8.618 96.474 8.746C97.152 8.873 97.787 9.171 98.338 9.512C98.888 9.852 99.354 10.362 99.651 10.916C99.989 11.512 100.159 12.193 100.159 13.001C100.159 14.108 99.819 15.044 99.185 15.767C98.549 16.491 97.66 16.959 96.516 17.214L100.752 24.108H97.364L93.679 17.512H91.604V24.108H88.766V8.533H88.724ZM118.581 12.193C118.166 11.644 117.61 11.218 116.972 10.959C116.339 10.705 115.663 10.575 114.981 10.576C114.212 10.569 113.45 10.713 112.737 11.001C112.102 11.299 111.509 11.682 111 12.235C110.495 12.741 110.105 13.351 109.857 14.022C109.603 14.746 109.433 15.512 109.476 16.235C109.476 17.086 109.603 17.852 109.857 18.533C110.111 19.213 110.492 19.853 110.958 20.363C111.424 20.873 111.974 21.256 112.652 21.554C113.287 21.852 114.05 21.98 114.854 21.98C115.701 21.98 116.464 21.81 117.141 21.47C117.775 21.165 118.327 20.712 118.751 20.15L121.038 21.725C120.345 22.584 119.46 23.269 118.454 23.725C117.438 24.193 116.252 24.448 114.854 24.448C113.626 24.448 112.44 24.235 111.424 23.852C110.424 23.474 109.504 22.911 108.713 22.192C107.951 21.427 107.358 20.576 106.977 19.597C106.554 18.576 106.342 17.469 106.342 16.277C106.342 15.044 106.554 13.895 106.977 12.916C107.38 11.936 108.003 11.063 108.798 10.363C109.586 9.651 110.508 9.101 111.509 8.746C113.107 8.161 114.832 8.014 116.506 8.32C117.057 8.405 117.607 8.533 118.115 8.746C118.624 8.959 119.089 9.171 119.555 9.469C119.979 9.767 120.402 10.108 120.699 10.491C120.741 10.533 118.581 12.193 118.581 12.193ZM139.672 18.363C139.672 19.299 139.502 20.15 139.164 20.916C138.867 21.651 138.403 22.307 137.808 22.831C137.205 23.355 136.518 23.772 135.775 24.065C134.971 24.363 134.081 24.49 133.234 24.49C132.387 24.49 131.498 24.363 130.693 24.065C129.939 23.795 129.248 23.375 128.661 22.831C128.068 22.278 127.644 21.639 127.305 20.916C126.967 20.15 126.84 19.341 126.84 18.363V8.533H129.677V18.235C129.677 18.703 129.719 19.129 129.846 19.597C129.973 20.022 130.185 20.447 130.439 20.788C130.693 21.128 131.075 21.427 131.54 21.639C131.964 21.852 132.557 21.937 133.234 21.937C133.812 21.94 134.386 21.839 134.928 21.639C135.346 21.429 135.721 21.14 136.03 20.789C136.294 20.428 136.494 20.025 136.623 19.597C136.75 19.171 136.792 18.703 136.792 18.235V8.533H139.629C139.672 8.533 139.672 18.363 139.672 18.363ZM152.419 15.256C152.843 15.256 153.224 15.214 153.647 15.171C154.071 15.129 154.41 15.001 154.749 14.874C155.087 14.704 155.341 14.448 155.553 14.193C155.765 13.895 155.892 13.512 155.892 13.043C155.892 12.618 155.807 12.278 155.596 12.023C155.426 11.767 155.172 11.512 154.876 11.384C154.537 11.214 154.24 11.086 153.859 11.086C153.48 11.033 153.098 11.005 152.716 11.001H150.132V15.384C150.09 15.256 152.419 15.256 152.419 15.256ZM147.253 8.533H152.8C153.52 8.533 154.283 8.618 155.003 8.746C155.68 8.873 156.316 9.171 156.866 9.512C157.417 9.852 157.84 10.32 158.179 10.916C158.518 11.512 158.687 12.193 158.687 13.001C158.687 14.108 158.348 15.044 157.713 15.767C157.078 16.491 156.188 16.959 155.045 17.214L159.28 24.108H155.892L152.208 17.512H150.132V24.108H147.295C147.253 24.065 147.253 8.533 147.253 8.533ZM169.36 17.342L163.388 8.576H166.861L170.842 15.086L174.907 8.576H178.211L172.239 17.341V24.065H169.402V17.34H169.36V17.342Z" fill="var(--fill-0, #1F19E1)"/>
</g>
<defs>
<clipPath id="clip0_0_6">
<rect width="179" height="33" fill="white"/>
</clipPath>
</defs>
</svg>
