<svg preserveAspectRatio="none" width="100%" height="100%" overflow="visible" style="display: block;" viewBox="0 0 25 25" fill="none" xmlns="http://www.w3.org/2000/svg">
<g id="svg705454791_1753" clip-path="url(#clip0_0_6)">
<path id="Vector" d="M24.9609 12.6329C24.9609 6.00546 19.5884 0.632874 12.9609 0.632874C6.33352 0.632874 0.960938 6.00546 0.960938 12.6329C0.960938 19.2603 6.33352 24.6329 12.9609 24.6329C19.5884 24.6329 24.9609 19.2603 24.9609 12.6329Z" fill="var(--fill-0, #424242)"/>
<path id="Vector_2" d="M18.3552 12.6328C18.3552 15.6088 15.9426 18.0214 12.9666 18.0214C9.99065 18.0214 7.57812 15.6088 7.57812 12.6328C7.57812 9.65685 9.99065 7.24432 12.9666 7.24432" stroke="var(--stroke-0, #8F8F8F)" stroke-width="1.12261" stroke-linecap="round" stroke-linejoin="round"/>
<path id="Vector_3" d="M10.9431 12.1838C11.3151 12.1838 11.6167 11.8822 11.6167 11.5102C11.6167 11.1382 11.3151 10.8367 10.9431 10.8367C10.5711 10.8367 10.2695 11.1382 10.2695 11.5102C10.2695 11.8822 10.5711 12.1838 10.9431 12.1838Z" fill="var(--fill-0, #8F8F8F)"/>
<path id="Vector_4" d="M14.9861 12.1839C15.3581 12.1839 15.6596 11.8823 15.6596 11.5103C15.6596 11.1383 15.3581 10.8367 14.9861 10.8367C14.6141 10.8367 14.3125 11.1383 14.3125 11.5103C14.3125 11.8823 14.6141 12.1839 14.9861 12.1839Z" fill="var(--fill-0, #8F8F8F)"/>
<path id="Vector_5" d="M15.299 13.98C15.0616 14.3889 14.7209 14.7284 14.3112 14.9644C13.9014 15.2003 13.4368 15.3245 12.9639 15.3245C12.4911 15.3245 12.0265 15.2003 11.6167 14.9644C11.2069 14.7284 10.8663 14.3889 10.6289 13.98" stroke="var(--stroke-0, #8F8F8F)" stroke-width="1.12261" stroke-linecap="round" stroke-linejoin="round"/>
<path id="Vector_6" fill-rule="evenodd" clip-rule="evenodd" d="M18.4616 5.44815C18.4616 5.13815 18.2102 4.88684 17.9002 4.88684C17.5902 4.88684 17.3389 5.13815 17.3389 5.44815V7.13207H15.6551C15.3451 7.13207 15.0938 7.38337 15.0938 7.69337C15.0938 8.00337 15.3451 8.25468 15.6551 8.25468H17.3389V9.93858C17.3389 10.2486 17.5902 10.4999 17.9002 10.4999C18.2102 10.4999 18.4616 10.2486 18.4616 9.93858V8.25468H20.1455C20.4555 8.25468 20.7068 8.00337 20.7068 7.69337C20.7068 7.38337 20.4555 7.13207 20.1455 7.13207H18.4616V5.44815Z" fill="var(--fill-0, #8F8F8F)"/>
</g>
<defs>
<clipPath id="clip0_0_6">
<rect width="25" height="25" fill="white"/>
</clipPath>
</defs>
</svg>
