<svg preserveAspectRatio="none" width="100%" height="100%" overflow="visible" style="display: block;" viewBox="0 0 21 22" fill="none" xmlns="http://www.w3.org/2000/svg">
<g id="svg-987474682_831" clip-path="url(#clip0_0_4)">
<path id="Vector" d="M20.8671 9.8153H14.968L20.0849 6.84944L18.9768 4.89393L13.8599 7.85978L16.8257 2.74287L14.8702 1.60215L11.9043 6.71907V0.819946H9.65551V6.71907L6.68965 1.60215L4.73414 2.71027L7.69999 7.82719L2.58308 4.89393L1.47495 6.84944L6.59187 9.8153H0.660156V12.0641H6.55928L1.44236 14.9974L2.55048 16.9529L7.6674 13.9871L4.70154 19.104L6.65706 20.2121L9.62291 15.0952V21.0269H11.8718V15.1278L14.8376 20.2447L16.7931 19.1366L13.8273 14.0196L18.9442 16.9855L20.0523 15.03L14.9354 12.0641H20.8671V9.8153ZM10.7636 13.9871C9.06885 13.9871 7.69999 12.6182 7.69999 10.9234C7.69999 9.22864 9.06885 7.85978 10.7636 7.85978C12.4584 7.85978 13.8273 9.22864 13.8273 10.9234C13.8273 12.6182 12.4584 13.9871 10.7636 13.9871Z" fill="var(--fill-0, #625DF5)"/>
</g>
<defs>
<clipPath id="clip0_0_4">
<rect width="21" height="22" fill="white"/>
</clipPath>
</defs>
</svg>
