<svg preserveAspectRatio="none" width="100%" height="100%" overflow="visible" style="display: block;" viewBox="0 0 28 28" fill="none" xmlns="http://www.w3.org/2000/svg">
<g id="svg-1792586841_767">
<path id="Vector" d="M13.725 13.88C13.725 11.82 15.423 10.152 17.518 10.152C19.614 10.152 21.312 11.821 21.312 13.879C21.312 15.938 19.614 17.607 17.518 17.607C15.423 17.607 13.725 15.937 13.725 13.879V13.88Z" fill="var(--fill-0, #1ABCFE)"/>
<path id="Vector_2" d="M6.137 21.334C6.137 19.275 7.835 17.606 9.931 17.606H13.724V21.334C13.724 23.392 12.026 25.061 9.931 25.061C7.835 25.061 6.137 23.392 6.137 21.334Z" fill="var(--fill-0, #0ACF83)"/>
<path id="Vector_3" d="M13.725 2.697V10.152H17.518C19.614 10.152 21.312 8.483 21.312 6.425C21.312 4.366 19.614 2.697 17.518 2.697H13.725Z" fill="var(--fill-0, #FF7262)"/>
<path id="Vector_4" d="M6.137 6.425C6.137 8.483 7.835 10.152 9.931 10.152H13.724V2.697H9.931C7.835 2.697 6.137 4.367 6.137 6.425Z" fill="var(--fill-0, #F24E1E)"/>
<path id="Vector_5" d="M6.137 13.88C6.137 15.938 7.835 17.606 9.931 17.606H13.724V10.152H9.931C7.835 10.152 6.137 11.821 6.137 13.879V13.88Z" fill="var(--fill-0, #A259FF)"/>
</g>
</svg>
