<svg preserveAspectRatio="none" width="100%" height="100%" overflow="visible" style="display: block;" viewBox="0 0 226 543" fill="none" xmlns="http://www.w3.org/2000/svg">
<g id="svg-2139219472_31397" clip-path="url(#clip0_0_93)">
<path id="Vector" d="M15.277 355.5C15.277 355.04 15.1865 354.585 15.0106 354.161C14.8347 353.736 14.5769 353.35 14.2519 353.025C13.9269 352.7 13.541 352.442 13.1164 352.266C12.6918 352.091 12.2366 352 11.777 352H3.777C2.84874 352 1.9585 352.369 1.30213 353.025C0.645749 353.681 0.277 354.572 0.277 355.5V363.5C0.277 364.428 0.645749 365.319 1.30213 365.975C1.9585 366.631 2.84874 367 3.777 367H11.777C12.2366 367 12.6918 366.909 13.1164 366.734C13.541 366.558 13.9269 366.3 14.2519 365.975C14.5769 365.65 14.8347 365.264 15.0106 364.839C15.1865 364.415 15.277 363.96 15.277 363.5V355.5ZM15.277 371.5C15.277 371.04 15.1865 370.585 15.0106 370.161C14.8347 369.736 14.5769 369.35 14.2519 369.025C13.9269 368.7 13.541 368.442 13.1164 368.266C12.6918 368.091 12.2366 368 11.777 368H3.777C2.84874 368 1.9585 368.369 1.30213 369.025C0.645749 369.681 0.277 370.572 0.277 371.5V379.5C0.277 380.428 0.645749 381.319 1.30213 381.975C1.9585 382.631 2.84874 383 3.777 383H11.777C12.2366 383 12.6918 382.909 13.1164 382.734C13.541 382.558 13.9269 382.3 14.2519 381.975C14.5769 381.65 14.8347 381.264 15.0106 380.839C15.1865 380.415 15.277 379.96 15.277 379.5V371.5ZM15.277 451.5C15.277 451.04 15.1865 450.585 15.0106 450.161C14.8347 449.736 14.5769 449.35 14.2519 449.025C13.9269 448.7 13.541 448.442 13.1164 448.266C12.6918 448.091 12.2366 448 11.777 448H3.777C2.84874 448 1.9585 448.369 1.30213 449.025C0.645749 449.681 0.277 450.572 0.277 451.5V459.5C0.277 460.428 0.645749 461.319 1.30213 461.975C1.9585 462.631 2.84874 463 3.777 463H11.777C12.2366 463 12.6918 462.909 13.1164 462.734C13.541 462.558 13.9269 462.3 14.2519 461.975C14.5769 461.65 14.8347 461.264 15.0106 460.839C15.1865 460.415 15.277 459.96 15.277 459.5V451.5ZM15.277 467.5C15.277 467.04 15.1865 466.585 15.0106 466.161C14.8347 465.736 14.5769 465.35 14.2519 465.025C13.9269 464.7 13.541 464.442 13.1164 464.266C12.6918 464.091 12.2366 464 11.777 464H3.777C2.84874 464 1.9585 464.369 1.30213 465.025C0.645749 465.681 0.277 466.572 0.277 467.5V475.5C0.277 476.428 0.645749 477.319 1.30213 477.975C1.9585 478.631 2.84874 479 3.777 479H11.777C12.2366 479 12.6918 478.909 13.1164 478.734C13.541 478.558 13.9269 478.3 14.2519 477.975C14.5769 477.65 14.8347 477.264 15.0106 476.839C15.1865 476.415 15.277 475.96 15.277 475.5V467.5ZM15.277 483.5C15.277 483.04 15.1865 482.585 15.0106 482.161C14.8347 481.736 14.5769 481.35 14.2519 481.025C13.9269 480.7 13.541 480.442 13.1164 480.266C12.6918 480.091 12.2366 480 11.777 480H3.777C2.84874 480 1.9585 480.369 1.30213 481.025C0.645749 481.681 0.277 482.572 0.277 483.5V491.5C0.277 492.428 0.645749 493.319 1.30213 493.975C1.9585 494.631 2.84874 495 3.777 495H11.777C12.2366 495 12.6918 494.909 13.1164 494.734C13.541 494.558 13.9269 494.3 14.2519 493.975C14.5769 493.65 14.8347 493.264 15.0106 492.839C15.1865 492.415 15.277 491.96 15.277 491.5V483.5ZM15.277 499.5C15.277 499.04 15.1865 498.585 15.0106 498.161C14.8347 497.736 14.5769 497.35 14.2519 497.025C13.9269 496.7 13.541 496.442 13.1164 496.266C12.6918 496.091 12.2366 496 11.777 496H3.777C2.84874 496 1.9585 496.369 1.30213 497.025C0.645749 497.681 0.277 498.572 0.277 499.5V507.5C0.277 508.428 0.645749 509.319 1.30213 509.975C1.9585 510.631 2.84874 511 3.777 511H11.777C12.2366 511 12.6918 510.909 13.1164 510.734C13.541 510.558 13.9269 510.3 14.2519 509.975C14.5769 509.65 14.8347 509.264 15.0106 508.839C15.1865 508.415 15.277 507.96 15.277 507.5V499.5ZM31.277 355.5C31.277 355.04 31.1865 354.585 31.0106 354.161C30.8347 353.736 30.5769 353.35 30.2519 353.025C29.9269 352.7 29.541 352.442 29.1164 352.266C28.6918 352.091 28.2366 352 27.777 352H19.777C18.8487 352 17.9585 352.369 17.3021 353.025C16.6457 353.681 16.277 354.572 16.277 355.5V363.5C16.277 364.428 16.6457 365.319 17.3021 365.975C17.9585 366.631 18.8487 367 19.777 367H27.777C28.2366 367 28.6918 366.909 29.1164 366.734C29.541 366.558 29.9269 366.3 30.2519 365.975C30.5769 365.65 30.8347 365.264 31.0106 364.839C31.1865 364.415 31.277 363.96 31.277 363.5V355.5ZM31.277 371.5C31.277 371.04 31.1865 370.585 31.0106 370.161C30.8347 369.736 30.5769 369.35 30.2519 369.025C29.9269 368.7 29.541 368.442 29.1164 368.266C28.6918 368.091 28.2366 368 27.777 368H19.777C18.8487 368 17.9585 368.369 17.3021 369.025C16.6457 369.681 16.277 370.572 16.277 371.5V379.5C16.277 380.428 16.6457 381.319 17.3021 381.975C17.9585 382.631 18.8487 383 19.777 383H27.777C28.2366 383 28.6918 382.909 29.1164 382.734C29.541 382.558 29.9269 382.3 30.2519 381.975C30.5769 381.65 30.8347 381.264 31.0106 380.839C31.1865 380.415 31.277 379.96 31.277 379.5V371.5ZM31.277 451.5C31.277 451.04 31.1865 450.585 31.0106 450.161C30.8347 449.736 30.5769 449.35 30.2519 449.025C29.9269 448.7 29.541 448.442 29.1164 448.266C28.6918 448.091 28.2366 448 27.777 448H19.777C18.8487 448 17.9585 448.369 17.3021 449.025C16.6457 449.681 16.277 450.572 16.277 451.5V459.5C16.277 460.428 16.6457 461.319 17.3021 461.975C17.9585 462.631 18.8487 463 19.777 463H27.777C28.2366 463 28.6918 462.909 29.1164 462.734C29.541 462.558 29.9269 462.3 30.2519 461.975C30.5769 461.65 30.8347 461.264 31.0106 460.839C31.1865 460.415 31.277 459.96 31.277 459.5V451.5ZM31.277 467.5C31.277 467.04 31.1865 466.585 31.0106 466.161C30.8347 465.736 30.5769 465.35 30.2519 465.025C29.9269 464.7 29.541 464.442 29.1164 464.266C28.6918 464.091 28.2366 464 27.777 464H19.777C18.8487 464 17.9585 464.369 17.3021 465.025C16.6457 465.681 16.277 466.572 16.277 467.5V475.5C16.277 476.428 16.6457 477.319 17.3021 477.975C17.9585 478.631 18.8487 479 19.777 479H27.777C28.2366 479 28.6918 478.909 29.1164 478.734C29.541 478.558 29.9269 478.3 30.2519 477.975C30.5769 477.65 30.8347 477.264 31.0106 476.839C31.1865 476.415 31.277 475.96 31.277 475.5V467.5ZM31.277 483.5C31.277 483.04 31.1865 482.585 31.0106 482.161C30.8347 481.736 30.5769 481.35 30.2519 481.025C29.9269 480.7 29.541 480.442 29.1164 480.266C28.6918 480.091 28.2366 480 27.777 480H19.777C18.8487 480 17.9585 480.369 17.3021 481.025C16.6457 481.681 16.277 482.572 16.277 483.5V491.5C16.277 492.428 16.6457 493.319 17.3021 493.975C17.9585 494.631 18.8487 495 19.777 495H27.777C28.2366 495 28.6918 494.909 29.1164 494.734C29.541 494.558 29.9269 494.3 30.2519 493.975C30.5769 493.65 30.8347 493.264 31.0106 492.839C31.1865 492.415 31.277 491.96 31.277 491.5V483.5ZM31.277 499.5C31.277 499.04 31.1865 498.585 31.0106 498.161C30.8347 497.736 30.5769 497.35 30.2519 497.025C29.9269 496.7 29.541 496.442 29.1164 496.266C28.6918 496.091 28.2366 496 27.777 496H19.777C18.8487 496 17.9585 496.369 17.3021 497.025C16.6457 497.681 16.277 498.572 16.277 499.5V507.5C16.277 508.428 16.6457 509.319 17.3021 509.975C17.9585 510.631 18.8487 511 19.777 511H27.777C28.2366 511 28.6918 510.909 29.1164 510.734C29.541 510.558 29.9269 510.3 30.2519 509.975C30.5769 509.65 30.8347 509.264 31.0106 508.839C31.1865 508.415 31.277 507.96 31.277 507.5V499.5ZM47.277 419.5C47.277 418.572 46.9082 417.681 46.2519 417.025C45.5955 416.369 44.7053 416 43.777 416H35.777C34.8487 416 33.9585 416.369 33.3021 417.025C32.6458 417.681 32.277 418.572 32.277 419.5V427.5C32.277 428.428 32.6458 429.319 33.3021 429.975C33.9585 430.631 34.8487 431 35.777 431H43.777C44.7053 431 45.5955 430.631 46.2519 429.975C46.9082 429.319 47.277 428.428 47.277 427.5V419.5ZM47.277 435.5C47.277 434.572 46.9082 433.681 46.2519 433.025C45.5955 432.369 44.7053 432 43.777 432H35.777C34.8487 432 33.9585 432.369 33.3021 433.025C32.6458 433.681 32.277 434.572 32.277 435.5V443.5C32.277 444.428 32.6458 445.319 33.3021 445.975C33.9585 446.631 34.8487 447 35.777 447H43.777C44.7053 447 45.5955 446.631 46.2519 445.975C46.9082 445.319 47.277 444.428 47.277 443.5V435.5ZM47.277 483.5C47.277 482.572 46.9082 481.681 46.2519 481.025C45.5955 480.369 44.7053 480 43.777 480H35.777C34.8487 480 33.9585 480.369 33.3021 481.025C32.6458 481.681 32.277 482.572 32.277 483.5V491.5C32.277 492.428 32.6458 493.319 33.3021 493.975C33.9585 494.631 34.8487 495 35.777 495H43.777C44.7053 495 45.5955 494.631 46.2519 493.975C46.9082 493.319 47.277 492.428 47.277 491.5V483.5ZM47.277 499.5C47.277 498.572 46.9082 497.681 46.2519 497.025C45.5955 496.369 44.7053 496 43.777 496H35.777C34.8487 496 33.9585 496.369 33.3021 497.025C32.6458 497.681 32.277 498.572 32.277 499.5V507.5C32.277 508.428 32.6458 509.319 33.3021 509.975C33.9585 510.631 34.8487 511 35.777 511H43.777C44.7053 511 45.5955 510.631 46.2519 509.975C46.9082 509.319 47.277 508.428 47.277 507.5V499.5ZM47.277 515.5C47.277 514.572 46.9082 513.682 46.2519 513.025C45.5955 512.369 44.7053 512 43.777 512H35.777C34.8487 512 33.9585 512.369 33.3021 513.025C32.6458 513.682 32.277 514.572 32.277 515.5V523.5C32.277 524.428 32.6458 525.318 33.3021 525.975C33.9585 526.631 34.8487 527 35.777 527H43.777C44.7053 527 45.5955 526.631 46.2519 525.975C46.9082 525.318 47.277 524.428 47.277 523.5V515.5ZM47.277 531.5C47.277 530.572 46.9082 529.682 46.2519 529.025C45.5955 528.369 44.7053 528 43.777 528H35.777C34.8487 528 33.9585 528.369 33.3021 529.025C32.6458 529.682 32.277 530.572 32.277 531.5V539.5C32.277 540.428 32.6458 541.318 33.3021 541.975C33.9585 542.631 34.8487 543 35.777 543H43.777C44.7053 543 45.5955 542.631 46.2519 541.975C46.9082 541.318 47.277 540.428 47.277 539.5V531.5ZM63.277 419.5C63.277 418.572 62.9082 417.681 62.2519 417.025C61.5955 416.369 60.7053 416 59.777 416H51.777C50.8487 416 49.9585 416.369 49.3021 417.025C48.6458 417.681 48.277 418.572 48.277 419.5V427.5C48.277 428.428 48.6458 429.319 49.3021 429.975C49.9585 430.631 50.8487 431 51.777 431H59.777C60.7053 431 61.5955 430.631 62.2519 429.975C62.9082 429.319 63.277 428.428 63.277 427.5V419.5ZM63.277 435.5C63.277 434.572 62.9082 433.681 62.2519 433.025C61.5955 432.369 60.7053 432 59.777 432H51.777C50.8487 432 49.9585 432.369 49.3021 433.025C48.6458 433.681 48.277 434.572 48.277 435.5V443.5C48.277 444.428 48.6458 445.319 49.3021 445.975C49.9585 446.631 50.8487 447 51.777 447H59.777C60.7053 447 61.5955 446.631 62.2519 445.975C62.9082 445.319 63.277 444.428 63.277 443.5V435.5ZM63.277 483.5C63.277 482.572 62.9082 481.681 62.2519 481.025C61.5955 480.369 60.7053 480 59.777 480H51.777C50.8487 480 49.9585 480.369 49.3021 481.025C48.6458 481.681 48.277 482.572 48.277 483.5V491.5C48.277 492.428 48.6458 493.319 49.3021 493.975C49.9585 494.631 50.8487 495 51.777 495H59.777C60.7053 495 61.5955 494.631 62.2519 493.975C62.9082 493.319 63.277 492.428 63.277 491.5V483.5ZM63.277 499.5C63.277 498.572 62.9082 497.681 62.2519 497.025C61.5955 496.369 60.7053 496 59.777 496H51.777C50.8487 496 49.9585 496.369 49.3021 497.025C48.6458 497.681 48.277 498.572 48.277 499.5V507.5C48.277 508.428 48.6458 509.319 49.3021 509.975C49.9585 510.631 50.8487 511 51.777 511H59.777C60.7053 511 61.5955 510.631 62.2519 509.975C62.9082 509.319 63.277 508.428 63.277 507.5V499.5ZM63.277 515.5C63.277 514.572 62.9082 513.682 62.2519 513.025C61.5955 512.369 60.7053 512 59.777 512H51.777C50.8487 512 49.9585 512.369 49.3021 513.025C48.6458 513.682 48.277 514.572 48.277 515.5V523.5C48.277 524.428 48.6458 525.318 49.3021 525.975C49.9585 526.631 50.8487 527 51.777 527H59.777C60.7053 527 61.5955 526.631 62.2519 525.975C62.9082 525.318 63.277 524.428 63.277 523.5V515.5ZM63.277 531.5C63.277 530.572 62.9082 529.682 62.2519 529.025C61.5955 528.369 60.7053 528 59.777 528H51.777C50.8487 528 49.9585 528.369 49.3021 529.025C48.6458 529.682 48.277 530.572 48.277 531.5V539.5C48.277 540.428 48.6458 541.318 49.3021 541.975C49.9585 542.631 50.8487 543 51.777 543H59.777C60.7053 543 61.5955 542.631 62.2519 541.975C62.9082 541.318 63.277 540.428 63.277 539.5V531.5ZM79.277 355.5C79.277 354.572 78.9083 353.681 78.2519 353.025C77.5955 352.369 76.7053 352 75.777 352H67.777C66.8487 352 65.9585 352.369 65.3021 353.025C64.6457 353.681 64.277 354.572 64.277 355.5V363.5C64.277 364.428 64.6457 365.319 65.3021 365.975C65.9585 366.631 66.8487 367 67.777 367H75.777C76.7053 367 77.5955 366.631 78.2519 365.975C78.9083 365.319 79.277 364.428 79.277 363.5V355.5ZM79.277 371.5C79.277 370.572 78.9083 369.681 78.2519 369.025C77.5955 368.369 76.7053 368 75.777 368H67.777C66.8487 368 65.9585 368.369 65.3021 369.025C64.6457 369.681 64.277 370.572 64.277 371.5V379.5C64.277 380.428 64.6457 381.319 65.3021 381.975C65.9585 382.631 66.8487 383 67.777 383H75.777C76.7053 383 77.5955 382.631 78.2519 381.975C78.9083 381.319 79.277 380.428 79.277 379.5V371.5ZM79.277 387.5C79.277 386.572 78.9083 385.681 78.2519 385.025C77.5955 384.369 76.7053 384 75.777 384H67.777C66.8487 384 65.9585 384.369 65.3021 385.025C64.6457 385.681 64.277 386.572 64.277 387.5V395.5C64.277 396.428 64.6457 397.319 65.3021 397.975C65.9585 398.631 66.8487 399 67.777 399H75.777C76.7053 399 77.5955 398.631 78.2519 397.975C78.9083 397.319 79.277 396.428 79.277 395.5V387.5ZM79.277 403.5C79.277 402.572 78.9083 401.681 78.2519 401.025C77.5955 400.369 76.7053 400 75.777 400H67.777C66.8487 400 65.9585 400.369 65.3021 401.025C64.6457 401.681 64.277 402.572 64.277 403.5V411.5C64.277 412.428 64.6457 413.319 65.3021 413.975C65.9585 414.631 66.8487 415 67.777 415H75.777C76.7053 415 77.5955 414.631 78.2519 413.975C78.9083 413.319 79.277 412.428 79.277 411.5V403.5ZM79.277 451.5C79.277 450.572 78.9083 449.681 78.2519 449.025C77.5955 448.369 76.7053 448 75.777 448H67.777C66.8487 448 65.9585 448.369 65.3021 449.025C64.6457 449.681 64.277 450.572 64.277 451.5V459.5C64.277 460.428 64.6457 461.319 65.3021 461.975C65.9585 462.631 66.8487 463 67.777 463H75.777C76.7053 463 77.5955 462.631 78.2519 461.975C78.9083 461.319 79.277 460.428 79.277 459.5V451.5ZM79.277 467.5C79.277 466.572 78.9083 465.681 78.2519 465.025C77.5955 464.369 76.7053 464 75.777 464H67.777C66.8487 464 65.9585 464.369 65.3021 465.025C64.6457 465.681 64.277 466.572 64.277 467.5V475.5C64.277 476.428 64.6457 477.319 65.3021 477.975C65.9585 478.631 66.8487 479 67.777 479H75.777C76.7053 479 77.5955 478.631 78.2519 477.975C78.9083 477.319 79.277 476.428 79.277 475.5V467.5ZM95.277 355.5C95.277 354.572 94.9083 353.681 94.2519 353.025C93.5955 352.369 92.7053 352 91.777 352H83.777C82.8487 352 81.9585 352.369 81.3021 353.025C80.6457 353.681 80.277 354.572 80.277 355.5V363.5C80.277 364.428 80.6457 365.319 81.3021 365.975C81.9585 366.631 82.8487 367 83.777 367H91.777C92.7053 367 93.5955 366.631 94.2519 365.975C94.9083 365.319 95.277 364.428 95.277 363.5V355.5ZM95.277 371.5C95.277 370.572 94.9083 369.681 94.2519 369.025C93.5955 368.369 92.7053 368 91.777 368H83.777C82.8487 368 81.9585 368.369 81.3021 369.025C80.6457 369.681 80.277 370.572 80.277 371.5V379.5C80.277 380.428 80.6457 381.319 81.3021 381.975C81.9585 382.631 82.8487 383 83.777 383H91.777C92.7053 383 93.5955 382.631 94.2519 381.975C94.9083 381.319 95.277 380.428 95.277 379.5V371.5ZM95.277 387.5C95.277 386.572 94.9083 385.681 94.2519 385.025C93.5955 384.369 92.7053 384 91.777 384H83.777C82.8487 384 81.9585 384.369 81.3021 385.025C80.6457 385.681 80.277 386.572 80.277 387.5V395.5C80.277 396.428 80.6457 397.319 81.3021 397.975C81.9585 398.631 82.8487 399 83.777 399H91.777C92.7053 399 93.5955 398.631 94.2519 397.975C94.9083 397.319 95.277 396.428 95.277 395.5V387.5ZM95.277 403.5C95.277 402.572 94.9083 401.681 94.2519 401.025C93.5955 400.369 92.7053 400 91.777 400H83.777C82.8487 400 81.9585 400.369 81.3021 401.025C80.6457 401.681 80.277 402.572 80.277 403.5V411.5C80.277 412.428 80.6457 413.319 81.3021 413.975C81.9585 414.631 82.8487 415 83.777 415H91.777C92.7053 415 93.5955 414.631 94.2519 413.975C94.9083 413.319 95.277 412.428 95.277 411.5V403.5ZM95.277 451.5C95.277 450.572 94.9083 449.681 94.2519 449.025C93.5955 448.369 92.7053 448 91.777 448H83.777C82.8487 448 81.9585 448.369 81.3021 449.025C80.6457 449.681 80.277 450.572 80.277 451.5V459.5C80.277 460.428 80.6457 461.319 81.3021 461.975C81.9585 462.631 82.8487 463 83.777 463H91.777C92.7053 463 93.5955 462.631 94.2519 461.975C94.9083 461.319 95.277 460.428 95.277 459.5V451.5ZM95.277 467.5C95.277 466.572 94.9083 465.681 94.2519 465.025C93.5955 464.369 92.7053 464 91.777 464H83.777C82.8487 464 81.9585 464.369 81.3021 465.025C80.6457 465.681 80.277 466.572 80.277 467.5V475.5C80.277 476.428 80.6457 477.319 81.3021 477.975C81.9585 478.631 82.8487 479 83.777 479H91.777C92.7053 479 93.5955 478.631 94.2519 477.975C94.9083 477.319 95.277 476.428 95.277 475.5V467.5ZM111.277 355.5C111.277 354.572 110.908 353.681 110.252 353.025C109.595 352.369 108.705 352 107.777 352H99.777C98.8487 352 97.9585 352.369 97.3021 353.025C96.6457 353.681 96.277 354.572 96.277 355.5V363.5C96.277 364.428 96.6457 365.319 97.3021 365.975C97.9585 366.631 98.8487 367 99.777 367H107.777C108.705 367 109.595 366.631 110.252 365.975C110.908 365.319 111.277 364.428 111.277 363.5V355.5ZM111.277 371.5C111.277 370.572 110.908 369.681 110.252 369.025C109.595 368.369 108.705 368 107.777 368H99.777C98.8487 368 97.9585 368.369 97.3021 369.025C96.6457 369.681 96.277 370.572 96.277 371.5V379.5C96.277 380.428 96.6457 381.319 97.3021 381.975C97.9585 382.631 98.8487 383 99.777 383H107.777C108.705 383 109.595 382.631 110.252 381.975C110.908 381.319 111.277 380.428 111.277 379.5V371.5ZM111.277 387.5C111.277 386.572 110.908 385.681 110.252 385.025C109.595 384.369 108.705 384 107.777 384H99.777C98.8487 384 97.9585 384.369 97.3021 385.025C96.6457 385.681 96.277 386.572 96.277 387.5V395.5C96.277 396.428 96.6457 397.319 97.3021 397.975C97.9585 398.631 98.8487 399 99.777 399H107.777C108.705 399 109.595 398.631 110.252 397.975C110.908 397.319 111.277 396.428 111.277 395.5V387.5ZM111.277 403.5C111.277 402.572 110.908 401.681 110.252 401.025C109.595 400.369 108.705 400 107.777 400H99.777C98.8487 400 97.9585 400.369 97.3021 401.025C96.6457 401.681 96.277 402.572 96.277 403.5V411.5C96.277 412.428 96.6457 413.319 97.3021 413.975C97.9585 414.631 98.8487 415 99.777 415H107.777C108.705 415 109.595 414.631 110.252 413.975C110.908 413.319 111.277 412.428 111.277 411.5V403.5ZM111.277 419.5C111.277 418.572 110.908 417.681 110.252 417.025C109.595 416.369 108.705 416 107.777 416H99.777C98.8487 416 97.9585 416.369 97.3021 417.025C96.6457 417.681 96.277 418.572 96.277 419.5V427.5C96.277 428.428 96.6457 429.319 97.3021 429.975C97.9585 430.631 98.8487 431 99.777 431H107.777C108.705 431 109.595 430.631 110.252 429.975C110.908 429.319 111.277 428.428 111.277 427.5V419.5ZM111.277 435.5C111.277 434.572 110.908 433.681 110.252 433.025C109.595 432.369 108.705 432 107.777 432H99.777C98.8487 432 97.9585 432.369 97.3021 433.025C96.6457 433.681 96.277 434.572 96.277 435.5V443.5C96.277 444.428 96.6457 445.319 97.3021 445.975C97.9585 446.631 98.8487 447 99.777 447H107.777C108.705 447 109.595 446.631 110.252 445.975C110.908 445.319 111.277 444.428 111.277 443.5V435.5ZM127.277 355.5C127.277 354.572 126.908 353.681 126.252 353.025C125.595 352.369 124.705 352 123.777 352H115.777C114.849 352 113.959 352.369 113.302 353.025C112.646 353.681 112.277 354.572 112.277 355.5V363.5C112.277 364.428 112.646 365.319 113.302 365.975C113.959 366.631 114.849 367 115.777 367H123.777C124.705 367 125.595 366.631 126.252 365.975C126.908 365.319 127.277 364.428 127.277 363.5V355.5ZM127.277 371.5C127.277 370.572 126.908 369.681 126.252 369.025C125.595 368.369 124.705 368 123.777 368H115.777C114.849 368 113.959 368.369 113.302 369.025C112.646 369.681 112.277 370.572 112.277 371.5V379.5C112.277 380.428 112.646 381.319 113.302 381.975C113.959 382.631 114.849 383 115.777 383H123.777C124.705 383 125.595 382.631 126.252 381.975C126.908 381.319 127.277 380.428 127.277 379.5V371.5ZM127.277 387.5C127.277 386.572 126.908 385.681 126.252 385.025C125.595 384.369 124.705 384 123.777 384H115.777C114.849 384 113.959 384.369 113.302 385.025C112.646 385.681 112.277 386.572 112.277 387.5V395.5C112.277 396.428 112.646 397.319 113.302 397.975C113.959 398.631 114.849 399 115.777 399H123.777C124.705 399 125.595 398.631 126.252 397.975C126.908 397.319 127.277 396.428 127.277 395.5V387.5ZM127.277 403.5C127.277 402.572 126.908 401.681 126.252 401.025C125.595 400.369 124.705 400 123.777 400H115.777C114.849 400 113.959 400.369 113.302 401.025C112.646 401.681 112.277 402.572 112.277 403.5V411.5C112.277 412.428 112.646 413.319 113.302 413.975C113.959 414.631 114.849 415 115.777 415H123.777C124.705 415 125.595 414.631 126.252 413.975C126.908 413.319 127.277 412.428 127.277 411.5V403.5ZM127.277 419.5C127.277 418.572 126.908 417.681 126.252 417.025C125.595 416.369 124.705 416 123.777 416H115.777C114.849 416 113.959 416.369 113.302 417.025C112.646 417.681 112.277 418.572 112.277 419.5V427.5C112.277 428.428 112.646 429.319 113.302 429.975C113.959 430.631 114.849 431 115.777 431H123.777C124.705 431 125.595 430.631 126.252 429.975C126.908 429.319 127.277 428.428 127.277 427.5V419.5ZM127.277 435.5C127.277 434.572 126.908 433.681 126.252 433.025C125.595 432.369 124.705 432 123.777 432H115.777C114.849 432 113.959 432.369 113.302 433.025C112.646 433.681 112.277 434.572 112.277 435.5V443.5C112.277 444.428 112.646 445.319 113.302 445.975C113.959 446.631 114.849 447 115.777 447H123.777C124.705 447 125.595 446.631 126.252 445.975C126.908 445.319 127.277 444.428 127.277 443.5V435.5ZM143.277 355.5C143.277 354.572 142.908 353.681 142.252 353.025C141.596 352.369 140.705 352 139.777 352H131.777C130.849 352 129.959 352.369 129.302 353.025C128.646 353.681 128.277 354.572 128.277 355.5V363.5C128.277 364.428 128.646 365.319 129.302 365.975C129.959 366.631 130.849 367 131.777 367H139.777C140.705 367 141.596 366.631 142.252 365.975C142.908 365.319 143.277 364.428 143.277 363.5V355.5ZM143.277 371.5C143.277 370.572 142.908 369.681 142.252 369.025C141.596 368.369 140.705 368 139.777 368H131.777C130.849 368 129.959 368.369 129.302 369.025C128.646 369.681 128.277 370.572 128.277 371.5V379.5C128.277 380.428 128.646 381.319 129.302 381.975C129.959 382.631 130.849 383 131.777 383H139.777C140.705 383 141.596 382.631 142.252 381.975C142.908 381.319 143.277 380.428 143.277 379.5V371.5ZM143.277 323.5C143.277 322.572 142.908 321.681 142.252 321.025C141.596 320.369 140.705 320 139.777 320H131.777C130.849 320 129.959 320.369 129.302 321.025C128.646 321.681 128.277 322.572 128.277 323.5V331.5C128.277 332.428 128.646 333.319 129.302 333.975C129.959 334.631 130.849 335 131.777 335H139.777C140.705 335 141.596 334.631 142.252 333.975C142.908 333.319 143.277 332.428 143.277 331.5V323.5ZM143.277 339.5C143.277 338.572 142.908 337.681 142.252 337.025C141.596 336.369 140.705 336 139.777 336H131.777C130.849 336 129.959 336.369 129.302 337.025C128.646 337.681 128.277 338.572 128.277 339.5V347.5C128.277 348.428 128.646 349.319 129.302 349.975C129.959 350.631 130.849 351 131.777 351H139.777C140.705 351 141.596 350.631 142.252 349.975C142.908 349.319 143.277 348.428 143.277 347.5V339.5ZM143.277 387.5C143.277 386.572 142.908 385.681 142.252 385.025C141.596 384.369 140.705 384 139.777 384H131.777C130.849 384 129.959 384.369 129.302 385.025C128.646 385.681 128.277 386.572 128.277 387.5V395.5C128.277 396.428 128.646 397.319 129.302 397.975C129.959 398.631 130.849 399 131.777 399H139.777C140.705 399 141.596 398.631 142.252 397.975C142.908 397.319 143.277 396.428 143.277 395.5V387.5ZM143.277 403.5C143.277 402.572 142.908 401.681 142.252 401.025C141.596 400.369 140.705 400 139.777 400H131.777C130.849 400 129.959 400.369 129.302 401.025C128.646 401.681 128.277 402.572 128.277 403.5V411.5C128.277 412.428 128.646 413.319 129.302 413.975C129.959 414.631 130.849 415 131.777 415H139.777C140.705 415 141.596 414.631 142.252 413.975C142.908 413.319 143.277 412.428 143.277 411.5V403.5ZM159.277 355.5C159.277 354.572 158.908 353.681 158.252 353.025C157.596 352.369 156.705 352 155.777 352H147.777C146.849 352 145.959 352.369 145.302 353.025C144.646 353.681 144.277 354.572 144.277 355.5V363.5C144.277 364.428 144.646 365.319 145.302 365.975C145.959 366.631 146.849 367 147.777 367H155.777C156.705 367 157.596 366.631 158.252 365.975C158.908 365.319 159.277 364.428 159.277 363.5V355.5ZM159.277 371.5C159.277 370.572 158.908 369.681 158.252 369.025C157.596 368.369 156.705 368 155.777 368H147.777C146.849 368 145.959 368.369 145.302 369.025C144.646 369.681 144.277 370.572 144.277 371.5V379.5C144.277 380.428 144.646 381.319 145.302 381.975C145.959 382.631 146.849 383 147.777 383H155.777C156.705 383 157.596 382.631 158.252 381.975C158.908 381.319 159.277 380.428 159.277 379.5V371.5ZM143.277 451.5C143.277 450.572 142.908 449.681 142.252 449.025C141.596 448.369 140.705 448 139.777 448H131.777C130.849 448 129.959 448.369 129.302 449.025C128.646 449.681 128.277 450.572 128.277 451.5V459.5C128.277 460.428 128.646 461.319 129.302 461.975C129.959 462.631 130.849 463 131.777 463H139.777C140.705 463 141.596 462.631 142.252 461.975C142.908 461.319 143.277 460.428 143.277 459.5V451.5ZM143.277 467.5C143.277 466.572 142.908 465.681 142.252 465.025C141.596 464.369 140.705 464 139.777 464H131.777C130.849 464 129.959 464.369 129.302 465.025C128.646 465.681 128.277 466.572 128.277 467.5V475.5C128.277 476.428 128.646 477.319 129.302 477.975C129.959 478.631 130.849 479 131.777 479H139.777C140.705 479 141.596 478.631 142.252 477.975C142.908 477.319 143.277 476.428 143.277 475.5V467.5ZM159.277 323.5C159.277 322.572 158.908 321.681 158.252 321.025C157.596 320.369 156.705 320 155.777 320H147.777C146.849 320 145.959 320.369 145.302 321.025C144.646 321.681 144.277 322.572 144.277 323.5V331.5C144.277 332.428 144.646 333.319 145.302 333.975C145.959 334.631 146.849 335 147.777 335H155.777C156.705 335 157.596 334.631 158.252 333.975C158.908 333.319 159.277 332.428 159.277 331.5V323.5ZM159.277 339.5C159.277 338.572 158.908 337.681 158.252 337.025C157.596 336.369 156.705 336 155.777 336H147.777C146.849 336 145.959 336.369 145.302 337.025C144.646 337.681 144.277 338.572 144.277 339.5V347.5C144.277 348.428 144.646 349.319 145.302 349.975C145.959 350.631 146.849 351 147.777 351H155.777C156.705 351 157.596 350.631 158.252 349.975C158.908 349.319 159.277 348.428 159.277 347.5V339.5ZM159.277 387.5C159.277 386.572 158.908 385.681 158.252 385.025C157.596 384.369 156.705 384 155.777 384H147.777C146.849 384 145.959 384.369 145.302 385.025C144.646 385.681 144.277 386.572 144.277 387.5V395.5C144.277 396.428 144.646 397.319 145.302 397.975C145.959 398.631 146.849 399 147.777 399H155.777C156.705 399 157.596 398.631 158.252 397.975C158.908 397.319 159.277 396.428 159.277 395.5V387.5ZM159.277 403.5C159.277 402.572 158.908 401.681 158.252 401.025C157.596 400.369 156.705 400 155.777 400H147.777C146.849 400 145.959 400.369 145.302 401.025C144.646 401.681 144.277 402.572 144.277 403.5V411.5C144.277 412.428 144.646 413.319 145.302 413.975C145.959 414.631 146.849 415 147.777 415H155.777C156.705 415 157.596 414.631 158.252 413.975C158.908 413.319 159.277 412.428 159.277 411.5V403.5ZM159.277 451.5C159.277 450.572 158.908 449.681 158.252 449.025C157.596 448.369 156.705 448 155.777 448H147.777C146.849 448 145.959 448.369 145.302 449.025C144.646 449.681 144.277 450.572 144.277 451.5V459.5C144.277 460.428 144.646 461.319 145.302 461.975C145.959 462.631 146.849 463 147.777 463H155.777C156.705 463 157.596 462.631 158.252 461.975C158.908 461.319 159.277 460.428 159.277 459.5V451.5ZM159.277 467.5C159.277 466.572 158.908 465.681 158.252 465.025C157.596 464.369 156.705 464 155.777 464H147.777C146.849 464 145.959 464.369 145.302 465.025C144.646 465.681 144.277 466.572 144.277 467.5V475.5C144.277 476.428 144.646 477.319 145.302 477.975C145.959 478.631 146.849 479 147.777 479H155.777C156.705 479 157.596 478.631 158.252 477.975C158.908 477.319 159.277 476.428 159.277 475.5V467.5ZM175.277 387.5C175.277 386.572 174.908 385.681 174.252 385.025C173.596 384.369 172.705 384 171.777 384H163.777C162.849 384 161.959 384.369 161.302 385.025C160.646 385.681 160.277 386.572 160.277 387.5V395.5C160.277 396.428 160.646 397.319 161.302 397.975C161.959 398.631 162.849 399 163.777 399H171.777C172.705 399 173.596 398.631 174.252 397.975C174.908 397.319 175.277 396.428 175.277 395.5V387.5ZM175.277 403.5C175.277 402.572 174.908 401.681 174.252 401.025C173.596 400.369 172.705 400 171.777 400H163.777C162.849 400 161.959 400.369 161.302 401.025C160.646 401.681 160.277 402.572 160.277 403.5V411.5C160.277 412.428 160.646 413.319 161.302 413.975C161.959 414.631 162.849 415 163.777 415H171.777C172.705 415 173.596 414.631 174.252 413.975C174.908 413.319 175.277 412.428 175.277 411.5V403.5ZM191.277 387.5C191.277 386.572 190.908 385.681 190.252 385.025C189.596 384.369 188.705 384 187.777 384H179.777C178.849 384 177.959 384.369 177.302 385.025C176.646 385.681 176.277 386.572 176.277 387.5V395.5C176.277 396.428 176.646 397.319 177.302 397.975C177.959 398.631 178.849 399 179.777 399H187.777C188.705 399 189.596 398.631 190.252 397.975C190.908 397.319 191.277 396.428 191.277 395.5V387.5ZM191.277 403.5C191.277 402.572 190.908 401.681 190.252 401.025C189.596 400.369 188.705 400 187.777 400H179.777C178.849 400 177.959 400.369 177.302 401.025C176.646 401.681 176.277 402.572 176.277 403.5V411.5C176.277 412.428 176.646 413.319 177.302 413.975C177.959 414.631 178.849 415 179.777 415H187.777C188.705 415 189.596 414.631 190.252 413.975C190.908 413.319 191.277 412.428 191.277 411.5V403.5ZM15.782 369.451C15.32 368.649 14.643 367.952 13.828 367.504C14.6515 367.052 15.3293 366.374 15.782 365.551C16.225 366.343 16.942 367.047 17.728 367.504C16.922 367.975 16.225 368.631 15.782 369.451ZM15.782 465.451C15.32 464.649 14.643 463.952 13.828 463.504C14.6515 463.052 15.3293 462.374 15.782 461.551C16.225 462.343 16.942 463.047 17.728 463.504C16.922 463.975 16.225 464.631 15.782 465.451ZM15.782 481.451C15.32 480.649 14.643 479.952 13.828 479.504C14.6515 479.052 15.3293 478.374 15.782 477.551C16.225 478.343 16.942 479.047 17.728 479.504C16.922 479.975 16.225 480.631 15.782 481.451ZM15.782 497.451C15.32 496.649 14.643 495.952 13.828 495.504C14.6515 495.052 15.3293 494.374 15.782 493.551C16.225 494.343 16.942 495.047 17.728 495.504C16.922 495.975 16.225 496.631 15.782 497.451ZM31.782 449.451C31.32 448.649 30.643 447.952 29.828 447.504C30.6515 447.052 31.3293 446.374 31.782 445.551C32.225 446.343 32.942 447.047 33.728 447.504C32.922 447.975 32.225 448.631 31.782 449.451ZM31.782 481.451C31.32 480.649 30.643 479.952 29.828 479.504C30.6515 479.052 31.3293 478.374 31.782 477.551C32.225 478.343 32.942 479.047 33.728 479.504C32.922 479.975 32.225 480.631 31.782 481.451ZM31.782 497.451C31.32 496.649 30.643 495.952 29.828 495.504C30.6515 495.052 31.3293 494.374 31.782 493.551C32.225 494.343 32.942 495.047 33.728 495.504C32.922 495.975 32.225 496.631 31.782 497.451ZM31.782 513.451C31.32 512.649 30.643 511.952 29.828 511.504C30.6515 511.052 31.3293 510.374 31.782 509.551C32.225 510.343 32.942 511.047 33.728 511.504C32.922 511.975 32.225 512.631 31.782 513.451ZM47.782 433.451C47.32 432.649 46.643 431.952 45.828 431.504C46.6515 431.052 47.3293 430.374 47.782 429.551C48.225 430.343 48.942 431.047 49.728 431.504C48.922 431.975 48.225 432.631 47.782 433.451ZM47.782 497.451C47.32 496.649 46.643 495.952 45.828 495.504C46.6515 495.052 47.3293 494.374 47.782 493.551C48.225 494.343 48.942 495.047 49.728 495.504C48.922 495.975 48.225 496.631 47.782 497.451ZM47.782 513.451C47.32 512.649 46.643 511.952 45.828 511.504C46.6515 511.052 47.3293 510.374 47.782 509.551C48.225 510.343 48.942 511.047 49.728 511.504C48.922 511.975 48.225 512.631 47.782 513.451ZM47.782 529.451C47.32 528.649 46.643 527.952 45.828 527.504C46.6515 527.052 47.3293 526.374 47.782 525.551C48.225 526.343 48.942 527.047 49.728 527.504C48.922 527.974 48.225 528.631 47.782 529.451ZM63.782 417.451C63.32 416.649 62.643 415.952 61.828 415.504C62.6515 415.052 63.3293 414.374 63.782 413.551C64.225 414.343 64.942 415.047 65.728 415.504C64.923 415.975 64.225 416.631 63.782 417.451ZM63.782 449.451C63.32 448.649 62.643 447.952 61.828 447.504C62.6515 447.052 63.3293 446.374 63.782 445.551C64.225 446.343 64.942 447.047 65.728 447.504C64.923 447.975 64.225 448.631 63.782 449.451ZM63.782 481.451C63.32 480.649 62.643 479.952 61.828 479.504C62.6515 479.052 63.3293 478.374 63.782 477.551C64.225 478.343 64.942 479.047 65.728 479.504C64.923 479.975 64.225 480.631 63.782 481.451ZM79.782 369.451C79.32 368.649 78.643 367.952 77.828 367.504C78.6515 367.052 79.3293 366.374 79.782 365.551C80.225 366.343 80.942 367.047 81.728 367.504C80.923 367.975 80.225 368.631 79.782 369.451ZM79.782 385.451C79.32 384.649 78.643 383.952 77.828 383.504C78.6515 383.052 79.3293 382.374 79.782 381.551C80.225 382.343 80.942 383.047 81.728 383.504C80.923 383.975 80.225 384.631 79.782 385.451ZM79.782 401.451C79.32 400.649 78.643 399.952 77.828 399.504C78.6515 399.052 79.3293 398.374 79.782 397.551C80.225 398.343 80.942 399.047 81.728 399.504C80.923 399.975 80.225 400.631 79.782 401.451ZM79.782 465.451C79.32 464.649 78.643 463.952 77.828 463.504C78.6515 463.052 79.3293 462.374 79.782 461.551C80.225 462.343 80.942 463.047 81.728 463.504C80.923 463.975 80.225 464.631 79.782 465.451ZM95.782 369.451C95.32 368.649 94.643 367.952 93.828 367.504C94.6515 367.052 95.3293 366.374 95.782 365.551C96.225 366.343 96.942 367.047 97.728 367.504C96.923 367.975 96.225 368.631 95.782 369.451ZM95.782 385.451C95.32 384.649 94.643 383.952 93.828 383.504C94.6515 383.052 95.3293 382.374 95.782 381.551C96.225 382.343 96.942 383.047 97.728 383.504C96.923 383.975 96.225 384.631 95.782 385.451ZM95.782 401.451C95.32 400.649 94.643 399.952 93.828 399.504C94.6515 399.052 95.3293 398.374 95.782 397.551C96.225 398.343 96.942 399.047 97.728 399.504C96.923 399.975 96.225 400.631 95.782 401.451ZM95.782 417.451C95.32 416.649 94.643 415.952 93.828 415.504C94.6515 415.052 95.3293 414.374 95.782 413.551C96.225 414.343 96.942 415.047 97.728 415.504C96.923 415.975 96.225 416.631 95.782 417.451ZM95.782 449.451C95.32 448.649 94.643 447.952 93.828 447.504C94.6515 447.052 95.3293 446.374 95.782 445.551C96.225 446.343 96.942 447.047 97.728 447.504C96.923 447.975 96.225 448.631 95.782 449.451ZM111.782 369.451C111.32 368.649 110.643 367.952 109.828 367.504C110.652 367.052 111.329 366.374 111.782 365.551C112.225 366.343 112.943 367.047 113.728 367.504C112.923 367.974 112.225 368.631 111.782 369.451ZM111.782 385.451C111.32 384.649 110.643 383.952 109.828 383.504C110.652 383.052 111.329 382.374 111.782 381.551C112.225 382.343 112.943 383.047 113.728 383.504C112.923 383.974 112.225 384.631 111.782 385.451ZM111.782 401.451C111.32 400.649 110.643 399.952 109.828 399.504C110.652 399.052 111.329 398.374 111.782 397.551C112.225 398.343 112.943 399.047 113.728 399.504C112.923 399.974 112.225 400.631 111.782 401.451ZM111.782 417.451C111.32 416.649 110.643 415.952 109.828 415.504C110.652 415.052 111.329 414.374 111.782 413.551C112.225 414.343 112.943 415.047 113.728 415.504C112.923 415.974 112.225 416.631 111.782 417.451ZM111.782 433.451C111.32 432.649 110.643 431.952 109.828 431.504C110.652 431.052 111.329 430.374 111.782 429.551C112.225 430.343 112.943 431.047 113.728 431.504C112.923 431.974 112.225 432.631 111.782 433.451ZM127.782 369.451C127.32 368.649 126.643 367.952 125.828 367.504C126.652 367.052 127.329 366.374 127.782 365.551C128.225 366.343 128.943 367.047 129.728 367.504C128.923 367.974 128.225 368.631 127.782 369.451ZM143.782 369.451C143.32 368.649 142.643 367.952 141.828 367.504C142.652 367.052 143.329 366.374 143.782 365.551C144.225 366.343 144.943 367.047 145.728 367.504C144.923 367.974 144.225 368.631 143.782 369.451ZM127.782 385.451C127.32 384.649 126.643 383.952 125.828 383.504C126.652 383.052 127.329 382.374 127.782 381.551C128.225 382.343 128.943 383.047 129.728 383.504C128.923 383.974 128.225 384.631 127.782 385.451ZM127.782 401.451C127.32 400.649 126.643 399.952 125.828 399.504C126.652 399.052 127.329 398.374 127.782 397.551C128.225 398.343 128.943 399.047 129.728 399.504C128.923 399.974 128.225 400.631 127.782 401.451ZM127.782 417.451C127.32 416.649 126.643 415.952 125.828 415.504C126.652 415.052 127.329 414.374 127.782 413.551C128.225 414.343 128.943 415.047 129.728 415.504C128.923 415.974 128.225 416.631 127.782 417.451ZM127.782 449.451C127.32 448.649 126.643 447.952 125.828 447.504C126.652 447.052 127.329 446.374 127.782 445.551C128.225 446.343 128.943 447.047 129.728 447.504C128.923 447.974 128.225 448.631 127.782 449.451ZM143.782 337.451C143.32 336.649 142.643 335.952 141.828 335.504C142.652 335.052 143.329 334.374 143.782 333.551C144.225 334.343 144.943 335.047 145.728 335.504C144.923 335.974 144.225 336.631 143.782 337.451ZM159.778 321.451C159.316 320.649 158.639 319.952 157.824 319.504C158.648 319.052 159.325 318.374 159.778 317.551C160.221 318.343 160.939 319.047 161.724 319.504C160.919 319.974 160.221 320.631 159.778 321.451ZM143.782 385.451C143.32 384.649 142.643 383.952 141.828 383.504C142.652 383.052 143.329 382.374 143.782 381.551C144.225 382.343 144.943 383.047 145.728 383.504C144.923 383.974 144.225 384.631 143.782 385.451ZM143.782 401.451C143.32 400.649 142.643 399.952 141.828 399.504C142.652 399.052 143.329 398.374 143.782 397.551C144.225 398.343 144.943 399.047 145.728 399.504C144.923 399.974 144.225 400.631 143.782 401.451ZM143.782 465.451C143.32 464.649 142.643 463.952 141.828 463.504C142.652 463.052 143.329 462.374 143.782 461.551C144.225 462.343 144.943 463.047 145.728 463.504C144.923 463.975 144.225 464.631 143.782 465.451ZM159.782 385.451C159.32 384.649 158.643 383.952 157.828 383.504C158.652 383.052 159.329 382.374 159.782 381.551C160.225 382.343 160.943 383.047 161.728 383.504C160.923 383.974 160.225 384.631 159.782 385.451ZM159.782 401.451C159.32 400.649 158.643 399.952 157.828 399.504C158.652 399.052 159.329 398.374 159.782 397.551C160.225 398.343 160.943 399.047 161.728 399.504C160.923 399.974 160.225 400.631 159.782 401.451ZM175.782 401.451C175.32 400.649 174.643 399.952 173.828 399.504C174.652 399.052 175.329 398.374 175.782 397.551C176.225 398.343 176.943 399.047 177.728 399.504C176.923 399.974 176.225 400.631 175.782 401.451ZM219.777 143C220.705 143 221.596 142.631 222.252 141.975C222.908 141.318 223.277 140.428 223.277 139.5V131.5C223.277 130.572 222.908 129.682 222.252 129.025C221.596 128.369 220.705 128 219.777 128H211.777C210.849 128 209.959 128.369 209.302 129.025C208.646 129.682 208.277 130.572 208.277 131.5V139.5C208.277 140.428 208.646 141.318 209.302 141.975C209.959 142.631 210.849 143 211.777 143H219.777ZM203.777 143C204.705 143 205.596 142.631 206.252 141.975C206.908 141.318 207.277 140.428 207.277 139.5V131.5C207.277 130.572 206.908 129.682 206.252 129.025C205.596 128.369 204.705 128 203.777 128H195.777C194.849 128 193.959 128.369 193.302 129.025C192.646 129.682 192.277 130.572 192.277 131.5V139.5C192.277 140.428 192.646 141.318 193.302 141.975C193.959 142.631 194.849 143 195.777 143H203.777ZM187.777 143C188.705 143 189.596 142.631 190.252 141.975C190.908 141.318 191.277 140.428 191.277 139.5V131.5C191.277 130.572 190.908 129.682 190.252 129.025C189.596 128.369 188.705 128 187.777 128H179.777C178.849 128 177.959 128.369 177.302 129.025C176.646 129.682 176.277 130.572 176.277 131.5V139.5C176.277 140.428 176.646 141.318 177.302 141.975C177.959 142.631 178.849 143 179.777 143H187.777ZM171.777 143C172.705 143 173.596 142.631 174.252 141.975C174.908 141.318 175.277 140.428 175.277 139.5V131.5C175.277 130.572 174.908 129.682 174.252 129.025C173.596 128.369 172.705 128 171.777 128H163.777C162.849 128 161.959 128.369 161.302 129.025C160.646 129.682 160.277 130.572 160.277 131.5V139.5C160.277 140.428 160.646 141.318 161.302 141.975C161.959 142.631 162.849 143 163.777 143H171.777ZM123.777 143C124.705 143 125.595 142.631 126.252 141.975C126.908 141.318 127.277 140.428 127.277 139.5V131.5C127.277 130.572 126.908 129.682 126.252 129.025C125.595 128.369 124.705 128 123.777 128H115.777C114.849 128 113.959 128.369 113.302 129.025C112.646 129.682 112.277 130.572 112.277 131.5V139.5C112.277 140.428 112.646 141.318 113.302 141.975C113.959 142.631 114.849 143 115.777 143H123.777ZM107.777 143C108.705 143 109.595 142.631 110.252 141.975C110.908 141.318 111.277 140.428 111.277 139.5V131.5C111.277 130.572 110.908 129.682 110.252 129.025C109.595 128.369 108.705 128 107.777 128H99.777C98.8487 128 97.9585 128.369 97.3021 129.025C96.6457 129.682 96.277 130.572 96.277 131.5V139.5C96.277 140.428 96.6457 141.318 97.3021 141.975C97.9585 142.631 98.8487 143 99.777 143H107.777ZM91.777 143C92.7053 143 93.5955 142.631 94.2519 141.975C94.9083 141.318 95.277 140.428 95.277 139.5V131.5C95.277 130.572 94.9083 129.682 94.2519 129.025C93.5955 128.369 92.7053 128 91.777 128H83.777C82.8487 128 81.9585 128.369 81.3021 129.025C80.6457 129.682 80.277 130.572 80.277 131.5V139.5C80.277 140.428 80.6457 141.318 81.3021 141.975C81.9585 142.631 82.8487 143 83.777 143H91.777ZM75.777 143C76.7053 143 77.5955 142.631 78.2519 141.975C78.9083 141.318 79.277 140.428 79.277 139.5V131.5C79.277 130.572 78.9083 129.682 78.2519 129.025C77.5955 128.369 76.7053 128 75.777 128H67.777C66.8487 128 65.9585 128.369 65.3021 129.025C64.6457 129.682 64.277 130.572 64.277 131.5V139.5C64.277 140.428 64.6457 141.318 65.3021 141.975C65.9585 142.631 66.8487 143 67.777 143H75.777ZM175.277 35.5C175.277 34.5717 174.908 33.6815 174.252 33.0251C173.596 32.3688 172.705 32 171.777 32H163.777C162.849 32 161.959 32.3688 161.302 33.0251C160.646 33.6815 160.277 34.5717 160.277 35.5V43.5C160.277 44.4283 160.646 45.3185 161.302 45.9749C161.959 46.6312 162.849 47 163.777 47H171.777C172.705 47 173.596 46.6312 174.252 45.9749C174.908 45.3185 175.277 44.4283 175.277 43.5V35.5ZM175.277 51.5C175.277 50.5717 174.908 49.6815 174.252 49.0251C173.596 48.3688 172.705 48 171.777 48H163.777C162.849 48 161.959 48.3688 161.302 49.0251C160.646 49.6815 160.277 50.5717 160.277 51.5V59.5C160.277 60.4283 160.646 61.3185 161.302 61.9749C161.959 62.6312 162.849 63 163.777 63H171.777C172.705 63 173.596 62.6312 174.252 61.9749C174.908 61.3185 175.277 60.4283 175.277 59.5V51.5ZM123.777 159C124.705 159 125.595 158.631 126.252 157.975C126.908 157.318 127.277 156.428 127.277 155.5V147.5C127.277 146.572 126.908 145.682 126.252 145.025C125.595 144.369 124.705 144 123.777 144H115.777C114.849 144 113.959 144.369 113.302 145.025C112.646 145.682 112.277 146.572 112.277 147.5V155.5C112.277 156.428 112.646 157.318 113.302 157.975C113.959 158.631 114.849 159 115.777 159H123.777ZM107.777 159C108.705 159 109.595 158.631 110.252 157.975C110.908 157.318 111.277 156.428 111.277 155.5V147.5C111.277 146.572 110.908 145.682 110.252 145.025C109.595 144.369 108.705 144 107.777 144H99.777C98.8487 144 97.9585 144.369 97.3021 145.025C96.6457 145.682 96.277 146.572 96.277 147.5V155.5C96.277 156.428 96.6457 157.318 97.3021 157.975C97.9585 158.631 98.8487 159 99.777 159H107.777ZM91.777 159C92.7053 159 93.5955 158.631 94.2519 157.975C94.9083 157.318 95.277 156.428 95.277 155.5V147.5C95.277 146.572 94.9083 145.682 94.2519 145.025C93.5955 144.369 92.7053 144 91.777 144H83.777C82.8487 144 81.9585 144.369 81.3021 145.025C80.6457 145.682 80.277 146.572 80.277 147.5V155.5C80.277 156.428 80.6457 157.318 81.3021 157.975C81.9585 158.631 82.8487 159 83.777 159H91.777ZM75.777 159C76.7053 159 77.5955 158.631 78.2519 157.975C78.9083 157.318 79.277 156.428 79.277 155.5V147.5C79.277 146.572 78.9083 145.682 78.2519 145.025C77.5955 144.369 76.7053 144 75.777 144H67.777C66.8487 144 65.9585 144.369 65.3021 145.025C64.6457 145.682 64.277 146.572 64.277 147.5V155.5C64.277 156.428 64.6457 157.318 65.3021 157.975C65.9585 158.631 66.8487 159 67.777 159H75.777ZM155.777 175C156.705 175 157.596 174.631 158.252 173.975C158.908 173.318 159.277 172.428 159.277 171.5V163.5C159.277 162.572 158.908 161.682 158.252 161.025C157.596 160.369 156.705 160 155.777 160H147.777C146.849 160 145.959 160.369 145.302 161.025C144.646 161.682 144.277 162.572 144.277 163.5V171.5C144.277 172.428 144.646 173.318 145.302 173.975C145.959 174.631 146.849 175 147.777 175H155.777ZM139.777 175C140.705 175 141.596 174.631 142.252 173.975C142.908 173.318 143.277 172.428 143.277 171.5V163.5C143.277 162.572 142.908 161.682 142.252 161.025C141.596 160.369 140.705 160 139.777 160H131.777C130.849 160 129.959 160.369 129.302 161.025C128.646 161.682 128.277 162.572 128.277 163.5V171.5C128.277 172.428 128.646 173.318 129.302 173.975C129.959 174.631 130.849 175 131.777 175H139.777ZM91.777 175C92.7053 175 93.5955 174.631 94.2519 173.975C94.9083 173.318 95.277 172.428 95.277 171.5V163.5C95.277 162.572 94.9083 161.682 94.2519 161.025C93.5955 160.369 92.7053 160 91.777 160H83.777C82.8487 160 81.9585 160.369 81.3021 161.025C80.6457 161.682 80.277 162.572 80.277 163.5V171.5C80.277 172.428 80.6457 173.318 81.3021 173.975C81.9585 174.631 82.8487 175 83.777 175H91.777ZM75.777 175C76.7053 175 77.5955 174.631 78.2519 173.975C78.9083 173.318 79.277 172.428 79.277 171.5V163.5C79.277 162.572 78.9083 161.682 78.2519 161.025C77.5955 160.369 76.7053 160 75.777 160H67.777C66.8487 160 65.9585 160.369 65.3021 161.025C64.6457 161.682 64.277 162.572 64.277 163.5V171.5C64.277 172.428 64.6457 173.318 65.3021 173.975C65.9585 174.631 66.8487 175 67.777 175H75.777ZM59.777 175C60.7053 175 61.5955 174.631 62.2519 173.975C62.9082 173.318 63.277 172.428 63.277 171.5V163.5C63.277 162.572 62.9082 161.682 62.2519 161.025C61.5955 160.369 60.7053 160 59.777 160H51.777C50.8487 160 49.9585 160.369 49.3021 161.025C48.6458 161.682 48.277 162.572 48.277 163.5V171.5C48.277 172.428 48.6458 173.318 49.3021 173.975C49.9585 174.631 50.8487 175 51.777 175H59.777ZM43.777 175C44.7053 175 45.5955 174.631 46.2519 173.975C46.9082 173.318 47.277 172.428 47.277 171.5V163.5C47.277 162.572 46.9082 161.682 46.2519 161.025C45.5955 160.369 44.7053 160 43.777 160H35.777C34.8487 160 33.9585 160.369 33.3021 161.025C32.6458 161.682 32.277 162.572 32.277 163.5V171.5C32.277 172.428 32.6458 173.318 33.3021 173.975C33.9585 174.631 34.8487 175 35.777 175H43.777ZM155.777 191C156.705 191 157.596 190.631 158.252 189.975C158.908 189.318 159.277 188.428 159.277 187.5V179.5C159.277 178.572 158.908 177.682 158.252 177.025C157.596 176.369 156.705 176 155.777 176H147.777C146.849 176 145.959 176.369 145.302 177.025C144.646 177.682 144.277 178.572 144.277 179.5V187.5C144.277 188.428 144.646 189.318 145.302 189.975C145.959 190.631 146.849 191 147.777 191H155.777ZM139.777 191C140.705 191 141.596 190.631 142.252 189.975C142.908 189.318 143.277 188.428 143.277 187.5V179.5C143.277 178.572 142.908 177.682 142.252 177.025C141.596 176.369 140.705 176 139.777 176H131.777C130.849 176 129.959 176.369 129.302 177.025C128.646 177.682 128.277 178.572 128.277 179.5V187.5C128.277 188.428 128.646 189.318 129.302 189.975C129.959 190.631 130.849 191 131.777 191H139.777ZM91.777 191C92.7053 191 93.5955 190.631 94.2519 189.975C94.9083 189.318 95.277 188.428 95.277 187.5V179.5C95.277 178.572 94.9083 177.682 94.2519 177.025C93.5955 176.369 92.7053 176 91.777 176H83.777C82.8487 176 81.9585 176.369 81.3021 177.025C80.6457 177.682 80.277 178.572 80.277 179.5V187.5C80.277 188.428 80.6457 189.318 81.3021 189.975C81.9585 190.631 82.8487 191 83.777 191H91.777ZM75.777 191C76.7053 191 77.5955 190.631 78.2519 189.975C78.9083 189.318 79.277 188.428 79.277 187.5V179.5C79.277 178.572 78.9083 177.682 78.2519 177.025C77.5955 176.369 76.7053 176 75.777 176H67.777C66.8487 176 65.9585 176.369 65.3021 177.025C64.6457 177.682 64.277 178.572 64.277 179.5V187.5C64.277 188.428 64.6457 189.318 65.3021 189.975C65.9585 190.631 66.8487 191 67.777 191H75.777ZM59.777 191C60.7053 191 61.5955 190.631 62.2519 189.975C62.9082 189.318 63.277 188.428 63.277 187.5V179.5C63.277 178.572 62.9082 177.682 62.2519 177.025C61.5955 176.369 60.7053 176 59.777 176H51.777C50.8487 176 49.9585 176.369 49.3021 177.025C48.6458 177.682 48.277 178.572 48.277 179.5V187.5C48.277 188.428 48.6458 189.318 49.3021 189.975C49.9585 190.631 50.8487 191 51.777 191H59.777ZM43.777 191C44.7053 191 45.5955 190.631 46.2519 189.975C46.9082 189.318 47.277 188.428 47.277 187.5V179.5C47.277 178.572 46.9082 177.682 46.2519 177.025C45.5955 176.369 44.7053 176 43.777 176H35.777C34.8487 176 33.9585 176.369 33.3021 177.025C32.6458 177.682 32.277 178.572 32.277 179.5V187.5C32.277 188.428 32.6458 189.318 33.3021 189.975C33.9585 190.631 34.8487 191 35.777 191H43.777ZM175.277 67.5C175.277 66.5717 174.908 65.6815 174.252 65.0251C173.596 64.3687 172.705 64 171.777 64H163.777C162.849 64 161.959 64.3687 161.302 65.0251C160.646 65.6815 160.277 66.5717 160.277 67.5V75.5C160.277 76.4283 160.646 77.3185 161.302 77.9749C161.959 78.6313 162.849 79 163.777 79H171.777C172.705 79 173.596 78.6313 174.252 77.9749C174.908 77.3185 175.277 76.4283 175.277 75.5V67.5ZM175.277 83.5C175.277 82.5717 174.908 81.6815 174.252 81.0251C173.596 80.3687 172.705 80 171.777 80H163.777C162.849 80 161.959 80.3687 161.302 81.0251C160.646 81.6815 160.277 82.5717 160.277 83.5V91.5C160.277 92.4283 160.646 93.3185 161.302 93.9749C161.959 94.6313 162.849 95 163.777 95H171.777C172.705 95 173.596 94.6313 174.252 93.9749C174.908 93.3185 175.277 92.4283 175.277 91.5V83.5ZM219.777 159C220.705 159 221.596 158.631 222.252 157.975C222.908 157.318 223.277 156.428 223.277 155.5V147.5C223.277 146.572 222.908 145.682 222.252 145.025C221.596 144.369 220.705 144 219.777 144H211.777C210.849 144 209.959 144.369 209.302 145.025C208.646 145.682 208.277 146.572 208.277 147.5V155.5C208.277 156.428 208.646 157.318 209.302 157.975C209.959 158.631 210.849 159 211.777 159H219.777ZM203.777 159C204.705 159 205.596 158.631 206.252 157.975C206.908 157.318 207.277 156.428 207.277 155.5V147.5C207.277 146.572 206.908 145.682 206.252 145.025C205.596 144.369 204.705 144 203.777 144H195.777C194.849 144 193.959 144.369 193.302 145.025C192.646 145.682 192.277 146.572 192.277 147.5V155.5C192.277 156.428 192.646 157.318 193.302 157.975C193.959 158.631 194.849 159 195.777 159H203.777ZM191.277 35.5C191.277 34.5717 190.908 33.6815 190.252 33.0251C189.596 32.3688 188.705 32 187.777 32H179.777C178.849 32 177.959 32.3688 177.302 33.0251C176.646 33.6815 176.277 34.5717 176.277 35.5V43.5C176.277 44.4283 176.646 45.3185 177.302 45.9749C177.959 46.6312 178.849 47 179.777 47H187.777C188.705 47 189.596 46.6312 190.252 45.9749C190.908 45.3185 191.277 44.4283 191.277 43.5V35.5ZM191.277 51.5C191.277 50.5717 190.908 49.6815 190.252 49.0251C189.596 48.3688 188.705 48 187.777 48H179.777C178.849 48 177.959 48.3688 177.302 49.0251C176.646 49.6815 176.277 50.5717 176.277 51.5V59.5C176.277 60.4283 176.646 61.3185 177.302 61.9749C177.959 62.6312 178.849 63 179.777 63H187.777C188.705 63 189.596 62.6312 190.252 61.9749C190.908 61.3185 191.277 60.4283 191.277 59.5V51.5ZM191.277 67.5C191.277 66.5717 190.908 65.6815 190.252 65.0251C189.596 64.3687 188.705 64 187.777 64H179.777C178.849 64 177.959 64.3687 177.302 65.0251C176.646 65.6815 176.277 66.5717 176.277 67.5V75.5C176.277 76.4283 176.646 77.3185 177.302 77.9749C177.959 78.6313 178.849 79 179.777 79H187.777C188.705 79 189.596 78.6313 190.252 77.9749C190.908 77.3185 191.277 76.4283 191.277 75.5V67.5ZM191.277 83.5C191.277 82.5717 190.908 81.6815 190.252 81.0251C189.596 80.3687 188.705 80 187.777 80H179.777C178.849 80 177.959 80.3687 177.302 81.0251C176.646 81.6815 176.277 82.5717 176.277 83.5V91.5C176.277 92.4283 176.646 93.3185 177.302 93.9749C177.959 94.6313 178.849 95 179.777 95H187.777C188.705 95 189.596 94.6313 190.252 93.9749C190.908 93.3185 191.277 92.4283 191.277 91.5V83.5ZM207.277 3.5C207.277 2.57174 206.908 1.6815 206.252 1.02513C205.596 0.368749 204.705 0 203.777 0H195.777C194.849 0 193.959 0.368749 193.302 1.02513C192.646 1.6815 192.277 2.57174 192.277 3.5V11.5C192.277 12.4283 192.646 13.3185 193.302 13.9749C193.959 14.6313 194.849 15 195.777 15H203.777C204.705 15 205.596 14.6313 206.252 13.9749C206.908 13.3185 207.277 12.4283 207.277 11.5V3.5ZM207.277 19.5C207.277 18.5717 206.908 17.6815 206.252 17.0251C205.596 16.3687 204.705 16 203.777 16H195.777C194.849 16 193.959 16.3687 193.302 17.0251C192.646 17.6815 192.277 18.5717 192.277 19.5V27.5C192.277 28.4283 192.646 29.3185 193.302 29.9749C193.959 30.6313 194.849 31 195.777 31H203.777C204.705 31 205.596 30.6313 206.252 29.9749C206.908 29.3185 207.277 28.4283 207.277 27.5V19.5ZM207.277 67.5C207.277 66.5717 206.908 65.6815 206.252 65.0251C205.596 64.3687 204.705 64 203.777 64H195.777C194.849 64 193.959 64.3687 193.302 65.0251C192.646 65.6815 192.277 66.5717 192.277 67.5V75.5C192.277 76.4283 192.646 77.3185 193.302 77.9749C193.959 78.6313 194.849 79 195.777 79H203.777C204.705 79 205.596 78.6313 206.252 77.9749C206.908 77.3185 207.277 76.4283 207.277 75.5V67.5ZM207.277 115.5C207.277 114.572 206.908 113.682 206.252 113.025C205.596 112.369 204.705 112 203.777 112H195.777C194.849 112 193.959 112.369 193.302 113.025C192.646 113.682 192.277 114.572 192.277 115.5V123.5C192.277 124.428 192.646 125.318 193.302 125.975C193.959 126.631 194.849 127 195.777 127H203.777C204.705 127 205.596 126.631 206.252 125.975C206.908 125.318 207.277 124.428 207.277 123.5V115.5ZM207.277 83.5C207.277 82.5717 206.908 81.6815 206.252 81.0251C205.596 80.3687 204.705 80 203.777 80H195.777C194.849 80 193.959 80.3687 193.302 81.0251C192.646 81.6815 192.277 82.5717 192.277 83.5V91.5C192.277 92.4283 192.646 93.3185 193.302 93.9749C193.959 94.6313 194.849 95 195.777 95H203.777C204.705 95 205.596 94.6313 206.252 93.9749C206.908 93.3185 207.277 92.4283 207.277 91.5V83.5ZM207.277 99.5C207.277 98.5717 206.908 97.6815 206.252 97.0251C205.596 96.3687 204.705 96 203.777 96H195.777C194.849 96 193.959 96.3687 193.302 97.0251C192.646 97.6815 192.277 98.5717 192.277 99.5V107.5C192.277 108.428 192.646 109.318 193.302 109.975C193.959 110.631 194.849 111 195.777 111H203.777C204.705 111 205.596 110.631 206.252 109.975C206.908 109.318 207.277 108.428 207.277 107.5V99.5ZM175.277 115.5C175.277 114.572 174.908 113.682 174.252 113.025C173.596 112.369 172.705 112 171.777 112H163.777C162.849 112 161.959 112.369 161.302 113.025C160.646 113.682 160.277 114.572 160.277 115.5V123.5C160.277 124.428 160.646 125.318 161.302 125.975C161.959 126.631 162.849 127 163.777 127H171.777C172.705 127 173.596 126.631 174.252 125.975C174.908 125.318 175.277 124.428 175.277 123.5V115.5ZM223.277 3.5C223.277 2.57174 222.908 1.6815 222.252 1.02513C221.596 0.368749 220.705 0 219.777 0H211.777C210.849 0 209.959 0.368749 209.302 1.02513C208.646 1.6815 208.277 2.57174 208.277 3.5V11.5C208.277 12.4283 208.646 13.3185 209.302 13.9749C209.959 14.6313 210.849 15 211.777 15H219.777C220.705 15 221.596 14.6313 222.252 13.9749C222.908 13.3185 223.277 12.4283 223.277 11.5V3.5ZM223.277 19.5C223.277 18.5717 222.908 17.6815 222.252 17.0251C221.596 16.3687 220.705 16 219.777 16H211.777C210.849 16 209.959 16.3687 209.302 17.0251C208.646 17.6815 208.277 18.5717 208.277 19.5V27.5C208.277 28.4283 208.646 29.3185 209.302 29.9749C209.959 30.6313 210.849 31 211.777 31H219.777C220.705 31 221.596 30.6313 222.252 29.9749C222.908 29.3185 223.277 28.4283 223.277 27.5V19.5ZM223.277 115.5C223.277 114.572 222.908 113.682 222.252 113.025C221.596 112.369 220.705 112 219.777 112H211.777C210.849 112 209.959 112.369 209.302 113.025C208.646 113.682 208.277 114.572 208.277 115.5V123.5C208.277 124.428 208.646 125.318 209.302 125.975C209.959 126.631 210.849 127 211.777 127H219.777C220.705 127 221.596 126.631 222.252 125.975C222.908 125.318 223.277 124.428 223.277 123.5V115.5ZM223.277 67.5C223.277 66.5717 222.908 65.6815 222.252 65.0251C221.596 64.3687 220.705 64 219.777 64H211.777C210.849 64 209.959 64.3687 209.302 65.0251C208.646 65.6815 208.277 66.5717 208.277 67.5V75.5C208.277 76.4283 208.646 77.3185 209.302 77.9749C209.959 78.6313 210.849 79 211.777 79H219.777C220.705 79 221.596 78.6313 222.252 77.9749C222.908 77.3185 223.277 76.4283 223.277 75.5V67.5ZM223.277 83.5C223.277 82.5717 222.908 81.6815 222.252 81.0251C221.596 80.3687 220.705 80 219.777 80H211.777C210.849 80 209.959 80.3687 209.302 81.0251C208.646 81.6815 208.277 82.5717 208.277 83.5V91.5C208.277 92.4283 208.646 93.3185 209.302 93.9749C209.959 94.6313 210.849 95 211.777 95H219.777C220.705 95 221.596 94.6313 222.252 93.9749C222.908 93.3185 223.277 92.4283 223.277 91.5V83.5ZM223.277 99.5C223.277 98.5717 222.908 97.6815 222.252 97.0251C221.596 96.3687 220.705 96 219.777 96H211.777C210.849 96 209.959 96.3687 209.302 97.0251C208.646 97.6815 208.277 98.5717 208.277 99.5V107.5C208.277 108.428 208.646 109.318 209.302 109.975C209.959 110.631 210.849 111 211.777 111H219.777C220.705 111 221.596 110.631 222.252 109.975C222.908 109.318 223.277 108.428 223.277 107.5V99.5ZM191.277 115.5C191.277 114.572 190.908 113.682 190.252 113.025C189.596 112.369 188.705 112 187.777 112H179.777C178.849 112 177.959 112.369 177.302 113.025C176.646 113.682 176.277 114.572 176.277 115.5V123.5C176.277 124.428 176.646 125.318 177.302 125.975C177.959 126.631 178.849 127 179.777 127H187.777C188.705 127 189.596 126.631 190.252 125.975C190.908 125.318 191.277 124.428 191.277 123.5V115.5ZM219.777 207C220.705 207 221.596 206.631 222.252 205.975C222.908 205.318 223.277 204.428 223.277 203.5V195.5C223.277 194.572 222.908 193.682 222.252 193.025C221.596 192.369 220.705 192 219.777 192H211.777C210.849 192 209.959 192.369 209.302 193.025C208.646 193.682 208.277 194.572 208.277 195.5V203.5C208.277 204.428 208.646 205.318 209.302 205.975C209.959 206.631 210.849 207 211.777 207H219.777ZM203.777 207C204.705 207 205.596 206.631 206.252 205.975C206.908 205.318 207.277 204.428 207.277 203.5V195.5C207.277 194.572 206.908 193.682 206.252 193.025C205.596 192.369 204.705 192 203.777 192H195.777C194.849 192 193.959 192.369 193.302 193.025C192.646 193.682 192.277 194.572 192.277 195.5V203.5C192.277 204.428 192.646 205.318 193.302 205.975C193.959 206.631 194.849 207 195.777 207H203.777ZM187.777 207C188.705 207 189.596 206.631 190.252 205.975C190.908 205.318 191.277 204.428 191.277 203.5V195.5C191.277 194.572 190.908 193.682 190.252 193.025C189.596 192.369 188.705 192 187.777 192H179.777C178.849 192 177.959 192.369 177.302 193.025C176.646 193.682 176.277 194.572 176.277 195.5V203.5C176.277 204.428 176.646 205.318 177.302 205.975C177.959 206.631 178.849 207 179.777 207H187.777ZM171.777 207C172.705 207 173.596 206.631 174.252 205.975C174.908 205.318 175.277 204.428 175.277 203.5V195.5C175.277 194.572 174.908 193.682 174.252 193.025C173.596 192.369 172.705 192 171.777 192H163.777C162.849 192 161.959 192.369 161.302 193.025C160.646 193.682 160.277 194.572 160.277 195.5V203.5C160.277 204.428 160.646 205.318 161.302 205.975C161.959 206.631 162.849 207 163.777 207H171.777ZM123.777 207C124.705 207 125.595 206.631 126.252 205.975C126.908 205.318 127.277 204.428 127.277 203.5V195.5C127.277 194.572 126.908 193.682 126.252 193.025C125.595 192.369 124.705 192 123.777 192H115.777C114.849 192 113.959 192.369 113.302 193.025C112.646 193.682 112.277 194.572 112.277 195.5V203.5C112.277 204.428 112.646 205.318 113.302 205.975C113.959 206.631 114.849 207 115.777 207H123.777ZM107.777 207C108.705 207 109.595 206.631 110.252 205.975C110.908 205.318 111.277 204.428 111.277 203.5V195.5C111.277 194.572 110.908 193.682 110.252 193.025C109.595 192.369 108.705 192 107.777 192H99.777C98.8487 192 97.9585 192.369 97.3021 193.025C96.6457 193.682 96.277 194.572 96.277 195.5V203.5C96.277 204.428 96.6457 205.318 97.3021 205.975C97.9585 206.631 98.8487 207 99.777 207H107.777ZM219.777 223C220.705 223 221.596 222.631 222.252 221.975C222.908 221.318 223.277 220.428 223.277 219.5V211.5C223.277 210.572 222.908 209.682 222.252 209.025C221.596 208.369 220.705 208 219.777 208H211.777C210.849 208 209.959 208.369 209.302 209.025C208.646 209.682 208.277 210.572 208.277 211.5V219.5C208.277 220.428 208.646 221.318 209.302 221.975C209.959 222.631 210.849 223 211.777 223H219.777ZM203.777 223C204.705 223 205.596 222.631 206.252 221.975C206.908 221.318 207.277 220.428 207.277 219.5V211.5C207.277 210.572 206.908 209.682 206.252 209.025C205.596 208.369 204.705 208 203.777 208H195.777C194.849 208 193.959 208.369 193.302 209.025C192.646 209.682 192.277 210.572 192.277 211.5V219.5C192.277 220.428 192.646 221.318 193.302 221.975C193.959 222.631 194.849 223 195.777 223H203.777ZM187.777 223C188.705 223 189.596 222.631 190.252 221.975C190.908 221.318 191.277 220.428 191.277 219.5V211.5C191.277 210.572 190.908 209.682 190.252 209.025C189.596 208.369 188.705 208 187.777 208H179.777C178.849 208 177.959 208.369 177.302 209.025C176.646 209.682 176.277 210.572 176.277 211.5V219.5C176.277 220.428 176.646 221.318 177.302 221.975C177.959 222.631 178.849 223 179.777 223H187.777ZM171.777 223C172.705 223 173.596 222.631 174.252 221.975C174.908 221.318 175.277 220.428 175.277 219.5V211.5C175.277 210.572 174.908 209.682 174.252 209.025C173.596 208.369 172.705 208 171.777 208H163.777C162.849 208 161.959 208.369 161.302 209.025C160.646 209.682 160.277 210.572 160.277 211.5V219.5C160.277 220.428 160.646 221.318 161.302 221.975C161.959 222.631 162.849 223 163.777 223H171.777ZM123.777 223C124.705 223 125.595 222.631 126.252 221.975C126.908 221.318 127.277 220.428 127.277 219.5V211.5C127.277 210.572 126.908 209.682 126.252 209.025C125.595 208.369 124.705 208 123.777 208H115.777C114.849 208 113.959 208.369 113.302 209.025C112.646 209.682 112.277 210.572 112.277 211.5V219.5C112.277 220.428 112.646 221.318 113.302 221.975C113.959 222.631 114.849 223 115.777 223H123.777ZM107.777 223C108.705 223 109.595 222.631 110.252 221.975C110.908 221.318 111.277 220.428 111.277 219.5V211.5C111.277 210.572 110.908 209.682 110.252 209.025C109.595 208.369 108.705 208 107.777 208H99.777C98.8487 208 97.9585 208.369 97.3021 209.025C96.6457 209.682 96.277 210.572 96.277 211.5V219.5C96.277 220.428 96.6457 221.318 97.3021 221.975C97.9585 222.631 98.8487 223 99.777 223H107.777ZM219.777 239C220.705 239 221.596 238.631 222.252 237.975C222.908 237.318 223.277 236.428 223.277 235.5V227.5C223.277 226.572 222.908 225.682 222.252 225.025C221.596 224.369 220.705 224 219.777 224H211.777C210.849 224 209.959 224.369 209.302 225.025C208.646 225.682 208.277 226.572 208.277 227.5V235.5C208.277 236.428 208.646 237.318 209.302 237.975C209.959 238.631 210.849 239 211.777 239H219.777ZM203.777 239C204.705 239 205.596 238.631 206.252 237.975C206.908 237.318 207.277 236.428 207.277 235.5V227.5C207.277 226.572 206.908 225.682 206.252 225.025C205.596 224.369 204.705 224 203.777 224H195.777C194.849 224 193.959 224.369 193.302 225.025C192.646 225.682 192.277 226.572 192.277 227.5V235.5C192.277 236.428 192.646 237.318 193.302 237.975C193.959 238.631 194.849 239 195.777 239H203.777ZM187.777 239C188.705 239 189.596 238.631 190.252 237.975C190.908 237.318 191.277 236.428 191.277 235.5V227.5C191.277 226.572 190.908 225.682 190.252 225.025C189.596 224.369 188.705 224 187.777 224H179.777C178.849 224 177.959 224.369 177.302 225.025C176.646 225.682 176.277 226.572 176.277 227.5V235.5C176.277 236.428 176.646 237.318 177.302 237.975C177.959 238.631 178.849 239 179.777 239H187.777ZM171.777 239C172.705 239 173.596 238.631 174.252 237.975C174.908 237.318 175.277 236.428 175.277 235.5V227.5C175.277 226.572 174.908 225.682 174.252 225.025C173.596 224.369 172.705 224 171.777 224H163.777C162.849 224 161.959 224.369 161.302 225.025C160.646 225.682 160.277 226.572 160.277 227.5V235.5C160.277 236.428 160.646 237.318 161.302 237.975C161.959 238.631 162.849 239 163.777 239H171.777ZM155.777 239C156.705 239 157.596 238.631 158.252 237.975C158.908 237.318 159.277 236.428 159.277 235.5V227.5C159.277 226.572 158.908 225.682 158.252 225.025C157.596 224.369 156.705 224 155.777 224H147.777C146.849 224 145.959 224.369 145.302 225.025C144.646 225.682 144.277 226.572 144.277 227.5V235.5C144.277 236.428 144.646 237.318 145.302 237.975C145.959 238.631 146.849 239 147.777 239H155.777ZM139.777 239C140.705 239 141.596 238.631 142.252 237.975C142.908 237.318 143.277 236.428 143.277 235.5V227.5C143.277 226.572 142.908 225.682 142.252 225.025C141.596 224.369 140.705 224 139.777 224H131.777C130.849 224 129.959 224.369 129.302 225.025C128.646 225.682 128.277 226.572 128.277 227.5V235.5C128.277 236.428 128.646 237.318 129.302 237.975C129.959 238.631 130.849 239 131.777 239H139.777ZM219.777 255C220.705 255 221.596 254.631 222.252 253.975C222.908 253.318 223.277 252.428 223.277 251.5V243.5C223.277 242.572 222.908 241.682 222.252 241.025C221.596 240.369 220.705 240 219.777 240H211.777C210.849 240 209.959 240.369 209.302 241.025C208.646 241.682 208.277 242.572 208.277 243.5V251.5C208.277 252.428 208.646 253.318 209.302 253.975C209.959 254.631 210.849 255 211.777 255H219.777ZM203.777 255C204.705 255 205.596 254.631 206.252 253.975C206.908 253.318 207.277 252.428 207.277 251.5V243.5C207.277 242.572 206.908 241.682 206.252 241.025C205.596 240.369 204.705 240 203.777 240H195.777C194.849 240 193.959 240.369 193.302 241.025C192.646 241.682 192.277 242.572 192.277 243.5V251.5C192.277 252.428 192.646 253.318 193.302 253.975C193.959 254.631 194.849 255 195.777 255H203.777ZM187.777 255C188.705 255 189.596 254.631 190.252 253.975C190.908 253.318 191.277 252.428 191.277 251.5V243.5C191.277 242.572 190.908 241.682 190.252 241.025C189.596 240.369 188.705 240 187.777 240H179.777C178.849 240 177.959 240.369 177.302 241.025C176.646 241.682 176.277 242.572 176.277 243.5V251.5C176.277 252.428 176.646 253.318 177.302 253.975C177.959 254.631 178.849 255 179.777 255H187.777ZM109.827 143.505C110.628 143.043 111.326 142.366 111.773 141.551C112.226 142.375 112.903 143.052 113.727 143.505C112.934 143.947 112.231 144.666 111.773 145.451C111.303 144.645 110.647 143.947 109.827 143.505ZM93.827 143.505C94.628 143.043 95.326 142.366 95.773 141.551C96.2255 142.375 96.9033 143.053 97.727 143.505C96.934 143.947 96.231 144.666 95.773 145.451C95.303 144.645 94.647 143.947 93.827 143.505ZM77.827 143.505C78.628 143.043 79.326 142.366 79.773 141.551C80.2255 142.375 80.9033 143.053 81.727 143.505C80.934 143.947 80.231 144.666 79.773 145.451C79.303 144.645 78.647 143.947 77.827 143.505ZM125.827 159.505C126.628 159.043 127.326 158.366 127.773 157.551C128.226 158.375 128.903 159.052 129.727 159.505C128.934 159.947 128.231 160.666 127.773 161.451C127.303 160.645 126.647 159.947 125.827 159.505ZM93.827 159.505C94.628 159.043 95.326 158.366 95.773 157.551C96.2255 158.375 96.9033 159.053 97.727 159.505C96.934 159.947 96.231 160.666 95.773 161.451C95.303 160.645 94.647 159.947 93.827 159.505ZM77.827 159.505C78.628 159.043 79.326 158.366 79.773 157.551C80.2255 158.375 80.9033 159.053 81.727 159.505C80.934 159.947 80.231 160.666 79.773 161.451C79.303 160.645 78.647 159.947 77.827 159.505ZM61.827 159.505C62.628 159.043 63.326 158.366 63.773 157.551C64.2255 158.375 64.9033 159.053 65.727 159.505C64.934 159.947 64.231 160.666 63.773 161.451C63.303 160.645 62.647 159.947 61.827 159.505ZM141.827 175.505C142.628 175.043 143.326 174.366 143.773 173.551C144.226 174.375 144.903 175.052 145.727 175.505C144.934 175.947 144.231 176.666 143.773 177.451C143.303 176.645 142.647 175.947 141.827 175.505ZM77.827 175.505C78.628 175.043 79.326 174.366 79.773 173.551C80.2255 174.375 80.9033 175.053 81.727 175.505C80.934 175.947 80.231 176.666 79.773 177.451C79.303 176.645 78.647 175.947 77.827 175.505ZM61.827 175.505C62.628 175.043 63.326 174.366 63.773 173.551C64.2255 174.375 64.9033 175.053 65.727 175.505C64.934 175.947 64.231 176.666 63.773 177.451C63.303 176.645 62.647 175.947 61.827 175.505ZM45.827 175.505C46.628 175.043 47.326 174.366 47.773 173.551C48.2255 174.375 48.9033 175.053 49.727 175.505C48.934 175.947 48.231 176.666 47.773 177.451C47.303 176.645 46.647 175.947 45.827 175.505ZM171.777 255C172.705 255 173.596 254.631 174.252 253.975C174.908 253.318 175.277 252.428 175.277 251.5V243.5C175.277 242.572 174.908 241.682 174.252 241.025C173.596 240.369 172.705 240 171.777 240H163.777C162.849 240 161.959 240.369 161.302 241.025C160.646 241.682 160.277 242.572 160.277 243.5V251.5C160.277 252.428 160.646 253.318 161.302 253.975C161.959 254.631 162.849 255 163.777 255H171.777ZM155.777 255C156.705 255 157.596 254.631 158.252 253.975C158.908 253.318 159.277 252.428 159.277 251.5V243.5C159.277 242.572 158.908 241.682 158.252 241.025C157.596 240.369 156.705 240 155.777 240H147.777C146.849 240 145.959 240.369 145.302 241.025C144.646 241.682 144.277 242.572 144.277 243.5V251.5C144.277 252.428 144.646 253.318 145.302 253.975C145.959 254.631 146.849 255 147.777 255H155.777ZM139.777 255C140.705 255 141.596 254.631 142.252 253.975C142.908 253.318 143.277 252.428 143.277 251.5V243.5C143.277 242.572 142.908 241.682 142.252 241.025C141.596 240.369 140.705 240 139.777 240H131.777C130.849 240 129.959 240.369 129.302 241.025C128.646 241.682 128.277 242.572 128.277 243.5V251.5C128.277 252.428 128.646 253.318 129.302 253.975C129.959 254.631 130.849 255 131.777 255H139.777ZM219.777 271C220.705 271 221.596 270.631 222.252 269.975C222.908 269.319 223.277 268.428 223.277 267.5V259.5C223.277 258.572 222.908 257.681 222.252 257.025C221.596 256.369 220.705 256 219.777 256H211.777C210.849 256 209.959 256.369 209.302 257.025C208.646 257.681 208.277 258.572 208.277 259.5V267.5C208.277 268.428 208.646 269.319 209.302 269.975C209.959 270.631 210.849 271 211.777 271H219.777ZM203.777 271C204.705 271 205.596 270.631 206.252 269.975C206.908 269.319 207.277 268.428 207.277 267.5V259.5C207.277 258.572 206.908 257.681 206.252 257.025C205.596 256.369 204.705 256 203.777 256H195.777C194.849 256 193.959 256.369 193.302 257.025C192.646 257.681 192.277 258.572 192.277 259.5V267.5C192.277 268.428 192.646 269.319 193.302 269.975C193.959 270.631 194.849 271 195.777 271H203.777ZM187.777 271C188.705 271 189.596 270.631 190.252 269.975C190.908 269.319 191.277 268.428 191.277 267.5V259.5C191.277 258.572 190.908 257.681 190.252 257.025C189.596 256.369 188.705 256 187.777 256H179.777C178.849 256 177.959 256.369 177.302 257.025C176.646 257.681 176.277 258.572 176.277 259.5V267.5C176.277 268.428 176.646 269.319 177.302 269.975C177.959 270.631 178.849 271 179.777 271H187.777ZM171.777 271C172.705 271 173.596 270.631 174.252 269.975C174.908 269.319 175.277 268.428 175.277 267.5V259.5C175.277 258.572 174.908 257.681 174.252 257.025C173.596 256.369 172.705 256 171.777 256H163.777C162.849 256 161.959 256.369 161.302 257.025C160.646 257.681 160.277 258.572 160.277 259.5V267.5C160.277 268.428 160.646 269.319 161.302 269.975C161.959 270.631 162.849 271 163.777 271H171.777ZM123.777 271C124.705 271 125.595 270.631 126.252 269.975C126.908 269.319 127.277 268.428 127.277 267.5V259.5C127.277 258.572 126.908 257.681 126.252 257.025C125.595 256.369 124.705 256 123.777 256H115.777C114.849 256 113.959 256.369 113.302 257.025C112.646 257.681 112.277 258.572 112.277 259.5V267.5C112.277 268.428 112.646 269.319 113.302 269.975C113.959 270.631 114.849 271 115.777 271H123.777ZM107.777 271C108.705 271 109.595 270.631 110.252 269.975C110.908 269.319 111.277 268.428 111.277 267.5V259.5C111.277 258.572 110.908 257.681 110.252 257.025C109.595 256.369 108.705 256 107.777 256H99.777C98.8487 256 97.9585 256.369 97.3021 257.025C96.6457 257.681 96.277 258.572 96.277 259.5V267.5C96.277 268.428 96.6457 269.319 97.3021 269.975C97.9585 270.631 98.8487 271 99.777 271H107.777ZM219.777 287C220.705 287 221.596 286.631 222.252 285.975C222.908 285.319 223.277 284.428 223.277 283.5V275.5C223.277 274.572 222.908 273.681 222.252 273.025C221.596 272.369 220.705 272 219.777 272H211.777C210.849 272 209.959 272.369 209.302 273.025C208.646 273.681 208.277 274.572 208.277 275.5V283.5C208.277 284.428 208.646 285.319 209.302 285.975C209.959 286.631 210.849 287 211.777 287H219.777ZM203.777 287C204.705 287 205.596 286.631 206.252 285.975C206.908 285.319 207.277 284.428 207.277 283.5V275.5C207.277 274.572 206.908 273.681 206.252 273.025C205.596 272.369 204.705 272 203.777 272H195.777C194.849 272 193.959 272.369 193.302 273.025C192.646 273.681 192.277 274.572 192.277 275.5V283.5C192.277 284.428 192.646 285.319 193.302 285.975C193.959 286.631 194.849 287 195.777 287H203.777ZM187.777 287C188.705 287 189.596 286.631 190.252 285.975C190.908 285.319 191.277 284.428 191.277 283.5V275.5C191.277 274.572 190.908 273.681 190.252 273.025C189.596 272.369 188.705 272 187.777 272H179.777C178.849 272 177.959 272.369 177.302 273.025C176.646 273.681 176.277 274.572 176.277 275.5V283.5C176.277 284.428 176.646 285.319 177.302 285.975C177.959 286.631 178.849 287 179.777 287H187.777ZM171.777 287C172.705 287 173.596 286.631 174.252 285.975C174.908 285.319 175.277 284.428 175.277 283.5V275.5C175.277 274.572 174.908 273.681 174.252 273.025C173.596 272.369 172.705 272 171.777 272H163.777C162.849 272 161.959 272.369 161.302 273.025C160.646 273.681 160.277 274.572 160.277 275.5V283.5C160.277 284.428 160.646 285.319 161.302 285.975C161.959 286.631 162.849 287 163.777 287H171.777ZM123.777 287C124.705 287 125.595 286.631 126.252 285.975C126.908 285.319 127.277 284.428 127.277 283.5V275.5C127.277 274.572 126.908 273.681 126.252 273.025C125.595 272.369 124.705 272 123.777 272H115.777C114.849 272 113.959 272.369 113.302 273.025C112.646 273.681 112.277 274.572 112.277 275.5V283.5C112.277 284.428 112.646 285.319 113.302 285.975C113.959 286.631 114.849 287 115.777 287H123.777ZM107.777 287C108.705 287 109.595 286.631 110.252 285.975C110.908 285.319 111.277 284.428 111.277 283.5V275.5C111.277 274.572 110.908 273.681 110.252 273.025C109.595 272.369 108.705 272 107.777 272H99.777C98.8487 272 97.9585 272.369 97.3021 273.025C96.6457 273.681 96.277 274.572 96.277 275.5V283.5C96.277 284.428 96.6457 285.319 97.3021 285.975C97.9585 286.631 98.8487 287 99.777 287H107.777ZM187.777 303C188.705 303 189.596 302.631 190.252 301.975C190.908 301.319 191.277 300.428 191.277 299.5V291.5C191.277 290.572 190.908 289.681 190.252 289.025C189.596 288.369 188.705 288 187.777 288H179.777C178.849 288 177.959 288.369 177.302 289.025C176.646 289.681 176.277 290.572 176.277 291.5V299.5C176.277 300.428 176.646 301.319 177.302 301.975C177.959 302.631 178.849 303 179.777 303H187.777ZM171.777 303C172.705 303 173.596 302.631 174.252 301.975C174.908 301.319 175.277 300.428 175.277 299.5V291.5C175.277 290.572 174.908 289.681 174.252 289.025C173.596 288.369 172.705 288 171.777 288H163.777C162.849 288 161.959 288.369 161.302 289.025C160.646 289.681 160.277 290.572 160.277 291.5V299.5C160.277 300.428 160.646 301.319 161.302 301.975C161.959 302.631 162.849 303 163.777 303H171.777ZM187.777 319C188.705 319 189.596 318.631 190.252 317.975C190.908 317.319 191.277 316.428 191.277 315.5V307.5C191.277 306.572 190.908 305.681 190.252 305.025C189.596 304.369 188.705 304 187.777 304H179.777C178.849 304 177.959 304.369 177.302 305.025C176.646 305.681 176.277 306.572 176.277 307.5V315.5C176.277 316.428 176.646 317.319 177.302 317.975C177.959 318.631 178.849 319 179.777 319H187.777ZM171.777 319C172.705 319 173.596 318.631 174.252 317.975C174.908 317.319 175.277 316.428 175.277 315.5V307.5C175.277 306.572 174.908 305.681 174.252 305.025C173.596 304.369 172.705 304 171.777 304H163.777C162.849 304 161.959 304.369 161.302 305.025C160.646 305.681 160.277 306.572 160.277 307.5V315.5C160.277 316.428 160.646 317.319 161.302 317.975C161.959 318.631 162.849 319 163.777 319H171.777ZM205.827 143.505C206.628 143.043 207.326 142.366 207.773 141.551C208.226 142.375 208.903 143.052 209.727 143.505C208.934 143.947 208.231 144.666 207.773 145.451C207.303 144.645 206.647 143.947 205.827 143.505ZM221.827 143.505C222.628 143.043 223.326 142.366 223.773 141.551C224.226 142.375 224.903 143.052 225.727 143.505C224.934 143.947 224.231 144.666 223.773 145.451C223.303 144.645 222.647 143.947 221.827 143.505ZM175.782 49.45C175.32 48.65 174.643 47.952 173.828 47.504C174.652 47.0517 175.329 46.3743 175.782 45.551C176.225 46.343 176.943 47.047 177.728 47.504C176.923 47.974 176.225 48.63 175.782 49.45ZM175.782 65.45C175.32 64.65 174.643 63.952 173.828 63.504C174.652 63.0517 175.329 62.3743 175.782 61.551C176.225 62.343 176.943 63.047 177.728 63.504C176.923 63.974 176.225 64.63 175.782 65.45ZM175.782 81.45C175.32 80.65 174.643 79.952 173.828 79.504C174.652 79.0517 175.329 78.3743 175.782 77.551C176.225 78.343 176.943 79.047 177.728 79.504C176.923 79.974 176.225 80.63 175.782 81.45ZM191.782 33.45C191.32 32.65 190.643 31.952 189.828 31.504C190.652 31.0517 191.329 30.3743 191.782 29.551C192.225 30.343 192.943 31.047 193.728 31.504C192.923 31.974 192.225 32.63 191.782 33.45ZM191.782 65.45C191.32 64.65 190.643 63.952 189.828 63.504C190.652 63.0517 191.329 62.3743 191.782 61.551C192.225 62.343 192.943 63.047 193.728 63.504C192.923 63.974 192.225 64.63 191.782 65.45ZM191.782 81.45C191.32 80.65 190.643 79.952 189.828 79.504C190.652 79.0517 191.329 78.3743 191.782 77.551C192.225 78.343 192.943 79.047 193.728 79.504C192.923 79.974 192.225 80.63 191.782 81.45ZM191.782 97.45C191.32 96.65 190.643 95.952 189.828 95.504C190.652 95.0517 191.329 94.3743 191.782 93.551C192.225 94.343 192.943 95.047 193.728 95.504C192.923 95.974 192.225 96.63 191.782 97.45ZM207.782 129.451C207.32 128.649 206.643 127.952 205.828 127.504C206.652 127.052 207.329 126.374 207.782 125.551C208.225 126.343 208.943 127.047 209.728 127.504C208.923 127.974 208.225 128.631 207.782 129.451ZM223.782 129.451C223.32 128.649 222.643 127.952 221.828 127.504C222.652 127.052 223.329 126.374 223.782 125.551C224.225 126.343 224.943 127.047 225.728 127.504C224.923 127.974 224.225 128.631 223.782 129.451ZM191.778 129.451C191.316 128.649 190.639 127.952 189.824 127.504C190.648 127.052 191.325 126.374 191.778 125.551C192.221 126.343 192.939 127.047 193.724 127.504C192.919 127.974 192.221 128.631 191.778 129.451ZM207.782 17.45C207.32 16.65 206.643 15.952 205.828 15.504C206.652 15.0517 207.329 14.3743 207.782 13.551C208.225 14.343 208.943 15.047 209.728 15.504C208.923 15.974 208.225 16.63 207.782 17.45ZM223.782 17.45C223.32 16.65 222.643 15.952 221.828 15.504C222.652 15.0517 223.329 14.3743 223.782 13.551C224.225 14.343 224.943 15.047 225.728 15.504C224.923 15.974 224.225 16.63 223.782 17.45ZM207.782 81.45C207.32 80.65 206.643 79.952 205.828 79.504C206.652 79.0517 207.329 78.3743 207.782 77.551C208.225 78.343 208.943 79.047 209.728 79.504C208.923 79.974 208.225 80.63 207.782 81.45ZM223.782 81.45C223.32 80.65 222.643 79.952 221.828 79.504C222.652 79.0517 223.329 78.3743 223.782 77.551C224.225 78.343 224.943 79.047 225.728 79.504C224.923 79.974 224.225 80.63 223.782 81.45ZM207.782 97.45C207.32 96.65 206.643 95.952 205.828 95.504C206.652 95.0517 207.329 94.3743 207.782 93.551C208.225 94.343 208.943 95.047 209.728 95.504C208.923 95.974 208.225 96.63 207.782 97.45ZM223.782 97.45C223.32 96.65 222.643 95.952 221.828 95.504C222.652 95.0517 223.329 94.3743 223.782 93.551C224.225 94.343 224.943 95.047 225.728 95.504C224.923 95.974 224.225 96.63 223.782 97.45ZM207.782 113.451C207.32 112.649 206.643 111.952 205.828 111.504C206.652 111.052 207.329 110.374 207.782 109.551C208.225 110.343 208.943 111.047 209.728 111.504C208.923 111.974 208.225 112.631 207.782 113.451ZM223.782 113.451C223.32 112.649 222.643 111.952 221.828 111.504C222.652 111.052 223.329 110.374 223.782 109.551C224.225 110.343 224.943 111.047 225.728 111.504C224.923 111.974 224.225 112.631 223.782 113.451ZM175.782 129.451C175.32 128.649 174.643 127.952 173.828 127.504C174.652 127.052 175.329 126.374 175.782 125.551C176.225 126.343 176.943 127.047 177.728 127.504C176.923 127.974 176.225 128.631 175.782 129.451ZM157.827 191.505C158.628 191.043 159.326 190.366 159.773 189.551C160.226 190.375 160.903 191.052 161.727 191.505C160.934 191.947 160.231 192.666 159.773 193.451C159.303 192.645 158.647 191.947 157.827 191.505ZM125.827 191.505C126.628 191.043 127.326 190.366 127.773 189.551C128.226 190.375 128.903 191.052 129.727 191.505C128.934 191.947 128.231 192.666 127.773 193.451C127.303 192.645 126.647 191.947 125.827 191.505ZM93.827 191.505C94.628 191.043 95.326 190.366 95.773 189.551C96.2255 190.375 96.9033 191.053 97.727 191.505C96.934 191.947 96.231 192.666 95.773 193.451C95.303 192.645 94.647 191.947 93.827 191.505ZM205.827 207.505C206.628 207.043 207.326 206.366 207.773 205.551C208.226 206.375 208.903 207.052 209.727 207.505C208.934 207.947 208.231 208.666 207.773 209.451C207.303 208.645 206.647 207.947 205.827 207.505ZM221.827 207.505C222.628 207.043 223.326 206.366 223.773 205.551C224.226 206.375 224.903 207.052 225.727 207.505C224.934 207.947 224.231 208.666 223.773 209.451C223.303 208.645 222.647 207.947 221.827 207.505ZM189.827 207.505C190.628 207.043 191.326 206.366 191.773 205.551C192.226 206.375 192.903 207.052 193.727 207.505C192.934 207.947 192.231 208.666 191.773 209.451C191.303 208.645 190.647 207.947 189.827 207.505ZM173.827 207.505C174.628 207.043 175.326 206.366 175.773 205.551C176.226 206.375 176.903 207.052 177.727 207.505C176.934 207.947 176.231 208.666 175.773 209.451C175.303 208.645 174.647 207.947 173.827 207.505ZM109.827 207.505C110.628 207.043 111.326 206.366 111.773 205.551C112.226 206.375 112.903 207.052 113.727 207.505C112.934 207.947 112.231 208.666 111.773 209.451C111.303 208.645 110.647 207.947 109.827 207.505ZM205.827 223.505C206.628 223.043 207.326 222.366 207.773 221.551C208.226 222.375 208.903 223.052 209.727 223.505C208.934 223.947 208.231 224.666 207.773 225.451C207.303 224.645 206.647 223.947 205.827 223.505ZM221.827 223.505C222.628 223.043 223.326 222.366 223.773 221.551C224.226 222.375 224.903 223.052 225.727 223.505C224.934 223.947 224.231 224.666 223.773 225.451C223.303 224.645 222.647 223.947 221.827 223.505ZM189.827 223.505C190.628 223.043 191.326 222.366 191.773 221.551C192.226 222.375 192.903 223.052 193.727 223.505C192.934 223.947 192.231 224.666 191.773 225.451C191.303 224.645 190.647 223.947 189.827 223.505ZM173.827 223.505C174.628 223.043 175.326 222.366 175.773 221.551C176.226 222.375 176.903 223.052 177.727 223.505C176.934 223.947 176.231 224.666 175.773 225.451C175.303 224.645 174.647 223.947 173.827 223.505ZM157.827 223.505C158.628 223.043 159.326 222.366 159.773 221.551C160.226 222.375 160.903 223.052 161.727 223.505C160.934 223.947 160.231 224.666 159.773 225.451C159.303 224.645 158.647 223.947 157.827 223.505ZM125.827 223.505C126.628 223.043 127.326 222.366 127.773 221.551C128.226 222.375 128.903 223.052 129.727 223.505C128.934 223.947 128.231 224.666 127.773 225.451C127.303 224.645 126.647 223.947 125.827 223.505ZM205.827 239.505C206.628 239.043 207.326 238.366 207.773 237.551C208.226 238.375 208.903 239.052 209.727 239.505C208.934 239.947 208.231 240.666 207.773 241.451C207.303 240.645 206.647 239.947 205.827 239.505ZM221.827 239.505C222.628 239.043 223.326 238.366 223.773 237.551C224.226 238.375 224.903 239.052 225.727 239.505C224.934 239.947 224.231 240.666 223.773 241.451C223.303 240.645 222.647 239.947 221.827 239.505ZM189.827 239.505C190.628 239.043 191.326 238.366 191.773 237.551C192.226 238.375 192.903 239.052 193.727 239.505C192.934 239.947 192.231 240.666 191.773 241.451C191.303 240.645 190.647 239.947 189.827 239.505ZM173.827 239.505C174.628 239.043 175.326 238.366 175.773 237.551C176.226 238.375 176.903 239.052 177.727 239.505C176.934 239.947 176.231 240.666 175.773 241.451C175.303 240.645 174.647 239.947 173.827 239.505ZM157.827 239.505C158.628 239.043 159.326 238.366 159.773 237.551C160.226 238.375 160.903 239.052 161.727 239.505C160.934 239.947 160.231 240.666 159.773 241.451C159.303 240.645 158.647 239.947 157.827 239.505ZM141.827 239.505C142.628 239.043 143.326 238.366 143.773 237.551C144.226 238.375 144.903 239.052 145.727 239.505C144.934 239.947 144.231 240.666 143.773 241.451C143.303 240.645 142.647 239.947 141.827 239.505ZM205.827 255.505C206.628 255.043 207.326 254.366 207.773 253.551C208.226 254.375 208.903 255.052 209.727 255.505C208.934 255.947 208.231 256.666 207.773 257.451C207.303 256.645 206.647 255.947 205.827 255.505ZM221.827 255.505C222.628 255.043 223.326 254.366 223.773 253.551C224.226 254.375 224.903 255.052 225.727 255.505C224.934 255.947 224.231 256.666 223.773 257.451C223.303 256.645 222.647 255.947 221.827 255.505ZM189.827 255.505C190.628 255.043 191.326 254.366 191.773 253.551C192.226 254.375 192.903 255.052 193.727 255.505C192.934 255.947 192.231 256.666 191.773 257.451C191.303 256.645 190.647 255.947 189.827 255.505ZM173.827 255.505C174.628 255.043 175.326 254.366 175.773 253.551C176.226 254.375 176.903 255.052 177.727 255.505C176.934 255.947 176.231 256.666 175.773 257.451C175.303 256.645 174.647 255.947 173.827 255.505ZM157.827 255.505C158.628 255.043 159.326 254.366 159.773 253.551C160.226 254.375 160.903 255.052 161.727 255.505C160.934 255.947 160.231 256.666 159.773 257.451C159.303 256.645 158.647 255.947 157.827 255.505ZM125.827 255.505C126.628 255.043 127.326 254.366 127.773 253.551C128.226 254.375 128.903 255.052 129.727 255.505C128.934 255.947 128.231 256.666 127.773 257.451C127.303 256.645 126.647 255.947 125.827 255.505ZM205.827 271.505C206.628 271.043 207.326 270.366 207.773 269.551C208.226 270.375 208.903 271.052 209.727 271.505C208.934 271.947 208.231 272.666 207.773 273.451C207.303 272.645 206.647 271.947 205.827 271.505ZM221.827 271.505C222.628 271.043 223.326 270.366 223.773 269.551C224.226 270.375 224.903 271.052 225.727 271.505C224.934 271.947 224.231 272.666 223.773 273.451C223.303 272.645 222.647 271.947 221.827 271.505ZM189.827 271.505C190.628 271.043 191.326 270.366 191.773 269.551C192.226 270.375 192.903 271.052 193.727 271.505C192.934 271.947 192.231 272.666 191.773 273.451C191.303 272.645 190.647 271.947 189.827 271.505ZM173.827 271.505C174.628 271.043 175.326 270.366 175.773 269.551C176.226 270.375 176.903 271.052 177.727 271.505C176.934 271.947 176.231 272.666 175.773 273.451C175.303 272.645 174.647 271.947 173.827 271.505ZM109.827 271.505C110.628 271.043 111.326 270.366 111.773 269.551C112.226 270.375 112.903 271.052 113.727 271.505C112.934 271.947 112.231 272.666 111.773 273.451C111.303 272.645 110.647 271.947 109.827 271.505ZM189.827 287.505C190.628 287.043 191.326 286.366 191.773 285.551C192.226 286.375 192.903 287.052 193.727 287.505C192.934 287.947 192.231 288.666 191.773 289.451C191.303 288.645 190.647 287.947 189.827 287.505ZM173.827 287.505C174.628 287.043 175.326 286.366 175.773 285.551C176.226 286.375 176.903 287.052 177.727 287.505C176.934 287.947 176.231 288.666 175.773 289.451C175.303 288.645 174.647 287.947 173.827 287.505ZM173.827 303.505C174.628 303.043 175.326 302.366 175.773 301.551C176.226 302.375 176.903 303.052 177.727 303.505C176.934 303.947 176.231 304.666 175.773 305.451C175.303 304.645 174.647 303.947 173.827 303.505Z" fill="var(--fill-0, #1E1E1E)"/>
</g>
<defs>
<clipPath id="clip0_0_93">
<rect width="226" height="543" fill="white"/>
</clipPath>
</defs>
</svg>
