<svg preserveAspectRatio="none" width="100%" height="100%" overflow="visible" style="display: block;" viewBox="0 0 400 416" fill="none" xmlns="http://www.w3.org/2000/svg">
<g id="svg468622505_28238" clip-path="url(#clip0_0_41)">
<path id="Vector" d="M111.098 228.332C111.098 227.404 110.729 226.514 110.073 225.857C109.416 225.201 108.526 224.832 107.598 224.832H99.598C98.6697 224.832 97.7795 225.201 97.1231 225.857C96.4667 226.514 96.098 227.404 96.098 228.332V236.332C96.098 237.26 96.4667 238.15 97.1231 238.807C97.7795 239.463 98.6697 239.832 99.598 239.832H107.598C108.526 239.832 109.416 239.463 110.073 238.807C110.729 238.15 111.098 237.26 111.098 236.332V228.332ZM15.098 260.332C15.098 259.404 14.7293 258.513 14.0729 257.857C13.4165 257.201 12.5263 256.832 11.598 256.832H3.598C2.66974 256.832 1.7795 257.201 1.12313 257.857C0.466749 258.513 0.098 259.404 0.098 260.332V268.332C0.098 269.26 0.466749 270.151 1.12313 270.807C1.7795 271.463 2.66974 271.832 3.598 271.832H11.598C12.5263 271.832 13.4165 271.463 14.0729 270.807C14.7293 270.151 15.098 269.26 15.098 268.332V260.332ZM111.098 244.332C111.098 243.404 110.729 242.514 110.073 241.857C109.416 241.201 108.526 240.832 107.598 240.832H99.598C98.6697 240.832 97.7795 241.201 97.1231 241.857C96.4667 242.514 96.098 243.404 96.098 244.332V252.332C96.098 253.26 96.4667 254.15 97.1231 254.807C97.7795 255.463 98.6697 255.832 99.598 255.832H107.598C108.526 255.832 109.416 255.463 110.073 254.807C110.729 254.15 111.098 253.26 111.098 252.332V244.332ZM15.098 276.332C15.098 275.404 14.7293 274.513 14.0729 273.857C13.4165 273.201 12.5263 272.832 11.598 272.832H3.598C2.66974 272.832 1.7795 273.201 1.12313 273.857C0.466749 274.513 0.098 275.404 0.098 276.332V284.332C0.098 285.26 0.466749 286.151 1.12313 286.807C1.7795 287.463 2.66974 287.832 3.598 287.832H11.598C12.5263 287.832 13.4165 287.463 14.0729 286.807C14.7293 286.151 15.098 285.26 15.098 284.332V276.332ZM111.098 324.332C111.098 323.404 110.729 322.513 110.073 321.857C109.416 321.201 108.526 320.832 107.598 320.832H99.598C98.6697 320.832 97.7795 321.201 97.1231 321.857C96.4667 322.513 96.098 323.404 96.098 324.332V332.332C96.098 333.26 96.4667 334.151 97.1231 334.807C97.7795 335.463 98.6697 335.832 99.598 335.832H107.598C108.526 335.832 109.416 335.463 110.073 334.807C110.729 334.151 111.098 333.26 111.098 332.332V324.332ZM111.098 340.332C111.098 339.404 110.729 338.513 110.073 337.857C109.416 337.201 108.526 336.832 107.598 336.832H99.598C98.6697 336.832 97.7795 337.201 97.1231 337.857C96.4667 338.513 96.098 339.404 96.098 340.332V348.332C96.098 349.26 96.4667 350.151 97.1231 350.807C97.7795 351.463 98.6697 351.832 99.598 351.832H107.598C108.526 351.832 109.416 351.463 110.073 350.807C110.729 350.151 111.098 349.26 111.098 348.332V340.332ZM111.098 356.332C111.098 355.404 110.729 354.513 110.073 353.857C109.416 353.201 108.526 352.832 107.598 352.832H99.598C98.6697 352.832 97.7795 353.201 97.1231 353.857C96.4667 354.513 96.098 355.404 96.098 356.332V364.332C96.098 365.26 96.4667 366.151 97.1231 366.807C97.7795 367.463 98.6697 367.832 99.598 367.832H107.598C108.526 367.832 109.416 367.463 110.073 366.807C110.729 366.151 111.098 365.26 111.098 364.332V356.332ZM111.098 372.332C111.098 371.404 110.729 370.513 110.073 369.857C109.416 369.201 108.526 368.832 107.598 368.832H99.598C98.6697 368.832 97.7795 369.201 97.1231 369.857C96.4667 370.513 96.098 371.404 96.098 372.332V380.332C96.098 381.26 96.4667 382.151 97.1231 382.807C97.7795 383.463 98.6697 383.832 99.598 383.832H107.598C108.526 383.832 109.416 383.463 110.073 382.807C110.729 382.151 111.098 381.26 111.098 380.332V372.332ZM127.098 228.332C127.098 227.404 126.729 226.514 126.073 225.857C125.416 225.201 124.526 224.832 123.598 224.832H115.598C114.67 224.832 113.78 225.201 113.123 225.857C112.467 226.514 112.098 227.404 112.098 228.332V236.332C112.098 237.26 112.467 238.15 113.123 238.807C113.78 239.463 114.67 239.832 115.598 239.832H123.598C124.526 239.832 125.416 239.463 126.073 238.807C126.729 238.15 127.098 237.26 127.098 236.332V228.332ZM31.098 260.332C31.098 259.404 30.7293 258.513 30.0729 257.857C29.4165 257.201 28.5263 256.832 27.598 256.832H19.598C18.6697 256.832 17.7795 257.201 17.1231 257.857C16.4668 258.513 16.098 259.404 16.098 260.332V268.332C16.098 269.26 16.4668 270.151 17.1231 270.807C17.7795 271.463 18.6697 271.832 19.598 271.832H27.598C28.5263 271.832 29.4165 271.463 30.0729 270.807C30.7293 270.151 31.098 269.26 31.098 268.332V260.332ZM127.098 244.332C127.098 243.404 126.729 242.514 126.073 241.857C125.416 241.201 124.526 240.832 123.598 240.832H115.598C114.67 240.832 113.78 241.201 113.123 241.857C112.467 242.514 112.098 243.404 112.098 244.332V252.332C112.098 253.26 112.467 254.15 113.123 254.807C113.78 255.463 114.67 255.832 115.598 255.832H123.598C124.526 255.832 125.416 255.463 126.073 254.807C126.729 254.15 127.098 253.26 127.098 252.332V244.332ZM31.098 276.332C31.098 275.404 30.7293 274.513 30.0729 273.857C29.4165 273.201 28.5263 272.832 27.598 272.832H19.598C18.6697 272.832 17.7795 273.201 17.1231 273.857C16.4668 274.513 16.098 275.404 16.098 276.332V284.332C16.098 285.26 16.4668 286.151 17.1231 286.807C17.7795 287.463 18.6697 287.832 19.598 287.832H27.598C28.5263 287.832 29.4165 287.463 30.0729 286.807C30.7293 286.151 31.098 285.26 31.098 284.332V276.332ZM127.098 324.332C127.098 323.404 126.729 322.513 126.073 321.857C125.416 321.201 124.526 320.832 123.598 320.832H115.598C114.67 320.832 113.78 321.201 113.123 321.857C112.467 322.513 112.098 323.404 112.098 324.332V332.332C112.098 333.26 112.467 334.151 113.123 334.807C113.78 335.463 114.67 335.832 115.598 335.832H123.598C124.526 335.832 125.416 335.463 126.073 334.807C126.729 334.151 127.098 333.26 127.098 332.332V324.332ZM127.098 340.332C127.098 339.404 126.729 338.513 126.073 337.857C125.416 337.201 124.526 336.832 123.598 336.832H115.598C114.67 336.832 113.78 337.201 113.123 337.857C112.467 338.513 112.098 339.404 112.098 340.332V348.332C112.098 349.26 112.467 350.151 113.123 350.807C113.78 351.463 114.67 351.832 115.598 351.832H123.598C124.526 351.832 125.416 351.463 126.073 350.807C126.729 350.151 127.098 349.26 127.098 348.332V340.332ZM127.098 356.332C127.098 355.404 126.729 354.513 126.073 353.857C125.416 353.201 124.526 352.832 123.598 352.832H115.598C114.67 352.832 113.78 353.201 113.123 353.857C112.467 354.513 112.098 355.404 112.098 356.332V364.332C112.098 365.26 112.467 366.151 113.123 366.807C113.78 367.463 114.67 367.832 115.598 367.832H123.598C124.526 367.832 125.416 367.463 126.073 366.807C126.729 366.151 127.098 365.26 127.098 364.332V356.332ZM127.098 372.332C127.098 371.404 126.729 370.513 126.073 369.857C125.416 369.201 124.526 368.832 123.598 368.832H115.598C114.67 368.832 113.78 369.201 113.123 369.857C112.467 370.513 112.098 371.404 112.098 372.332V380.332C112.098 381.26 112.467 382.151 113.123 382.807C113.78 383.463 114.67 383.832 115.598 383.832H123.598C124.526 383.832 125.416 383.463 126.073 382.807C126.729 382.151 127.098 381.26 127.098 380.332V372.332ZM143.098 292.332C143.098 291.404 142.729 290.513 142.073 289.857C141.416 289.201 140.526 288.832 139.598 288.832H131.598C130.67 288.832 129.779 289.201 129.123 289.857C128.467 290.513 128.098 291.404 128.098 292.332V300.332C128.098 301.26 128.467 302.151 129.123 302.807C129.779 303.463 130.67 303.832 131.598 303.832H139.598C140.526 303.832 141.416 303.463 142.073 302.807C142.729 302.151 143.098 301.26 143.098 300.332V292.332ZM143.098 308.332C143.098 307.404 142.729 306.513 142.073 305.857C141.416 305.201 140.526 304.832 139.598 304.832H131.598C130.67 304.832 129.779 305.201 129.123 305.857C128.467 306.513 128.098 307.404 128.098 308.332V316.332C128.098 317.26 128.467 318.151 129.123 318.807C129.779 319.463 130.67 319.832 131.598 319.832H139.598C140.526 319.832 141.416 319.463 142.073 318.807C142.729 318.151 143.098 317.26 143.098 316.332V308.332ZM143.098 356.332C143.098 355.404 142.729 354.513 142.073 353.857C141.416 353.201 140.526 352.832 139.598 352.832H131.598C130.67 352.832 129.779 353.201 129.123 353.857C128.467 354.513 128.098 355.404 128.098 356.332V364.332C128.098 365.26 128.467 366.151 129.123 366.807C129.779 367.463 130.67 367.832 131.598 367.832H139.598C140.526 367.832 141.416 367.463 142.073 366.807C142.729 366.151 143.098 365.26 143.098 364.332V356.332ZM143.098 372.332C143.098 371.404 142.729 370.513 142.073 369.857C141.416 369.201 140.526 368.832 139.598 368.832H131.598C130.67 368.832 129.779 369.201 129.123 369.857C128.467 370.513 128.098 371.404 128.098 372.332V380.332C128.098 381.26 128.467 382.151 129.123 382.807C129.779 383.463 130.67 383.832 131.598 383.832H139.598C140.526 383.832 141.416 383.463 142.073 382.807C142.729 382.151 143.098 381.26 143.098 380.332V372.332ZM143.098 388.332C143.098 387.404 142.729 386.513 142.073 385.857C141.416 385.201 140.526 384.832 139.598 384.832H131.598C130.67 384.832 129.779 385.201 129.123 385.857C128.467 386.513 128.098 387.404 128.098 388.332V396.332C128.098 397.26 128.467 398.151 129.123 398.807C129.779 399.463 130.67 399.832 131.598 399.832H139.598C140.526 399.832 141.416 399.463 142.073 398.807C142.729 398.151 143.098 397.26 143.098 396.332V388.332ZM143.098 404.332C143.098 403.404 142.729 402.513 142.073 401.857C141.416 401.201 140.526 400.832 139.598 400.832H131.598C130.67 400.832 129.779 401.201 129.123 401.857C128.467 402.513 128.098 403.404 128.098 404.332V412.332C128.098 413.26 128.467 414.151 129.123 414.807C129.779 415.463 130.67 415.832 131.598 415.832H139.598C140.526 415.832 141.416 415.463 142.073 414.807C142.729 414.151 143.098 413.26 143.098 412.332V404.332ZM159.098 292.332C159.098 291.404 158.729 290.513 158.073 289.857C157.416 289.201 156.526 288.832 155.598 288.832H147.598C146.67 288.832 145.779 289.201 145.123 289.857C144.467 290.513 144.098 291.404 144.098 292.332V300.332C144.098 301.26 144.467 302.151 145.123 302.807C145.779 303.463 146.67 303.832 147.598 303.832H155.598C156.526 303.832 157.416 303.463 158.073 302.807C158.729 302.151 159.098 301.26 159.098 300.332V292.332ZM159.098 308.332C159.098 307.404 158.729 306.513 158.073 305.857C157.416 305.201 156.526 304.832 155.598 304.832H147.598C146.67 304.832 145.779 305.201 145.123 305.857C144.467 306.513 144.098 307.404 144.098 308.332V316.332C144.098 317.26 144.467 318.151 145.123 318.807C145.779 319.463 146.67 319.832 147.598 319.832H155.598C156.526 319.832 157.416 319.463 158.073 318.807C158.729 318.151 159.098 317.26 159.098 316.332V308.332ZM159.098 356.332C159.098 355.404 158.729 354.513 158.073 353.857C157.416 353.201 156.526 352.832 155.598 352.832H147.598C146.67 352.832 145.779 353.201 145.123 353.857C144.467 354.513 144.098 355.404 144.098 356.332V364.332C144.098 365.26 144.467 366.151 145.123 366.807C145.779 367.463 146.67 367.832 147.598 367.832H155.598C156.526 367.832 157.416 367.463 158.073 366.807C158.729 366.151 159.098 365.26 159.098 364.332V356.332ZM159.098 372.332C159.098 371.404 158.729 370.513 158.073 369.857C157.416 369.201 156.526 368.832 155.598 368.832H147.598C146.67 368.832 145.779 369.201 145.123 369.857C144.467 370.513 144.098 371.404 144.098 372.332V380.332C144.098 381.26 144.467 382.151 145.123 382.807C145.779 383.463 146.67 383.832 147.598 383.832H155.598C156.526 383.832 157.416 383.463 158.073 382.807C158.729 382.151 159.098 381.26 159.098 380.332V372.332ZM159.098 388.332C159.098 387.404 158.729 386.513 158.073 385.857C157.416 385.201 156.526 384.832 155.598 384.832H147.598C146.67 384.832 145.779 385.201 145.123 385.857C144.467 386.513 144.098 387.404 144.098 388.332V396.332C144.098 397.26 144.467 398.151 145.123 398.807C145.779 399.463 146.67 399.832 147.598 399.832H155.598C156.526 399.832 157.416 399.463 158.073 398.807C158.729 398.151 159.098 397.26 159.098 396.332V388.332ZM159.098 404.332C159.098 403.404 158.729 402.513 158.073 401.857C157.416 401.201 156.526 400.832 155.598 400.832H147.598C146.67 400.832 145.779 401.201 145.123 401.857C144.467 402.513 144.098 403.404 144.098 404.332V412.332C144.098 413.26 144.467 414.151 145.123 414.807C145.779 415.463 146.67 415.832 147.598 415.832H155.598C156.526 415.832 157.416 415.463 158.073 414.807C158.729 414.151 159.098 413.26 159.098 412.332V404.332ZM175.098 228.332C175.098 227.404 174.729 226.514 174.073 225.857C173.416 225.201 172.526 224.832 171.598 224.832H163.598C162.67 224.832 161.779 225.201 161.123 225.857C160.467 226.514 160.098 227.404 160.098 228.332V236.332C160.098 237.26 160.467 238.15 161.123 238.807C161.779 239.463 162.67 239.832 163.598 239.832H171.598C172.526 239.832 173.416 239.463 174.073 238.807C174.729 238.15 175.098 237.26 175.098 236.332V228.332ZM175.098 244.332C175.098 243.404 174.729 242.514 174.073 241.857C173.416 241.201 172.526 240.832 171.598 240.832H163.598C162.67 240.832 161.779 241.201 161.123 241.857C160.467 242.514 160.098 243.404 160.098 244.332V252.332C160.098 253.26 160.467 254.15 161.123 254.807C161.779 255.463 162.67 255.832 163.598 255.832H171.598C172.526 255.832 173.416 255.463 174.073 254.807C174.729 254.15 175.098 253.26 175.098 252.332V244.332ZM175.098 260.332C175.098 259.404 174.729 258.513 174.073 257.857C173.416 257.201 172.526 256.832 171.598 256.832H163.598C162.67 256.832 161.779 257.201 161.123 257.857C160.467 258.513 160.098 259.404 160.098 260.332V268.332C160.098 269.26 160.467 270.151 161.123 270.807C161.779 271.463 162.67 271.832 163.598 271.832H171.598C172.526 271.832 173.416 271.463 174.073 270.807C174.729 270.151 175.098 269.26 175.098 268.332V260.332ZM175.098 276.332C175.098 275.404 174.729 274.513 174.073 273.857C173.416 273.201 172.526 272.832 171.598 272.832H163.598C162.67 272.832 161.779 273.201 161.123 273.857C160.467 274.513 160.098 275.404 160.098 276.332V284.332C160.098 285.26 160.467 286.151 161.123 286.807C161.779 287.463 162.67 287.832 163.598 287.832H171.598C172.526 287.832 173.416 287.463 174.073 286.807C174.729 286.151 175.098 285.26 175.098 284.332V276.332ZM175.098 324.332C175.098 323.404 174.729 322.513 174.073 321.857C173.416 321.201 172.526 320.832 171.598 320.832H163.598C162.67 320.832 161.779 321.201 161.123 321.857C160.467 322.513 160.098 323.404 160.098 324.332V332.332C160.098 333.26 160.467 334.151 161.123 334.807C161.779 335.463 162.67 335.832 163.598 335.832H171.598C172.526 335.832 173.416 335.463 174.073 334.807C174.729 334.151 175.098 333.26 175.098 332.332V324.332ZM175.098 340.332C175.098 339.404 174.729 338.513 174.073 337.857C173.416 337.201 172.526 336.832 171.598 336.832H163.598C162.67 336.832 161.779 337.201 161.123 337.857C160.467 338.513 160.098 339.404 160.098 340.332V348.332C160.098 349.26 160.467 350.151 161.123 350.807C161.779 351.463 162.67 351.832 163.598 351.832H171.598C172.526 351.832 173.416 351.463 174.073 350.807C174.729 350.151 175.098 349.26 175.098 348.332V340.332ZM191.098 228.332C191.098 227.404 190.729 226.514 190.073 225.857C189.416 225.201 188.526 224.832 187.598 224.832H179.598C178.67 224.832 177.779 225.201 177.123 225.857C176.467 226.514 176.098 227.404 176.098 228.332V236.332C176.098 237.26 176.467 238.15 177.123 238.807C177.779 239.463 178.67 239.832 179.598 239.832H187.598C188.526 239.832 189.416 239.463 190.073 238.807C190.729 238.15 191.098 237.26 191.098 236.332V228.332ZM191.098 244.332C191.098 243.404 190.729 242.514 190.073 241.857C189.416 241.201 188.526 240.832 187.598 240.832H179.598C178.67 240.832 177.779 241.201 177.123 241.857C176.467 242.514 176.098 243.404 176.098 244.332V252.332C176.098 253.26 176.467 254.15 177.123 254.807C177.779 255.463 178.67 255.832 179.598 255.832H187.598C188.526 255.832 189.416 255.463 190.073 254.807C190.729 254.15 191.098 253.26 191.098 252.332V244.332ZM191.098 260.332C191.098 259.404 190.729 258.513 190.073 257.857C189.416 257.201 188.526 256.832 187.598 256.832H179.598C178.67 256.832 177.779 257.201 177.123 257.857C176.467 258.513 176.098 259.404 176.098 260.332V268.332C176.098 269.26 176.467 270.151 177.123 270.807C177.779 271.463 178.67 271.832 179.598 271.832H187.598C188.526 271.832 189.416 271.463 190.073 270.807C190.729 270.151 191.098 269.26 191.098 268.332V260.332ZM191.098 276.332C191.098 275.404 190.729 274.513 190.073 273.857C189.416 273.201 188.526 272.832 187.598 272.832H179.598C178.67 272.832 177.779 273.201 177.123 273.857C176.467 274.513 176.098 275.404 176.098 276.332V284.332C176.098 285.26 176.467 286.151 177.123 286.807C177.779 287.463 178.67 287.832 179.598 287.832H187.598C188.526 287.832 189.416 287.463 190.073 286.807C190.729 286.151 191.098 285.26 191.098 284.332V276.332ZM191.098 324.332C191.098 323.404 190.729 322.513 190.073 321.857C189.416 321.201 188.526 320.832 187.598 320.832H179.598C178.67 320.832 177.779 321.201 177.123 321.857C176.467 322.513 176.098 323.404 176.098 324.332V332.332C176.098 333.26 176.467 334.151 177.123 334.807C177.779 335.463 178.67 335.832 179.598 335.832H187.598C188.526 335.832 189.416 335.463 190.073 334.807C190.729 334.151 191.098 333.26 191.098 332.332V324.332ZM191.098 340.332C191.098 339.404 190.729 338.513 190.073 337.857C189.416 337.201 188.526 336.832 187.598 336.832H179.598C178.67 336.832 177.779 337.201 177.123 337.857C176.467 338.513 176.098 339.404 176.098 340.332V348.332C176.098 349.26 176.467 350.151 177.123 350.807C177.779 351.463 178.67 351.832 179.598 351.832H187.598C188.526 351.832 189.416 351.463 190.073 350.807C190.729 350.151 191.098 349.26 191.098 348.332V340.332ZM207.098 228.332C207.098 227.404 206.729 226.514 206.073 225.857C205.416 225.201 204.526 224.832 203.598 224.832H195.598C194.67 224.832 193.779 225.201 193.123 225.857C192.467 226.514 192.098 227.404 192.098 228.332V236.332C192.098 237.26 192.467 238.15 193.123 238.807C193.779 239.463 194.67 239.832 195.598 239.832H203.598C204.526 239.832 205.416 239.463 206.073 238.807C206.729 238.15 207.098 237.26 207.098 236.332V228.332ZM207.098 244.332C207.098 243.404 206.729 242.514 206.073 241.857C205.416 241.201 204.526 240.832 203.598 240.832H195.598C194.67 240.832 193.779 241.201 193.123 241.857C192.467 242.514 192.098 243.404 192.098 244.332V252.332C192.098 253.26 192.467 254.15 193.123 254.807C193.779 255.463 194.67 255.832 195.598 255.832H203.598C204.526 255.832 205.416 255.463 206.073 254.807C206.729 254.15 207.098 253.26 207.098 252.332V244.332ZM207.098 260.332C207.098 259.404 206.729 258.513 206.073 257.857C205.416 257.201 204.526 256.832 203.598 256.832H195.598C194.67 256.832 193.779 257.201 193.123 257.857C192.467 258.513 192.098 259.404 192.098 260.332V268.332C192.098 269.26 192.467 270.151 193.123 270.807C193.779 271.463 194.67 271.832 195.598 271.832H203.598C204.526 271.832 205.416 271.463 206.073 270.807C206.729 270.151 207.098 269.26 207.098 268.332V260.332ZM207.098 276.332C207.098 275.404 206.729 274.513 206.073 273.857C205.416 273.201 204.526 272.832 203.598 272.832H195.598C194.67 272.832 193.779 273.201 193.123 273.857C192.467 274.513 192.098 275.404 192.098 276.332V284.332C192.098 285.26 192.467 286.151 193.123 286.807C193.779 287.463 194.67 287.832 195.598 287.832H203.598C204.526 287.832 205.416 287.463 206.073 286.807C206.729 286.151 207.098 285.26 207.098 284.332V276.332ZM207.098 292.332C207.098 291.404 206.729 290.513 206.073 289.857C205.416 289.201 204.526 288.832 203.598 288.832H195.598C194.67 288.832 193.779 289.201 193.123 289.857C192.467 290.513 192.098 291.404 192.098 292.332V300.332C192.098 301.26 192.467 302.151 193.123 302.807C193.779 303.463 194.67 303.832 195.598 303.832H203.598C204.526 303.832 205.416 303.463 206.073 302.807C206.729 302.151 207.098 301.26 207.098 300.332V292.332ZM207.098 308.332C207.098 307.404 206.729 306.513 206.073 305.857C205.416 305.201 204.526 304.832 203.598 304.832H195.598C194.67 304.832 193.779 305.201 193.123 305.857C192.467 306.513 192.098 307.404 192.098 308.332V316.332C192.098 317.26 192.467 318.151 193.123 318.807C193.779 319.463 194.67 319.832 195.598 319.832H203.598C204.526 319.832 205.416 319.463 206.073 318.807C206.729 318.151 207.098 317.26 207.098 316.332V308.332ZM223.098 228.332C223.098 227.404 222.729 226.514 222.073 225.857C221.416 225.201 220.526 224.832 219.598 224.832H211.598C210.67 224.832 209.779 225.201 209.123 225.857C208.467 226.514 208.098 227.404 208.098 228.332V236.332C208.098 237.26 208.467 238.15 209.123 238.807C209.779 239.463 210.67 239.832 211.598 239.832H219.598C220.526 239.832 221.416 239.463 222.073 238.807C222.729 238.15 223.098 237.26 223.098 236.332V228.332ZM223.098 244.332C223.098 243.404 222.729 242.514 222.073 241.857C221.416 241.201 220.526 240.832 219.598 240.832H211.598C210.67 240.832 209.779 241.201 209.123 241.857C208.467 242.514 208.098 243.404 208.098 244.332V252.332C208.098 253.26 208.467 254.15 209.123 254.807C209.779 255.463 210.67 255.832 211.598 255.832H219.598C220.526 255.832 221.416 255.463 222.073 254.807C222.729 254.15 223.098 253.26 223.098 252.332V244.332ZM223.098 260.332C223.098 259.404 222.729 258.513 222.073 257.857C221.416 257.201 220.526 256.832 219.598 256.832H211.598C210.67 256.832 209.779 257.201 209.123 257.857C208.467 258.513 208.098 259.404 208.098 260.332V268.332C208.098 269.26 208.467 270.151 209.123 270.807C209.779 271.463 210.67 271.832 211.598 271.832H219.598C220.526 271.832 221.416 271.463 222.073 270.807C222.729 270.151 223.098 269.26 223.098 268.332V260.332ZM223.098 276.332C223.098 275.404 222.729 274.513 222.073 273.857C221.416 273.201 220.526 272.832 219.598 272.832H211.598C210.67 272.832 209.779 273.201 209.123 273.857C208.467 274.513 208.098 275.404 208.098 276.332V284.332C208.098 285.26 208.467 286.151 209.123 286.807C209.779 287.463 210.67 287.832 211.598 287.832H219.598C220.526 287.832 221.416 287.463 222.073 286.807C222.729 286.151 223.098 285.26 223.098 284.332V276.332ZM223.098 292.332C223.098 291.404 222.729 290.513 222.073 289.857C221.416 289.201 220.526 288.832 219.598 288.832H211.598C210.67 288.832 209.779 289.201 209.123 289.857C208.467 290.513 208.098 291.404 208.098 292.332V300.332C208.098 301.26 208.467 302.151 209.123 302.807C209.779 303.463 210.67 303.832 211.598 303.832H219.598C220.526 303.832 221.416 303.463 222.073 302.807C222.729 302.151 223.098 301.26 223.098 300.332V292.332ZM223.098 308.332C223.098 307.404 222.729 306.513 222.073 305.857C221.416 305.201 220.526 304.832 219.598 304.832H211.598C210.67 304.832 209.779 305.201 209.123 305.857C208.467 306.513 208.098 307.404 208.098 308.332V316.332C208.098 317.26 208.467 318.151 209.123 318.807C209.779 319.463 210.67 319.832 211.598 319.832H219.598C220.526 319.832 221.416 319.463 222.073 318.807C222.729 318.151 223.098 317.26 223.098 316.332V308.332ZM239.098 228.332C239.098 227.404 238.729 226.514 238.073 225.857C237.416 225.201 236.526 224.832 235.598 224.832H227.598C226.67 224.832 225.779 225.201 225.123 225.857C224.467 226.514 224.098 227.404 224.098 228.332V236.332C224.098 237.26 224.467 238.15 225.123 238.807C225.779 239.463 226.67 239.832 227.598 239.832H235.598C236.526 239.832 237.416 239.463 238.073 238.807C238.729 238.15 239.098 237.26 239.098 236.332V228.332ZM239.098 244.332C239.098 243.404 238.729 242.514 238.073 241.857C237.416 241.201 236.526 240.832 235.598 240.832H227.598C226.67 240.832 225.779 241.201 225.123 241.857C224.467 242.514 224.098 243.404 224.098 244.332V252.332C224.098 253.26 224.467 254.15 225.123 254.807C225.779 255.463 226.67 255.832 227.598 255.832H235.598C236.526 255.832 237.416 255.463 238.073 254.807C238.729 254.15 239.098 253.26 239.098 252.332V244.332ZM239.098 260.332C239.098 259.404 238.729 258.513 238.073 257.857C237.416 257.201 236.526 256.832 235.598 256.832H227.598C226.67 256.832 225.779 257.201 225.123 257.857C224.467 258.513 224.098 259.404 224.098 260.332V268.332C224.098 269.26 224.467 270.151 225.123 270.807C225.779 271.463 226.67 271.832 227.598 271.832H235.598C236.526 271.832 237.416 271.463 238.073 270.807C238.729 270.151 239.098 269.26 239.098 268.332V260.332ZM239.098 276.332C239.098 275.404 238.729 274.513 238.073 273.857C237.416 273.201 236.526 272.832 235.598 272.832H227.598C226.67 272.832 225.779 273.201 225.123 273.857C224.467 274.513 224.098 275.404 224.098 276.332V284.332C224.098 285.26 224.467 286.151 225.123 286.807C225.779 287.463 226.67 287.832 227.598 287.832H235.598C236.526 287.832 237.416 287.463 238.073 286.807C238.729 286.151 239.098 285.26 239.098 284.332V276.332ZM239.098 324.332C239.098 323.404 238.729 322.513 238.073 321.857C237.416 321.201 236.526 320.832 235.598 320.832H227.598C226.67 320.832 225.779 321.201 225.123 321.857C224.467 322.513 224.098 323.404 224.098 324.332V332.332C224.098 333.26 224.467 334.151 225.123 334.807C225.779 335.463 226.67 335.832 227.598 335.832H235.598C236.526 335.832 237.416 335.463 238.073 334.807C238.729 334.151 239.098 333.26 239.098 332.332V324.332ZM239.098 340.332C239.098 339.404 238.729 338.513 238.073 337.857C237.416 337.201 236.526 336.832 235.598 336.832H227.598C226.67 336.832 225.779 337.201 225.123 337.857C224.467 338.513 224.098 339.404 224.098 340.332V348.332C224.098 349.26 224.467 350.151 225.123 350.807C225.779 351.463 226.67 351.832 227.598 351.832H235.598C236.526 351.832 237.416 351.463 238.073 350.807C238.729 350.151 239.098 349.26 239.098 348.332V340.332ZM255.098 228.332C255.098 227.404 254.729 226.514 254.073 225.857C253.416 225.201 252.526 224.832 251.598 224.832H243.598C242.67 224.832 241.779 225.201 241.123 225.857C240.467 226.514 240.098 227.404 240.098 228.332V236.332C240.098 237.26 240.467 238.15 241.123 238.807C241.779 239.463 242.67 239.832 243.598 239.832H251.598C252.526 239.832 253.416 239.463 254.073 238.807C254.729 238.15 255.098 237.26 255.098 236.332V228.332ZM255.098 244.332C255.098 243.404 254.729 242.514 254.073 241.857C253.416 241.201 252.526 240.832 251.598 240.832H243.598C242.67 240.832 241.779 241.201 241.123 241.857C240.467 242.514 240.098 243.404 240.098 244.332V252.332C240.098 253.26 240.467 254.15 241.123 254.807C241.779 255.463 242.67 255.832 243.598 255.832H251.598C252.526 255.832 253.416 255.463 254.073 254.807C254.729 254.15 255.098 253.26 255.098 252.332V244.332ZM255.098 260.332C255.098 259.404 254.729 258.513 254.073 257.857C253.416 257.201 252.526 256.832 251.598 256.832H243.598C242.67 256.832 241.779 257.201 241.123 257.857C240.467 258.513 240.098 259.404 240.098 260.332V268.332C240.098 269.26 240.467 270.151 241.123 270.807C241.779 271.463 242.67 271.832 243.598 271.832H251.598C252.526 271.832 253.416 271.463 254.073 270.807C254.729 270.151 255.098 269.26 255.098 268.332V260.332ZM255.098 276.332C255.098 275.404 254.729 274.513 254.073 273.857C253.416 273.201 252.526 272.832 251.598 272.832H243.598C242.67 272.832 241.779 273.201 241.123 273.857C240.467 274.513 240.098 275.404 240.098 276.332V284.332C240.098 285.26 240.467 286.151 241.123 286.807C241.779 287.463 242.67 287.832 243.598 287.832H251.598C252.526 287.832 253.416 287.463 254.073 286.807C254.729 286.151 255.098 285.26 255.098 284.332V276.332ZM255.098 324.332C255.098 323.404 254.729 322.513 254.073 321.857C253.416 321.201 252.526 320.832 251.598 320.832H243.598C242.67 320.832 241.779 321.201 241.123 321.857C240.467 322.513 240.098 323.404 240.098 324.332V332.332C240.098 333.26 240.467 334.151 241.123 334.807C241.779 335.463 242.67 335.832 243.598 335.832H251.598C252.526 335.832 253.416 335.463 254.073 334.807C254.729 334.151 255.098 333.26 255.098 332.332V324.332ZM255.098 340.332C255.098 339.404 254.729 338.513 254.073 337.857C253.416 337.201 252.526 336.832 251.598 336.832H243.598C242.67 336.832 241.779 337.201 241.123 337.857C240.467 338.513 240.098 339.404 240.098 340.332V348.332C240.098 349.26 240.467 350.151 241.123 350.807C241.779 351.463 242.67 351.832 243.598 351.832H251.598C252.526 351.832 253.416 351.463 254.073 350.807C254.729 350.151 255.098 349.26 255.098 348.332V340.332ZM271.098 260.332C271.098 259.404 270.729 258.513 270.073 257.857C269.417 257.201 268.526 256.832 267.598 256.832H259.598C258.67 256.832 257.78 257.201 257.123 257.857C256.467 258.513 256.098 259.404 256.098 260.332V268.332C256.098 269.26 256.467 270.151 257.123 270.807C257.78 271.463 258.67 271.832 259.598 271.832H267.598C268.526 271.832 269.417 271.463 270.073 270.807C270.729 270.151 271.098 269.26 271.098 268.332V260.332ZM271.098 276.332C271.098 275.404 270.729 274.513 270.073 273.857C269.417 273.201 268.526 272.832 267.598 272.832H259.598C258.67 272.832 257.78 273.201 257.123 273.857C256.467 274.513 256.098 275.404 256.098 276.332V284.332C256.098 285.26 256.467 286.151 257.123 286.807C257.78 287.463 258.67 287.832 259.598 287.832H267.598C268.526 287.832 269.417 287.463 270.073 286.807C270.729 286.151 271.098 285.26 271.098 284.332V276.332ZM287.098 260.332C287.098 259.404 286.729 258.513 286.073 257.857C285.417 257.201 284.526 256.832 283.598 256.832H275.598C274.67 256.832 273.78 257.201 273.123 257.857C272.467 258.513 272.098 259.404 272.098 260.332V268.332C272.098 269.26 272.467 270.151 273.123 270.807C273.78 271.463 274.67 271.832 275.598 271.832H283.598C284.526 271.832 285.417 271.463 286.073 270.807C286.729 270.151 287.098 269.26 287.098 268.332V260.332ZM287.098 276.332C287.098 275.404 286.729 274.513 286.073 273.857C285.417 273.201 284.526 272.832 283.598 272.832H275.598C274.67 272.832 273.78 273.201 273.123 273.857C272.467 274.513 272.098 275.404 272.098 276.332V284.332C272.098 285.26 272.467 286.151 273.123 286.807C273.78 287.463 274.67 287.832 275.598 287.832H283.598C284.526 287.832 285.417 287.463 286.073 286.807C286.729 286.151 287.098 285.26 287.098 284.332V276.332ZM111.603 242.283C111.14 241.481 110.463 240.784 109.648 240.336C110.472 239.884 111.15 239.206 111.603 238.383C112.045 239.175 112.763 239.879 113.548 240.336C112.743 240.807 112.045 241.463 111.603 242.283ZM15.603 274.283C15.14 273.481 14.463 272.784 13.648 272.336C14.4719 271.884 15.15 271.206 15.603 270.383C16.045 271.175 16.763 271.879 17.548 272.336C16.743 272.807 16.045 273.463 15.603 274.283ZM111.603 338.283C111.14 337.481 110.463 336.784 109.648 336.337C110.472 335.884 111.15 335.207 111.603 334.383C112.045 335.176 112.763 335.879 113.548 336.337C112.743 336.807 112.045 337.463 111.603 338.283ZM111.603 354.283C111.14 353.481 110.463 352.784 109.648 352.337C110.472 351.884 111.15 351.207 111.603 350.383C112.045 351.176 112.763 351.879 113.548 352.337C112.743 352.807 112.045 353.463 111.603 354.283ZM111.603 370.283C111.14 369.481 110.463 368.784 109.648 368.337C110.472 367.884 111.15 367.207 111.603 366.383C112.045 367.176 112.763 367.879 113.548 368.337C112.743 368.807 112.045 369.463 111.603 370.283ZM127.603 322.283C127.14 321.481 126.463 320.784 125.648 320.337C126.472 319.884 127.15 319.207 127.603 318.383C128.045 319.176 128.763 319.879 129.548 320.337C128.743 320.807 128.045 321.463 127.603 322.283ZM127.603 354.283C127.14 353.481 126.463 352.784 125.648 352.337C126.472 351.884 127.15 351.207 127.603 350.383C128.045 351.176 128.763 351.879 129.548 352.337C128.743 352.807 128.045 353.463 127.603 354.283ZM127.603 370.283C127.14 369.481 126.463 368.784 125.648 368.337C126.472 367.884 127.15 367.207 127.603 366.383C128.045 367.176 128.763 367.879 129.548 368.337C128.743 368.807 128.045 369.463 127.603 370.283ZM127.603 386.283C127.14 385.481 126.463 384.784 125.648 384.337C126.472 383.884 127.15 383.207 127.603 382.383C128.045 383.176 128.763 383.879 129.548 384.337C128.743 384.807 128.045 385.463 127.603 386.283ZM143.603 306.283C143.14 305.481 142.463 304.784 141.648 304.337C142.472 303.884 143.15 303.207 143.603 302.383C144.045 303.176 144.763 303.879 145.548 304.337C144.743 304.807 144.045 305.463 143.603 306.283ZM143.603 370.283C143.14 369.481 142.463 368.784 141.648 368.337C142.472 367.884 143.15 367.207 143.603 366.383C144.045 367.176 144.763 367.879 145.548 368.337C144.743 368.807 144.045 369.463 143.603 370.283ZM143.603 386.283C143.14 385.481 142.463 384.784 141.648 384.337C142.472 383.884 143.15 383.207 143.603 382.383C144.045 383.176 144.763 383.879 145.548 384.337C144.743 384.807 144.045 385.463 143.603 386.283ZM143.603 402.283C143.14 401.481 142.463 400.784 141.648 400.336C142.472 399.884 143.15 399.206 143.603 398.383C144.045 399.175 144.763 399.879 145.548 400.336C144.743 400.807 144.045 401.463 143.603 402.283ZM159.603 290.283C159.14 289.481 158.463 288.784 157.648 288.337C158.472 287.884 159.15 287.207 159.603 286.383C160.045 287.176 160.763 287.879 161.548 288.337C160.743 288.807 160.045 289.463 159.603 290.283ZM159.603 322.283C159.14 321.481 158.463 320.784 157.648 320.337C158.472 319.884 159.15 319.207 159.603 318.383C160.045 319.176 160.763 319.879 161.548 320.337C160.743 320.807 160.045 321.463 159.603 322.283ZM159.603 354.283C159.14 353.481 158.463 352.784 157.648 352.337C158.472 351.884 159.15 351.207 159.603 350.383C160.045 351.176 160.763 351.879 161.548 352.337C160.743 352.807 160.045 353.463 159.603 354.283ZM175.603 242.283C175.14 241.481 174.463 240.784 173.648 240.336C174.472 239.884 175.15 239.206 175.603 238.383C176.045 239.175 176.763 239.879 177.548 240.336C176.743 240.807 176.045 241.463 175.603 242.283ZM175.603 258.283C175.14 257.481 174.463 256.784 173.648 256.337C174.472 255.884 175.15 255.207 175.603 254.383C176.045 255.176 176.763 255.879 177.548 256.337C176.743 256.807 176.045 257.463 175.603 258.283ZM175.603 274.283C175.14 273.481 174.463 272.784 173.648 272.337C174.472 271.884 175.15 271.207 175.603 270.383C176.045 271.176 176.763 271.879 177.548 272.337C176.743 272.807 176.045 273.463 175.603 274.283ZM175.603 338.283C175.14 337.481 174.463 336.784 173.648 336.337C174.472 335.884 175.15 335.207 175.603 334.383C176.045 335.176 176.763 335.879 177.548 336.337C176.743 336.807 176.045 337.463 175.603 338.283ZM191.603 242.283C191.14 241.481 190.463 240.784 189.648 240.336C190.472 239.884 191.15 239.206 191.603 238.383C192.045 239.175 192.763 239.879 193.548 240.336C192.743 240.807 192.045 241.463 191.603 242.283ZM191.603 258.283C191.14 257.481 190.463 256.784 189.648 256.337C190.472 255.884 191.15 255.207 191.603 254.383C192.045 255.176 192.763 255.879 193.548 256.337C192.743 256.807 192.045 257.463 191.603 258.283ZM191.603 274.283C191.14 273.481 190.463 272.784 189.648 272.337C190.472 271.884 191.15 271.207 191.603 270.383C192.045 271.176 192.763 271.879 193.548 272.337C192.743 272.807 192.045 273.463 191.603 274.283ZM191.603 290.283C191.14 289.481 190.463 288.784 189.648 288.337C190.472 287.884 191.15 287.207 191.603 286.383C192.045 287.176 192.763 287.879 193.548 288.337C192.743 288.807 192.045 289.463 191.603 290.283ZM191.603 322.283C191.14 321.481 190.463 320.784 189.648 320.337C190.472 319.884 191.15 319.207 191.603 318.383C192.045 319.176 192.763 319.879 193.548 320.337C192.743 320.807 192.045 321.463 191.603 322.283ZM207.603 242.283C207.14 241.481 206.463 240.784 205.648 240.336C206.472 239.884 207.15 239.206 207.603 238.383C208.045 239.175 208.763 239.879 209.548 240.336C208.743 240.807 208.045 241.463 207.603 242.283ZM207.603 258.283C207.14 257.481 206.463 256.784 205.648 256.336C206.472 255.884 207.15 255.206 207.603 254.383C208.045 255.175 208.763 255.879 209.548 256.336C208.743 256.807 208.045 257.463 207.603 258.283ZM207.603 274.283C207.14 273.481 206.463 272.784 205.648 272.336C206.472 271.884 207.15 271.206 207.603 270.383C208.045 271.175 208.763 271.879 209.548 272.336C208.743 272.807 208.045 273.463 207.603 274.283ZM207.603 290.283C207.14 289.481 206.463 288.784 205.648 288.336C206.472 287.884 207.15 287.206 207.603 286.383C208.045 287.175 208.763 287.879 209.548 288.336C208.743 288.807 208.045 289.463 207.603 290.283ZM207.603 306.283C207.14 305.481 206.463 304.784 205.648 304.336C206.472 303.884 207.15 303.206 207.603 302.383C208.045 303.175 208.763 303.879 209.548 304.336C208.743 304.807 208.045 305.463 207.603 306.283ZM223.603 242.283C223.14 241.481 222.463 240.784 221.648 240.336C222.472 239.884 223.15 239.206 223.603 238.383C224.045 239.175 224.763 239.879 225.548 240.336C224.743 240.807 224.045 241.463 223.603 242.283ZM223.603 258.283C223.14 257.481 222.463 256.784 221.648 256.336C222.472 255.884 223.15 255.206 223.603 254.383C224.045 255.175 224.763 255.879 225.548 256.336C224.743 256.807 224.045 257.463 223.603 258.283ZM223.603 274.283C223.14 273.481 222.463 272.784 221.648 272.336C222.472 271.884 223.15 271.206 223.603 270.383C224.045 271.175 224.763 271.879 225.548 272.336C224.743 272.807 224.045 273.463 223.603 274.283ZM223.603 290.283C223.14 289.481 222.463 288.784 221.648 288.336C222.472 287.884 223.15 287.206 223.603 286.383C224.045 287.175 224.763 287.879 225.548 288.336C224.743 288.807 224.045 289.463 223.603 290.283ZM223.603 322.283C223.14 321.481 222.463 320.784 221.648 320.336C222.472 319.884 223.15 319.206 223.603 318.383C224.045 319.175 224.763 319.879 225.548 320.336C224.743 320.807 224.045 321.463 223.603 322.283ZM239.603 242.283C239.14 241.481 238.463 240.784 237.648 240.336C238.472 239.884 239.15 239.206 239.603 238.383C240.045 239.175 240.763 239.879 241.548 240.336C240.743 240.807 240.045 241.463 239.603 242.283ZM239.603 258.283C239.14 257.481 238.463 256.784 237.648 256.336C238.472 255.884 239.15 255.206 239.603 254.383C240.045 255.175 240.763 255.879 241.548 256.336C240.743 256.807 240.045 257.463 239.603 258.283ZM239.603 274.283C239.14 273.481 238.463 272.784 237.648 272.336C238.472 271.884 239.15 271.206 239.603 270.383C240.045 271.175 240.763 271.879 241.548 272.336C240.743 272.807 240.045 273.463 239.603 274.283ZM239.603 338.283C239.14 337.481 238.463 336.784 237.648 336.337C238.472 335.884 239.15 335.207 239.603 334.383C240.045 335.176 240.763 335.879 241.548 336.337C240.743 336.807 240.045 337.463 239.603 338.283ZM255.603 258.283C255.14 257.481 254.463 256.784 253.648 256.336C254.472 255.884 255.15 255.206 255.603 254.383C256.045 255.175 256.763 255.879 257.548 256.336C256.743 256.807 256.045 257.463 255.603 258.283ZM255.603 274.283C255.14 273.481 254.463 272.784 253.648 272.336C254.472 271.884 255.15 271.206 255.603 270.383C256.045 271.175 256.763 271.879 257.548 272.336C256.743 272.807 256.045 273.463 255.603 274.283ZM271.603 274.283C271.14 273.481 270.463 272.784 269.648 272.336C270.472 271.884 271.15 271.206 271.603 270.383C272.045 271.175 272.763 271.879 273.548 272.336C272.743 272.807 272.045 273.463 271.603 274.283ZM352.098 220.332C352.098 221.26 352.467 222.15 353.123 222.807C353.78 223.463 354.67 223.832 355.598 223.832H363.598C364.526 223.832 365.417 223.463 366.073 222.807C366.729 222.15 367.098 221.26 367.098 220.332V212.332C367.098 211.404 366.729 210.514 366.073 209.857C365.417 209.201 364.526 208.832 363.598 208.832H355.598C354.67 208.832 353.78 209.201 353.123 209.857C352.467 210.514 352.098 211.404 352.098 212.332V220.332ZM352.098 204.332C352.098 205.26 352.467 206.15 353.123 206.807C353.78 207.463 354.67 207.832 355.598 207.832H363.598C364.526 207.832 365.417 207.463 366.073 206.807C366.729 206.15 367.098 205.26 367.098 204.332V196.332C367.098 195.404 366.729 194.514 366.073 193.857C365.417 193.201 364.526 192.832 363.598 192.832H355.598C354.67 192.832 353.78 193.201 353.123 193.857C352.467 194.514 352.098 195.404 352.098 196.332V204.332ZM352.098 124.332C352.098 125.26 352.467 126.15 353.123 126.807C353.78 127.463 354.67 127.832 355.598 127.832H363.598C364.526 127.832 365.417 127.463 366.073 126.807C366.729 126.15 367.098 125.26 367.098 124.332V116.332C367.098 115.404 366.729 114.514 366.073 113.857C365.417 113.201 364.526 112.832 363.598 112.832H355.598C354.67 112.832 353.78 113.201 353.123 113.857C352.467 114.514 352.098 115.404 352.098 116.332V124.332ZM352.098 108.332C352.098 109.26 352.467 110.15 353.123 110.807C353.78 111.463 354.67 111.832 355.598 111.832H363.598C364.526 111.832 365.417 111.463 366.073 110.807C366.729 110.15 367.098 109.26 367.098 108.332V100.332C367.098 99.4037 366.729 98.5135 366.073 97.8571C365.417 97.2007 364.526 96.832 363.598 96.832H355.598C354.67 96.832 353.78 97.2007 353.123 97.8571C352.467 98.5135 352.098 99.4037 352.098 100.332V108.332ZM352.098 92.332C352.098 93.2603 352.467 94.1505 353.123 94.8069C353.78 95.4633 354.67 95.832 355.598 95.832H363.598C364.526 95.832 365.417 95.4633 366.073 94.8069C366.729 94.1505 367.098 93.2603 367.098 92.332V84.332C367.098 83.4037 366.729 82.5135 366.073 81.8571C365.417 81.2007 364.526 80.832 363.598 80.832H355.598C354.67 80.832 353.78 81.2007 353.123 81.8571C352.467 82.5135 352.098 83.4037 352.098 84.332V92.332ZM352.098 76.332C352.098 77.2603 352.467 78.1505 353.123 78.8069C353.78 79.4633 354.67 79.832 355.598 79.832H363.598C364.526 79.832 365.417 79.4633 366.073 78.8069C366.729 78.1505 367.098 77.2603 367.098 76.332V68.332C367.098 67.4037 366.729 66.5135 366.073 65.8571C365.417 65.2007 364.526 64.832 363.598 64.832H355.598C354.67 64.832 353.78 65.2007 353.123 65.8571C352.467 66.5135 352.098 67.4037 352.098 68.332V76.332ZM384.098 124.332C384.098 125.26 384.467 126.15 385.123 126.807C385.78 127.463 386.67 127.832 387.598 127.832H395.598C396.526 127.832 397.417 127.463 398.073 126.807C398.729 126.15 399.098 125.26 399.098 124.332V116.332C399.098 115.404 398.729 114.514 398.073 113.857C397.417 113.201 396.526 112.832 395.598 112.832H387.598C386.67 112.832 385.78 113.201 385.123 113.857C384.467 114.514 384.098 115.404 384.098 116.332V124.332ZM384.098 108.332C384.098 109.26 384.467 110.15 385.123 110.807C385.78 111.463 386.67 111.832 387.598 111.832H395.598C396.526 111.832 397.417 111.463 398.073 110.807C398.729 110.15 399.098 109.26 399.098 108.332V100.332C399.098 99.4037 398.729 98.5135 398.073 97.8571C397.417 97.2007 396.526 96.832 395.598 96.832H387.598C386.67 96.832 385.78 97.2007 385.123 97.8571C384.467 98.5135 384.098 99.4037 384.098 100.332V108.332ZM336.098 124.332C336.098 125.26 336.467 126.15 337.123 126.807C337.78 127.463 338.67 127.832 339.598 127.832H347.598C348.526 127.832 349.417 127.463 350.073 126.807C350.729 126.15 351.098 125.26 351.098 124.332V116.332C351.098 115.404 350.729 114.514 350.073 113.857C349.417 113.201 348.526 112.832 347.598 112.832H339.598C338.67 112.832 337.78 113.201 337.123 113.857C336.467 114.514 336.098 115.404 336.098 116.332V124.332ZM336.098 108.332C336.098 109.26 336.467 110.15 337.123 110.807C337.78 111.463 338.67 111.832 339.598 111.832H347.598C348.526 111.832 349.417 111.463 350.073 110.807C350.729 110.15 351.098 109.26 351.098 108.332V100.332C351.098 99.4037 350.729 98.5135 350.073 97.8571C349.417 97.2007 348.526 96.832 347.598 96.832H339.598C338.67 96.832 337.78 97.2007 337.123 97.8571C336.467 98.5135 336.098 99.4037 336.098 100.332V108.332ZM336.098 92.332C336.098 93.2603 336.467 94.1505 337.123 94.8069C337.78 95.4633 338.67 95.832 339.598 95.832H347.598C348.526 95.832 349.417 95.4633 350.073 94.8069C350.729 94.1505 351.098 93.2603 351.098 92.332V84.332C351.098 83.4037 350.729 82.5135 350.073 81.8571C349.417 81.2007 348.526 80.832 347.598 80.832H339.598C338.67 80.832 337.78 81.2007 337.123 81.8571C336.467 82.5135 336.098 83.4037 336.098 84.332V92.332ZM336.098 76.332C336.098 77.2603 336.467 78.1505 337.123 78.8069C337.78 79.4633 338.67 79.832 339.598 79.832H347.598C348.526 79.832 349.417 79.4633 350.073 78.8069C350.729 78.1505 351.098 77.2603 351.098 76.332V68.332C351.098 67.4037 350.729 66.5135 350.073 65.8571C349.417 65.2007 348.526 64.832 347.598 64.832H339.598C338.67 64.832 337.78 65.2007 337.123 65.8571C336.467 66.5135 336.098 67.4037 336.098 68.332V76.332ZM384.098 92.332C384.098 93.2603 384.467 94.1505 385.123 94.8069C385.78 95.4633 386.67 95.832 387.598 95.832H395.598C396.526 95.832 397.417 95.4633 398.073 94.8069C398.729 94.1505 399.098 93.2603 399.098 92.332V84.332C399.098 83.4037 398.729 82.5135 398.073 81.8571C397.417 81.2007 396.526 80.832 395.598 80.832H387.598C386.67 80.832 385.78 81.2007 385.123 81.8571C384.467 82.5135 384.098 83.4037 384.098 84.332V92.332ZM384.098 76.332C384.098 77.2603 384.467 78.1505 385.123 78.8069C385.78 79.4633 386.67 79.832 387.598 79.832H395.598C396.526 79.832 397.417 79.4633 398.073 78.8069C398.729 78.1505 399.098 77.2603 399.098 76.332V68.332C399.098 67.4037 398.729 66.5135 398.073 65.8571C397.417 65.2007 396.526 64.832 395.598 64.832H387.598C386.67 64.832 385.78 65.2007 385.123 65.8571C384.467 66.5135 384.098 67.4037 384.098 68.332V76.332ZM384.098 60.332C384.098 61.2603 384.467 62.1505 385.123 62.8069C385.78 63.4632 386.67 63.832 387.598 63.832H395.598C396.526 63.832 397.417 63.4632 398.073 62.8069C398.729 62.1505 399.098 61.2603 399.098 60.332V52.332C399.098 51.4037 398.729 50.5135 398.073 49.8571C397.417 49.2008 396.526 48.832 395.598 48.832H387.598C386.67 48.832 385.78 49.2008 385.123 49.8571C384.467 50.5135 384.098 51.4037 384.098 52.332V60.332ZM384.098 44.332C384.098 45.2603 384.467 46.1505 385.123 46.8069C385.78 47.4632 386.67 47.832 387.598 47.832H395.598C396.526 47.832 397.417 47.4632 398.073 46.8069C398.729 46.1505 399.098 45.2603 399.098 44.332V36.332C399.098 35.4037 398.729 34.5135 398.073 33.8571C397.417 33.2008 396.526 32.832 395.598 32.832H387.598C386.67 32.832 385.78 33.2008 385.123 33.8571C384.467 34.5135 384.098 35.4037 384.098 36.332V44.332ZM384.098 28.332C384.098 29.2603 384.467 30.1505 385.123 30.8069C385.78 31.4632 386.67 31.832 387.598 31.832H395.598C396.526 31.832 397.417 31.4632 398.073 30.8069C398.729 30.1505 399.098 29.2603 399.098 28.332V20.332C399.098 19.4037 398.729 18.5135 398.073 17.8571C397.417 17.2007 396.526 16.832 395.598 16.832H387.598C386.67 16.832 385.78 17.2007 385.123 17.8571C384.467 18.5135 384.098 19.4037 384.098 20.332V28.332ZM384.098 12.332C384.098 13.2603 384.467 14.1505 385.123 14.8069C385.78 15.4633 386.67 15.832 387.598 15.832H395.598C396.526 15.832 397.417 15.4633 398.073 14.8069C398.729 14.1505 399.098 13.2603 399.098 12.332V4.332C399.098 3.40374 398.729 2.5135 398.073 1.85713C397.417 1.20075 396.526 0.832 395.598 0.832H387.598C386.67 0.832 385.78 1.20075 385.123 1.85713C384.467 2.5135 384.098 3.40374 384.098 4.332V12.332ZM336.098 220.332C336.098 221.26 336.467 222.15 337.123 222.807C337.78 223.463 338.67 223.832 339.598 223.832H347.598C348.526 223.832 349.417 223.463 350.073 222.807C350.729 222.15 351.098 221.26 351.098 220.332V212.332C351.098 211.404 350.729 210.514 350.073 209.857C349.417 209.201 348.526 208.832 347.598 208.832H339.598C338.67 208.832 337.78 209.201 337.123 209.857C336.467 210.514 336.098 211.404 336.098 212.332V220.332ZM336.098 204.332C336.098 205.26 336.467 206.15 337.123 206.807C337.78 207.463 338.67 207.832 339.598 207.832H347.598C348.526 207.832 349.417 207.463 350.073 206.807C350.729 206.15 351.098 205.26 351.098 204.332V196.332C351.098 195.404 350.729 194.514 350.073 193.857C349.417 193.201 348.526 192.832 347.598 192.832H339.598C338.67 192.832 337.78 193.201 337.123 193.857C336.467 194.514 336.098 195.404 336.098 196.332V204.332ZM368.098 92.332C368.098 93.2603 368.467 94.1505 369.123 94.8069C369.78 95.4633 370.67 95.832 371.598 95.832H379.598C380.526 95.832 381.417 95.4633 382.073 94.8069C382.729 94.1505 383.098 93.2603 383.098 92.332V84.332C383.098 83.4037 382.729 82.5135 382.073 81.8571C381.417 81.2007 380.526 80.832 379.598 80.832H371.598C370.67 80.832 369.78 81.2007 369.123 81.8571C368.467 82.5135 368.098 83.4037 368.098 84.332V92.332ZM368.098 76.332C368.098 77.2603 368.467 78.1505 369.123 78.8069C369.78 79.4633 370.67 79.832 371.598 79.832H379.598C380.526 79.832 381.417 79.4633 382.073 78.8069C382.729 78.1505 383.098 77.2603 383.098 76.332V68.332C383.098 67.4037 382.729 66.5135 382.073 65.8571C381.417 65.2007 380.526 64.832 379.598 64.832H371.598C370.67 64.832 369.78 65.2007 369.123 65.8571C368.467 66.5135 368.098 67.4037 368.098 68.332V76.332ZM368.098 60.332C368.098 61.2603 368.467 62.1505 369.123 62.8069C369.78 63.4632 370.67 63.832 371.598 63.832H379.598C380.526 63.832 381.417 63.4632 382.073 62.8069C382.729 62.1505 383.098 61.2603 383.098 60.332V52.332C383.098 51.4037 382.729 50.5135 382.073 49.8571C381.417 49.2008 380.526 48.832 379.598 48.832H371.598C370.67 48.832 369.78 49.2008 369.123 49.8571C368.467 50.5135 368.098 51.4037 368.098 52.332V60.332ZM368.098 44.332C368.098 45.2603 368.467 46.1505 369.123 46.8069C369.78 47.4632 370.67 47.832 371.598 47.832H379.598C380.526 47.832 381.417 47.4632 382.073 46.8069C382.729 46.1505 383.098 45.2603 383.098 44.332V36.332C383.098 35.4037 382.729 34.5135 382.073 33.8571C381.417 33.2008 380.526 32.832 379.598 32.832H371.598C370.67 32.832 369.78 33.2008 369.123 33.8571C368.467 34.5135 368.098 35.4037 368.098 36.332V44.332ZM368.098 124.332C368.098 125.26 368.467 126.15 369.123 126.807C369.78 127.463 370.67 127.832 371.598 127.832H379.598C380.526 127.832 381.417 127.463 382.073 126.807C382.729 126.15 383.098 125.26 383.098 124.332V116.332C383.098 115.404 382.729 114.514 382.073 113.857C381.417 113.201 380.526 112.832 379.598 112.832H371.598C370.67 112.832 369.78 113.201 369.123 113.857C368.467 114.514 368.098 115.404 368.098 116.332V124.332ZM368.098 108.332C368.098 109.26 368.467 110.15 369.123 110.807C369.78 111.463 370.67 111.832 371.598 111.832H379.598C380.526 111.832 381.417 111.463 382.073 110.807C382.729 110.15 383.098 109.26 383.098 108.332V100.332C383.098 99.4037 382.729 98.5135 382.073 97.8571C381.417 97.2007 380.526 96.832 379.598 96.832H371.598C370.67 96.832 369.78 97.2007 369.123 97.8571C368.467 98.5135 368.098 99.4037 368.098 100.332V108.332ZM368.098 28.332C368.098 29.2603 368.467 30.1505 369.123 30.8069C369.78 31.4632 370.67 31.832 371.598 31.832H379.598C380.526 31.832 381.417 31.4632 382.073 30.8069C382.729 30.1505 383.098 29.2603 383.098 28.332V20.332C383.098 19.4037 382.729 18.5135 382.073 17.8571C381.417 17.2007 380.526 16.832 379.598 16.832H371.598C370.67 16.832 369.78 17.2007 369.123 17.8571C368.467 18.5135 368.098 19.4037 368.098 20.332V28.332ZM368.098 12.332C368.098 13.2603 368.467 14.1505 369.123 14.8069C369.78 15.4633 370.67 15.832 371.598 15.832H379.598C380.526 15.832 381.417 15.4633 382.073 14.8069C382.729 14.1505 383.098 13.2603 383.098 12.332V4.332C383.098 3.40374 382.729 2.5135 382.073 1.85713C381.417 1.20075 380.526 0.832 379.598 0.832H371.598C370.67 0.832 369.78 1.20075 369.123 1.85713C368.467 2.5135 368.098 3.40374 368.098 4.332V12.332ZM320.098 156.332C320.098 157.26 320.467 158.15 321.123 158.807C321.78 159.463 322.67 159.832 323.598 159.832H331.598C332.526 159.832 333.417 159.463 334.073 158.807C334.729 158.15 335.098 157.26 335.098 156.332V148.332C335.098 147.404 334.729 146.514 334.073 145.857C333.417 145.201 332.526 144.832 331.598 144.832H323.598C322.67 144.832 321.78 145.201 321.123 145.857C320.467 146.514 320.098 147.404 320.098 148.332V156.332ZM320.098 140.332C320.098 141.26 320.467 142.15 321.123 142.807C321.78 143.463 322.67 143.832 323.598 143.832H331.598C332.526 143.832 333.417 143.463 334.073 142.807C334.729 142.15 335.098 141.26 335.098 140.332V132.332C335.098 131.404 334.729 130.514 334.073 129.857C333.417 129.201 332.526 128.832 331.598 128.832H323.598C322.67 128.832 321.78 129.201 321.123 129.857C320.467 130.514 320.098 131.404 320.098 132.332V140.332ZM320.098 92.332C320.098 93.2603 320.467 94.1505 321.123 94.8069C321.78 95.4633 322.67 95.832 323.598 95.832H331.598C332.526 95.832 333.417 95.4633 334.073 94.8069C334.729 94.1505 335.098 93.2603 335.098 92.332V84.332C335.098 83.4037 334.729 82.5135 334.073 81.8571C333.417 81.2007 332.526 80.832 331.598 80.832H323.598C322.67 80.832 321.78 81.2007 321.123 81.8571C320.467 82.5135 320.098 83.4037 320.098 84.332V92.332ZM320.098 76.332C320.098 77.2603 320.467 78.1505 321.123 78.8069C321.78 79.4633 322.67 79.832 323.598 79.832H331.598C332.526 79.832 333.417 79.4633 334.073 78.8069C334.729 78.1505 335.098 77.2603 335.098 76.332V68.332C335.098 67.4037 334.729 66.5135 334.073 65.8571C333.417 65.2007 332.526 64.832 331.598 64.832H323.598C322.67 64.832 321.78 65.2007 321.123 65.8571C320.467 66.5135 320.098 67.4037 320.098 68.332V76.332ZM320.098 60.332C320.098 61.2603 320.467 62.1505 321.123 62.8069C321.78 63.4632 322.67 63.832 323.598 63.832H331.598C332.526 63.832 333.417 63.4632 334.073 62.8069C334.729 62.1505 335.098 61.2603 335.098 60.332V52.332C335.098 51.4037 334.729 50.5135 334.073 49.8571C333.417 49.2008 332.526 48.832 331.598 48.832H323.598C322.67 48.832 321.78 49.2008 321.123 49.8571C320.467 50.5135 320.098 51.4037 320.098 52.332V60.332ZM320.098 44.332C320.098 45.2603 320.467 46.1505 321.123 46.8069C321.78 47.4632 322.67 47.832 323.598 47.832H331.598C332.526 47.832 333.417 47.4632 334.073 46.8069C334.729 46.1505 335.098 45.2603 335.098 44.332V36.332C335.098 35.4037 334.729 34.5135 334.073 33.8571C333.417 33.2008 332.526 32.832 331.598 32.832H323.598C322.67 32.832 321.78 33.2008 321.123 33.8571C320.467 34.5135 320.098 35.4037 320.098 36.332V44.332ZM304.098 156.332C304.098 157.26 304.467 158.15 305.123 158.807C305.78 159.463 306.67 159.832 307.598 159.832H315.598C316.526 159.832 317.417 159.463 318.073 158.807C318.729 158.15 319.098 157.26 319.098 156.332V148.332C319.098 147.404 318.729 146.514 318.073 145.857C317.417 145.201 316.526 144.832 315.598 144.832H307.598C306.67 144.832 305.78 145.201 305.123 145.857C304.467 146.514 304.098 147.404 304.098 148.332V156.332ZM304.098 140.332C304.098 141.26 304.467 142.15 305.123 142.807C305.78 143.463 306.67 143.832 307.598 143.832H315.598C316.526 143.832 317.417 143.463 318.073 142.807C318.729 142.15 319.098 141.26 319.098 140.332V132.332C319.098 131.404 318.729 130.514 318.073 129.857C317.417 129.201 316.526 128.832 315.598 128.832H307.598C306.67 128.832 305.78 129.201 305.123 129.857C304.467 130.514 304.098 131.404 304.098 132.332V140.332ZM304.098 92.332C304.098 93.2603 304.467 94.1505 305.123 94.8069C305.78 95.4633 306.67 95.832 307.598 95.832H315.598C316.526 95.832 317.417 95.4633 318.073 94.8069C318.729 94.1505 319.098 93.2603 319.098 92.332V84.332C319.098 83.4037 318.729 82.5135 318.073 81.8571C317.417 81.2007 316.526 80.832 315.598 80.832H307.598C306.67 80.832 305.78 81.2007 305.123 81.8571C304.467 82.5135 304.098 83.4037 304.098 84.332V92.332ZM304.098 76.332C304.098 77.2603 304.467 78.1505 305.123 78.8069C305.78 79.4633 306.67 79.832 307.598 79.832H315.598C316.526 79.832 317.417 79.4633 318.073 78.8069C318.729 78.1505 319.098 77.2603 319.098 76.332V68.332C319.098 67.4037 318.729 66.5135 318.073 65.8571C317.417 65.2007 316.526 64.832 315.598 64.832H307.598C306.67 64.832 305.78 65.2007 305.123 65.8571C304.467 66.5135 304.098 67.4037 304.098 68.332V76.332ZM304.098 60.332C304.098 61.2603 304.467 62.1505 305.123 62.8069C305.78 63.4632 306.67 63.832 307.598 63.832H315.598C316.526 63.832 317.417 63.4632 318.073 62.8069C318.729 62.1505 319.098 61.2603 319.098 60.332V52.332C319.098 51.4037 318.729 50.5135 318.073 49.8571C317.417 49.2008 316.526 48.832 315.598 48.832H307.598C306.67 48.832 305.78 49.2008 305.123 49.8571C304.467 50.5135 304.098 51.4037 304.098 52.332V60.332ZM304.098 44.332C304.098 45.2603 304.467 46.1505 305.123 46.8069C305.78 47.4632 306.67 47.832 307.598 47.832H315.598C316.526 47.832 317.417 47.4632 318.073 46.8069C318.729 46.1505 319.098 45.2603 319.098 44.332V36.332C319.098 35.4037 318.729 34.5135 318.073 33.8571C317.417 33.2008 316.526 32.832 315.598 32.832H307.598C306.67 32.832 305.78 33.2008 305.123 33.8571C304.467 34.5135 304.098 35.4037 304.098 36.332V44.332ZM288.098 220.332C288.098 221.26 288.467 222.15 289.123 222.807C289.78 223.463 290.67 223.832 291.598 223.832H299.598C300.526 223.832 301.417 223.463 302.073 222.807C302.729 222.15 303.098 221.26 303.098 220.332V212.332C303.098 211.404 302.729 210.514 302.073 209.857C301.417 209.201 300.526 208.832 299.598 208.832H291.598C290.67 208.832 289.78 209.201 289.123 209.857C288.467 210.514 288.098 211.404 288.098 212.332V220.332ZM288.098 204.332C288.098 205.26 288.467 206.15 289.123 206.807C289.78 207.463 290.67 207.832 291.598 207.832H299.598C300.526 207.832 301.417 207.463 302.073 206.807C302.729 206.15 303.098 205.26 303.098 204.332V196.332C303.098 195.404 302.729 194.514 302.073 193.857C301.417 193.201 300.526 192.832 299.598 192.832H291.598C290.67 192.832 289.78 193.201 289.123 193.857C288.467 194.514 288.098 195.404 288.098 196.332V204.332ZM288.098 188.332C288.098 189.26 288.467 190.15 289.123 190.807C289.78 191.463 290.67 191.832 291.598 191.832H299.598C300.526 191.832 301.417 191.463 302.073 190.807C302.729 190.15 303.098 189.26 303.098 188.332V180.332C303.098 179.404 302.729 178.514 302.073 177.857C301.417 177.201 300.526 176.832 299.598 176.832H291.598C290.67 176.832 289.78 177.201 289.123 177.857C288.467 178.514 288.098 179.404 288.098 180.332V188.332ZM288.098 172.332C288.098 173.26 288.467 174.15 289.123 174.807C289.78 175.463 290.67 175.832 291.598 175.832H299.598C300.526 175.832 301.417 175.463 302.073 174.807C302.729 174.15 303.098 173.26 303.098 172.332V164.332C303.098 163.404 302.729 162.514 302.073 161.857C301.417 161.201 300.526 160.832 299.598 160.832H291.598C290.67 160.832 289.78 161.201 289.123 161.857C288.467 162.514 288.098 163.404 288.098 164.332V172.332ZM288.098 124.332C288.098 125.26 288.467 126.15 289.123 126.807C289.78 127.463 290.67 127.832 291.598 127.832H299.598C300.526 127.832 301.417 127.463 302.073 126.807C302.729 126.15 303.098 125.26 303.098 124.332V116.332C303.098 115.404 302.729 114.514 302.073 113.857C301.417 113.201 300.526 112.832 299.598 112.832H291.598C290.67 112.832 289.78 113.201 289.123 113.857C288.467 114.514 288.098 115.404 288.098 116.332V124.332ZM288.098 108.332C288.098 109.26 288.467 110.15 289.123 110.807C289.78 111.463 290.67 111.832 291.598 111.832H299.598C300.526 111.832 301.417 111.463 302.073 110.807C302.729 110.15 303.098 109.26 303.098 108.332V100.332C303.098 99.4037 302.729 98.5135 302.073 97.8571C301.417 97.2007 300.526 96.832 299.598 96.832H291.598C290.67 96.832 289.78 97.2007 289.123 97.8571C288.467 98.5135 288.098 99.4037 288.098 100.332V108.332ZM272.098 220.332C272.098 221.26 272.467 222.15 273.123 222.807C273.78 223.463 274.67 223.832 275.598 223.832H283.598C284.526 223.832 285.417 223.463 286.073 222.807C286.729 222.15 287.098 221.26 287.098 220.332V212.332C287.098 211.404 286.729 210.514 286.073 209.857C285.417 209.201 284.526 208.832 283.598 208.832H275.598C274.67 208.832 273.78 209.201 273.123 209.857C272.467 210.514 272.098 211.404 272.098 212.332V220.332ZM272.098 204.332C272.098 205.26 272.467 206.15 273.123 206.807C273.78 207.463 274.67 207.832 275.598 207.832H283.598C284.526 207.832 285.417 207.463 286.073 206.807C286.729 206.15 287.098 205.26 287.098 204.332V196.332C287.098 195.404 286.729 194.514 286.073 193.857C285.417 193.201 284.526 192.832 283.598 192.832H275.598C274.67 192.832 273.78 193.201 273.123 193.857C272.467 194.514 272.098 195.404 272.098 196.332V204.332ZM272.098 188.332C272.098 189.26 272.467 190.15 273.123 190.807C273.78 191.463 274.67 191.832 275.598 191.832H283.598C284.526 191.832 285.417 191.463 286.073 190.807C286.729 190.15 287.098 189.26 287.098 188.332V180.332C287.098 179.404 286.729 178.514 286.073 177.857C285.417 177.201 284.526 176.832 283.598 176.832H275.598C274.67 176.832 273.78 177.201 273.123 177.857C272.467 178.514 272.098 179.404 272.098 180.332V188.332ZM272.098 172.332C272.098 173.26 272.467 174.15 273.123 174.807C273.78 175.463 274.67 175.832 275.598 175.832H283.598C284.526 175.832 285.417 175.463 286.073 174.807C286.729 174.15 287.098 173.26 287.098 172.332V164.332C287.098 163.404 286.729 162.514 286.073 161.857C285.417 161.201 284.526 160.832 283.598 160.832H275.598C274.67 160.832 273.78 161.201 273.123 161.857C272.467 162.514 272.098 163.404 272.098 164.332V172.332ZM272.098 124.332C272.098 125.26 272.467 126.15 273.123 126.807C273.78 127.463 274.67 127.832 275.598 127.832H283.598C284.526 127.832 285.417 127.463 286.073 126.807C286.729 126.15 287.098 125.26 287.098 124.332V116.332C287.098 115.404 286.729 114.514 286.073 113.857C285.417 113.201 284.526 112.832 283.598 112.832H275.598C274.67 112.832 273.78 113.201 273.123 113.857C272.467 114.514 272.098 115.404 272.098 116.332V124.332ZM272.098 108.332C272.098 109.26 272.467 110.15 273.123 110.807C273.78 111.463 274.67 111.832 275.598 111.832H283.598C284.526 111.832 285.417 111.463 286.073 110.807C286.729 110.15 287.098 109.26 287.098 108.332V100.332C287.098 99.4037 286.729 98.5135 286.073 97.8571C285.417 97.2007 284.526 96.832 283.598 96.832H275.598C274.67 96.832 273.78 97.2007 273.123 97.8571C272.467 98.5135 272.098 99.4037 272.098 100.332V108.332ZM256.098 220.332C256.098 221.26 256.467 222.15 257.123 222.807C257.78 223.463 258.67 223.832 259.598 223.832H267.598C268.526 223.832 269.417 223.463 270.073 222.807C270.729 222.15 271.098 221.26 271.098 220.332V212.332C271.098 211.404 270.729 210.514 270.073 209.857C269.417 209.201 268.526 208.832 267.598 208.832H259.598C258.67 208.832 257.78 209.201 257.123 209.857C256.467 210.514 256.098 211.404 256.098 212.332V220.332ZM256.098 204.332C256.098 205.26 256.467 206.15 257.123 206.807C257.78 207.463 258.67 207.832 259.598 207.832H267.598C268.526 207.832 269.417 207.463 270.073 206.807C270.729 206.15 271.098 205.26 271.098 204.332V196.332C271.098 195.404 270.729 194.514 270.073 193.857C269.417 193.201 268.526 192.832 267.598 192.832H259.598C258.67 192.832 257.78 193.201 257.123 193.857C256.467 194.514 256.098 195.404 256.098 196.332V204.332ZM256.098 188.332C256.098 189.26 256.467 190.15 257.123 190.807C257.78 191.463 258.67 191.832 259.598 191.832H267.598C268.526 191.832 269.417 191.463 270.073 190.807C270.729 190.15 271.098 189.26 271.098 188.332V180.332C271.098 179.404 270.729 178.514 270.073 177.857C269.417 177.201 268.526 176.832 267.598 176.832H259.598C258.67 176.832 257.78 177.201 257.123 177.857C256.467 178.514 256.098 179.404 256.098 180.332V188.332ZM256.098 172.332C256.098 173.26 256.467 174.15 257.123 174.807C257.78 175.463 258.67 175.832 259.598 175.832H267.598C268.526 175.832 269.417 175.463 270.073 174.807C270.729 174.15 271.098 173.26 271.098 172.332V164.332C271.098 163.404 270.729 162.514 270.073 161.857C269.417 161.201 268.526 160.832 267.598 160.832H259.598C258.67 160.832 257.78 161.201 257.123 161.857C256.467 162.514 256.098 163.404 256.098 164.332V172.332ZM256.098 156.332C256.098 157.26 256.467 158.15 257.123 158.807C257.78 159.463 258.67 159.832 259.598 159.832H267.598C268.526 159.832 269.417 159.463 270.073 158.807C270.729 158.15 271.098 157.26 271.098 156.332V148.332C271.098 147.404 270.729 146.514 270.073 145.857C269.417 145.201 268.526 144.832 267.598 144.832H259.598C258.67 144.832 257.78 145.201 257.123 145.857C256.467 146.514 256.098 147.404 256.098 148.332V156.332ZM256.098 140.332C256.098 141.26 256.467 142.15 257.123 142.807C257.78 143.463 258.67 143.832 259.598 143.832H267.598C268.526 143.832 269.417 143.463 270.073 142.807C270.729 142.15 271.098 141.26 271.098 140.332V132.332C271.098 131.404 270.729 130.514 270.073 129.857C269.417 129.201 268.526 128.832 267.598 128.832H259.598C258.67 128.832 257.78 129.201 257.123 129.857C256.467 130.514 256.098 131.404 256.098 132.332V140.332ZM240.098 220.332C240.098 221.26 240.467 222.15 241.123 222.807C241.779 223.463 242.67 223.832 243.598 223.832H251.598C252.526 223.832 253.416 223.463 254.073 222.807C254.729 222.15 255.098 221.26 255.098 220.332V212.332C255.098 211.404 254.729 210.514 254.073 209.857C253.416 209.201 252.526 208.832 251.598 208.832H243.598C242.67 208.832 241.779 209.201 241.123 209.857C240.467 210.514 240.098 211.404 240.098 212.332V220.332ZM240.098 204.332C240.098 205.26 240.467 206.15 241.123 206.807C241.779 207.463 242.67 207.832 243.598 207.832H251.598C252.526 207.832 253.416 207.463 254.073 206.807C254.729 206.15 255.098 205.26 255.098 204.332V196.332C255.098 195.404 254.729 194.514 254.073 193.857C253.416 193.201 252.526 192.832 251.598 192.832H243.598C242.67 192.832 241.779 193.201 241.123 193.857C240.467 194.514 240.098 195.404 240.098 196.332V204.332ZM240.098 188.332C240.098 189.26 240.467 190.15 241.123 190.807C241.779 191.463 242.67 191.832 243.598 191.832H251.598C252.526 191.832 253.416 191.463 254.073 190.807C254.729 190.15 255.098 189.26 255.098 188.332V180.332C255.098 179.404 254.729 178.514 254.073 177.857C253.416 177.201 252.526 176.832 251.598 176.832H243.598C242.67 176.832 241.779 177.201 241.123 177.857C240.467 178.514 240.098 179.404 240.098 180.332V188.332ZM240.098 172.332C240.098 173.26 240.467 174.15 241.123 174.807C241.779 175.463 242.67 175.832 243.598 175.832H251.598C252.526 175.832 253.416 175.463 254.073 174.807C254.729 174.15 255.098 173.26 255.098 172.332V164.332C255.098 163.404 254.729 162.514 254.073 161.857C253.416 161.201 252.526 160.832 251.598 160.832H243.598C242.67 160.832 241.779 161.201 241.123 161.857C240.467 162.514 240.098 163.404 240.098 164.332V172.332ZM240.098 156.332C240.098 157.26 240.467 158.15 241.123 158.807C241.779 159.463 242.67 159.832 243.598 159.832H251.598C252.526 159.832 253.416 159.463 254.073 158.807C254.729 158.15 255.098 157.26 255.098 156.332V148.332C255.098 147.404 254.729 146.514 254.073 145.857C253.416 145.201 252.526 144.832 251.598 144.832H243.598C242.67 144.832 241.779 145.201 241.123 145.857C240.467 146.514 240.098 147.404 240.098 148.332V156.332ZM240.098 140.332C240.098 141.26 240.467 142.15 241.123 142.807C241.779 143.463 242.67 143.832 243.598 143.832H251.598C252.526 143.832 253.416 143.463 254.073 142.807C254.729 142.15 255.098 141.26 255.098 140.332V132.332C255.098 131.404 254.729 130.514 254.073 129.857C253.416 129.201 252.526 128.832 251.598 128.832H243.598C242.67 128.832 241.779 129.201 241.123 129.857C240.467 130.514 240.098 131.404 240.098 132.332V140.332ZM224.098 220.332C224.098 221.26 224.467 222.15 225.123 222.807C225.779 223.463 226.67 223.832 227.598 223.832H235.598C236.526 223.832 237.416 223.463 238.073 222.807C238.729 222.15 239.098 221.26 239.098 220.332V212.332C239.098 211.404 238.729 210.514 238.073 209.857C237.416 209.201 236.526 208.832 235.598 208.832H227.598C226.67 208.832 225.779 209.201 225.123 209.857C224.467 210.514 224.098 211.404 224.098 212.332V220.332ZM224.098 204.332C224.098 205.26 224.467 206.15 225.123 206.807C225.779 207.463 226.67 207.832 227.598 207.832H235.598C236.526 207.832 237.416 207.463 238.073 206.807C238.729 206.15 239.098 205.26 239.098 204.332V196.332C239.098 195.404 238.729 194.514 238.073 193.857C237.416 193.201 236.526 192.832 235.598 192.832H227.598C226.67 192.832 225.779 193.201 225.123 193.857C224.467 194.514 224.098 195.404 224.098 196.332V204.332ZM224.098 188.332C224.098 189.26 224.467 190.15 225.123 190.807C225.779 191.463 226.67 191.832 227.598 191.832H235.598C236.526 191.832 237.416 191.463 238.073 190.807C238.729 190.15 239.098 189.26 239.098 188.332V180.332C239.098 179.404 238.729 178.514 238.073 177.857C237.416 177.201 236.526 176.832 235.598 176.832H227.598C226.67 176.832 225.779 177.201 225.123 177.857C224.467 178.514 224.098 179.404 224.098 180.332V188.332ZM224.098 172.332C224.098 173.26 224.467 174.15 225.123 174.807C225.779 175.463 226.67 175.832 227.598 175.832H235.598C236.526 175.832 237.416 175.463 238.073 174.807C238.729 174.15 239.098 173.26 239.098 172.332V164.332C239.098 163.404 238.729 162.514 238.073 161.857C237.416 161.201 236.526 160.832 235.598 160.832H227.598C226.67 160.832 225.779 161.201 225.123 161.857C224.467 162.514 224.098 163.404 224.098 164.332V172.332ZM224.098 124.332C224.098 125.26 224.467 126.15 225.123 126.807C225.779 127.463 226.67 127.832 227.598 127.832H235.598C236.526 127.832 237.416 127.463 238.073 126.807C238.729 126.15 239.098 125.26 239.098 124.332V116.332C239.098 115.404 238.729 114.514 238.073 113.857C237.416 113.201 236.526 112.832 235.598 112.832H227.598C226.67 112.832 225.779 113.201 225.123 113.857C224.467 114.514 224.098 115.404 224.098 116.332V124.332ZM224.098 108.332C224.098 109.26 224.467 110.15 225.123 110.807C225.779 111.463 226.67 111.832 227.598 111.832H235.598C236.526 111.832 237.416 111.463 238.073 110.807C238.729 110.15 239.098 109.26 239.098 108.332V100.332C239.098 99.4037 238.729 98.5135 238.073 97.8571C237.416 97.2007 236.526 96.832 235.598 96.832H227.598C226.67 96.832 225.779 97.2007 225.123 97.8571C224.467 98.5135 224.098 99.4037 224.098 100.332V108.332ZM208.098 220.332C208.098 221.26 208.467 222.15 209.123 222.807C209.779 223.463 210.67 223.832 211.598 223.832H219.598C220.526 223.832 221.416 223.463 222.073 222.807C222.729 222.15 223.098 221.26 223.098 220.332V212.332C223.098 211.404 222.729 210.514 222.073 209.857C221.416 209.201 220.526 208.832 219.598 208.832H211.598C210.67 208.832 209.779 209.201 209.123 209.857C208.467 210.514 208.098 211.404 208.098 212.332V220.332ZM208.098 204.332C208.098 205.26 208.467 206.15 209.123 206.807C209.779 207.463 210.67 207.832 211.598 207.832H219.598C220.526 207.832 221.416 207.463 222.073 206.807C222.729 206.15 223.098 205.26 223.098 204.332V196.332C223.098 195.404 222.729 194.514 222.073 193.857C221.416 193.201 220.526 192.832 219.598 192.832H211.598C210.67 192.832 209.779 193.201 209.123 193.857C208.467 194.514 208.098 195.404 208.098 196.332V204.332ZM208.098 188.332C208.098 189.26 208.467 190.15 209.123 190.807C209.779 191.463 210.67 191.832 211.598 191.832H219.598C220.526 191.832 221.416 191.463 222.073 190.807C222.729 190.15 223.098 189.26 223.098 188.332V180.332C223.098 179.404 222.729 178.514 222.073 177.857C221.416 177.201 220.526 176.832 219.598 176.832H211.598C210.67 176.832 209.779 177.201 209.123 177.857C208.467 178.514 208.098 179.404 208.098 180.332V188.332ZM351.593 110.381C352.055 111.183 352.732 111.88 353.547 112.328C352.723 112.78 352.046 113.458 351.593 114.281C351.15 113.489 350.432 112.785 349.647 112.328C350.452 111.857 351.15 111.201 351.593 110.381ZM351.593 94.381C352.055 95.183 352.732 95.881 353.547 96.328C352.723 96.7803 352.046 97.4577 351.593 98.281C351.15 97.489 350.432 96.785 349.647 96.328C350.452 95.858 351.15 95.201 351.593 94.381ZM351.593 78.381C352.055 79.183 352.732 79.881 353.547 80.328C352.723 80.7803 352.046 81.4577 351.593 82.281C351.15 81.489 350.432 80.785 349.647 80.328C350.452 79.858 351.15 79.201 351.593 78.381ZM208.098 172.332C208.098 173.26 208.467 174.15 209.123 174.807C209.779 175.463 210.67 175.832 211.598 175.832H219.598C220.526 175.832 221.416 175.463 222.073 174.807C222.729 174.15 223.098 173.26 223.098 172.332V164.332C223.098 163.404 222.729 162.514 222.073 161.857C221.416 161.201 220.526 160.832 219.598 160.832H211.598C210.67 160.832 209.779 161.201 209.123 161.857C208.467 162.514 208.098 163.404 208.098 164.332V172.332ZM208.098 124.332C208.098 125.26 208.467 126.15 209.123 126.807C209.779 127.463 210.67 127.832 211.598 127.832H219.598C220.526 127.832 221.416 127.463 222.073 126.807C222.729 126.15 223.098 125.26 223.098 124.332V116.332C223.098 115.404 222.729 114.514 222.073 113.857C221.416 113.201 220.526 112.832 219.598 112.832H211.598C210.67 112.832 209.779 113.201 209.123 113.857C208.467 114.514 208.098 115.404 208.098 116.332V124.332ZM208.098 108.332C208.098 109.26 208.467 110.15 209.123 110.807C209.779 111.463 210.67 111.832 211.598 111.832H219.598C220.526 111.832 221.416 111.463 222.073 110.807C222.729 110.15 223.098 109.26 223.098 108.332V100.332C223.098 99.4037 222.729 98.5135 222.073 97.8571C221.416 97.2007 220.526 96.832 219.598 96.832H211.598C210.67 96.832 209.779 97.2007 209.123 97.8571C208.467 98.5135 208.098 99.4037 208.098 100.332V108.332ZM192.098 188.332C192.098 189.26 192.467 190.15 193.123 190.807C193.779 191.463 194.67 191.832 195.598 191.832H203.598C204.526 191.832 205.416 191.463 206.073 190.807C206.729 190.15 207.098 189.26 207.098 188.332V180.332C207.098 179.404 206.729 178.514 206.073 177.857C205.416 177.201 204.526 176.832 203.598 176.832H195.598C194.67 176.832 193.779 177.201 193.123 177.857C192.467 178.514 192.098 179.404 192.098 180.332V188.332ZM192.098 172.332C192.098 173.26 192.467 174.15 193.123 174.807C193.779 175.463 194.67 175.832 195.598 175.832H203.598C204.526 175.832 205.416 175.463 206.073 174.807C206.729 174.15 207.098 173.26 207.098 172.332V164.332C207.098 163.404 206.729 162.514 206.073 161.857C205.416 161.201 204.526 160.832 203.598 160.832H195.598C194.67 160.832 193.779 161.201 193.123 161.857C192.467 162.514 192.098 163.404 192.098 164.332V172.332ZM383.589 94.381C384.051 95.183 384.728 95.881 385.543 96.328C384.719 96.7803 384.042 97.4577 383.589 98.281C383.147 97.489 382.428 96.785 381.643 96.328C382.449 95.858 383.147 95.201 383.589 94.381ZM383.589 78.381C384.051 79.183 384.728 79.881 385.543 80.328C384.719 80.7803 384.042 81.4577 383.589 82.281C383.147 81.489 382.428 80.785 381.643 80.328C382.449 79.858 383.147 79.201 383.589 78.381ZM176.098 188.332C176.098 189.26 176.467 190.15 177.123 190.807C177.779 191.463 178.67 191.832 179.598 191.832H187.598C188.526 191.832 189.416 191.463 190.073 190.807C190.729 190.15 191.098 189.26 191.098 188.332V180.332C191.098 179.404 190.729 178.514 190.073 177.857C189.416 177.201 188.526 176.832 187.598 176.832H179.598C178.67 176.832 177.779 177.201 177.123 177.857C176.467 178.514 176.098 179.404 176.098 180.332V188.332ZM383.589 46.381C384.051 47.183 384.728 47.881 385.543 48.328C384.719 48.7803 384.042 49.4577 383.589 50.281C383.147 49.489 382.428 48.785 381.643 48.328C382.449 47.858 383.147 47.201 383.589 46.381ZM383.589 30.381C384.051 31.183 384.728 31.881 385.543 32.328C384.719 32.7803 384.042 33.4577 383.589 34.281C383.147 33.489 382.428 32.785 381.643 32.328C382.449 31.858 383.147 31.201 383.589 30.381ZM176.098 172.332C176.098 173.26 176.467 174.15 177.123 174.807C177.779 175.463 178.67 175.832 179.598 175.832H187.598C188.526 175.832 189.416 175.463 190.073 174.807C190.729 174.15 191.098 173.26 191.098 172.332V164.332C191.098 163.404 190.729 162.514 190.073 161.857C189.416 161.201 188.526 160.832 187.598 160.832H179.598C178.67 160.832 177.779 161.201 177.123 161.857C176.467 162.514 176.098 163.404 176.098 164.332V172.332ZM351.593 206.381C352.055 207.183 352.732 207.88 353.547 208.328C352.723 208.78 352.046 209.458 351.593 210.281C351.15 209.489 350.432 208.785 349.647 208.328C350.452 207.858 351.15 207.201 351.593 206.381ZM383.589 110.381C384.051 111.183 384.728 111.88 385.543 112.328C384.719 112.78 384.042 113.458 383.589 114.281C383.147 113.489 382.428 112.785 381.643 112.328C382.449 111.857 383.147 111.201 383.589 110.381ZM383.589 62.381C384.051 63.183 384.728 63.881 385.543 64.328C384.719 64.7803 384.042 65.4577 383.589 66.281C383.147 65.489 382.428 64.785 381.643 64.328C382.449 63.858 383.147 63.201 383.589 62.381ZM383.589 14.381C384.051 15.183 384.728 15.881 385.543 16.328C384.719 16.7802 384.042 17.4576 383.589 18.281C383.147 17.489 382.428 16.785 381.643 16.328C382.449 15.858 383.147 15.201 383.589 14.381ZM367.593 110.381C368.055 111.183 368.732 111.88 369.547 112.328C368.723 112.78 368.046 113.458 367.593 114.281C367.15 113.489 366.432 112.785 365.647 112.328C366.452 111.857 367.15 111.201 367.593 110.381ZM367.593 94.381C368.055 95.183 368.732 95.881 369.547 96.328C368.723 96.7803 368.046 97.4577 367.593 98.281C367.15 97.489 366.432 96.785 365.647 96.328C366.452 95.858 367.15 95.201 367.593 94.381ZM367.593 78.381C368.055 79.183 368.732 79.881 369.547 80.328C368.723 80.7803 368.046 81.4577 367.593 82.281C367.15 81.489 366.432 80.785 365.647 80.328C366.452 79.858 367.15 79.201 367.593 78.381ZM335.593 126.381C336.055 127.183 336.732 127.88 337.547 128.328C336.723 128.78 336.046 129.458 335.593 130.281C335.15 129.489 334.432 128.785 333.647 128.328C334.452 127.857 335.15 127.201 335.593 126.381ZM335.593 94.381C336.055 95.183 336.732 95.881 337.547 96.328C336.723 96.7803 336.046 97.4577 335.593 98.281C335.15 97.489 334.432 96.785 333.647 96.328C334.452 95.858 335.15 95.201 335.593 94.381ZM335.593 78.381C336.055 79.183 336.732 79.881 337.547 80.328C336.723 80.7803 336.046 81.4577 335.593 82.281C335.15 81.489 334.432 80.785 333.647 80.328C334.452 79.858 335.15 79.201 335.593 78.381ZM335.593 62.381C336.055 63.183 336.732 63.881 337.547 64.328C336.723 64.7803 336.046 65.4577 335.593 66.281C335.15 65.489 334.432 64.785 333.647 64.328C334.452 63.858 335.15 63.201 335.593 62.381ZM319.593 142.381C320.055 143.183 320.732 143.88 321.547 144.328C320.723 144.78 320.046 145.458 319.593 146.281C319.15 145.489 318.432 144.785 317.647 144.328C318.452 143.857 319.15 143.201 319.593 142.381ZM319.593 78.381C320.055 79.183 320.732 79.881 321.547 80.328C320.723 80.7803 320.046 81.4577 319.593 82.281C319.15 81.489 318.432 80.785 317.647 80.328C318.452 79.858 319.15 79.201 319.593 78.381ZM319.593 62.381C320.055 63.183 320.732 63.881 321.547 64.328C320.723 64.7803 320.046 65.4577 319.593 66.281C319.15 65.489 318.432 64.785 317.647 64.328C318.452 63.858 319.15 63.201 319.593 62.381ZM319.593 46.381C320.055 47.183 320.732 47.881 321.547 48.328C320.723 48.7803 320.046 49.4577 319.593 50.281C319.15 49.489 318.432 48.785 317.647 48.328C318.452 47.858 319.15 47.201 319.593 46.381ZM303.593 158.381C304.055 159.183 304.732 159.88 305.547 160.328C304.723 160.78 304.046 161.458 303.593 162.281C303.15 161.489 302.432 160.785 301.647 160.328C302.452 159.857 303.15 159.201 303.593 158.381ZM303.593 126.381C304.055 127.183 304.732 127.88 305.547 128.328C304.723 128.78 304.046 129.458 303.593 130.281C303.15 129.489 302.432 128.785 301.647 128.328C302.452 127.857 303.15 127.201 303.593 126.381ZM303.593 94.381C304.055 95.183 304.732 95.881 305.547 96.328C304.723 96.7803 304.046 97.4577 303.593 98.281C303.15 97.489 302.432 96.785 301.647 96.328C302.452 95.858 303.15 95.201 303.593 94.381ZM287.593 206.381C288.055 207.183 288.732 207.88 289.547 208.328C288.723 208.78 288.046 209.458 287.593 210.281C287.15 209.489 286.432 208.785 285.647 208.328C286.452 207.858 287.15 207.201 287.593 206.381ZM287.593 190.381C288.055 191.183 288.732 191.88 289.547 192.328C288.723 192.78 288.046 193.458 287.593 194.281C287.15 193.489 286.432 192.785 285.647 192.328C286.452 191.858 287.15 191.201 287.593 190.381ZM287.593 174.381C288.055 175.183 288.732 175.88 289.547 176.328C288.723 176.78 288.046 177.458 287.593 178.281C287.15 177.489 286.432 176.785 285.647 176.328C286.452 175.857 287.15 175.201 287.593 174.381ZM287.593 110.381C288.055 111.183 288.732 111.88 289.547 112.328C288.723 112.78 288.046 113.458 287.593 114.281C287.15 113.489 286.432 112.785 285.647 112.328C286.452 111.857 287.15 111.201 287.593 110.381ZM271.593 206.381C272.055 207.183 272.732 207.88 273.547 208.328C272.723 208.78 272.046 209.458 271.593 210.281C271.15 209.489 270.432 208.785 269.647 208.328C270.452 207.858 271.15 207.201 271.593 206.381ZM271.593 190.381C272.055 191.183 272.732 191.88 273.547 192.328C272.723 192.78 272.046 193.458 271.593 194.281C271.15 193.489 270.432 192.785 269.647 192.328C270.452 191.858 271.15 191.201 271.593 190.381ZM271.593 174.381C272.055 175.183 272.732 175.88 273.547 176.328C272.723 176.78 272.046 177.458 271.593 178.281C271.15 177.489 270.432 176.785 269.647 176.328C270.452 175.857 271.15 175.201 271.593 174.381ZM271.593 158.381C272.055 159.183 272.732 159.88 273.547 160.328C272.723 160.78 272.046 161.458 271.593 162.281C271.15 161.489 270.432 160.785 269.647 160.328C270.452 159.857 271.15 159.201 271.593 158.381ZM271.593 126.381C272.055 127.183 272.732 127.88 273.547 128.328C272.723 128.78 272.046 129.458 271.593 130.281C271.15 129.489 270.432 128.785 269.647 128.328C270.452 127.857 271.15 127.201 271.593 126.381ZM255.593 206.381C256.055 207.183 256.732 207.88 257.547 208.328C256.723 208.78 256.046 209.458 255.593 210.281C255.15 209.489 254.432 208.785 253.647 208.328C254.452 207.858 255.15 207.201 255.593 206.381ZM255.593 190.381C256.055 191.183 256.732 191.88 257.547 192.328C256.723 192.78 256.046 193.458 255.593 194.281C255.15 193.489 254.432 192.785 253.647 192.328C254.452 191.858 255.15 191.201 255.593 190.381ZM255.593 174.381C256.055 175.183 256.732 175.88 257.547 176.328C256.723 176.78 256.046 177.458 255.593 178.281C255.15 177.489 254.432 176.785 253.647 176.328C254.452 175.858 255.15 175.201 255.593 174.381ZM255.593 158.381C256.055 159.183 256.732 159.88 257.547 160.328C256.723 160.78 256.046 161.458 255.593 162.281C255.15 161.489 254.432 160.785 253.647 160.328C254.452 159.858 255.15 159.201 255.593 158.381ZM255.593 142.381C256.055 143.183 256.732 143.88 257.547 144.328C256.723 144.78 256.046 145.458 255.593 146.281C255.15 145.489 254.432 144.785 253.647 144.328C254.452 143.858 255.15 143.201 255.593 142.381ZM239.593 206.381C240.055 207.183 240.732 207.88 241.547 208.328C240.723 208.78 240.046 209.458 239.593 210.281C239.15 209.489 238.432 208.785 237.647 208.328C238.452 207.858 239.15 207.201 239.593 206.381ZM239.593 190.381C240.055 191.183 240.732 191.88 241.547 192.328C240.723 192.78 240.046 193.458 239.593 194.281C239.15 193.489 238.432 192.785 237.647 192.328C238.452 191.858 239.15 191.201 239.593 190.381ZM239.593 174.381C240.055 175.183 240.732 175.88 241.547 176.328C240.723 176.78 240.046 177.458 239.593 178.281C239.15 177.489 238.432 176.785 237.647 176.328C238.452 175.858 239.15 175.201 239.593 174.381ZM239.593 158.381C240.055 159.183 240.732 159.88 241.547 160.328C240.723 160.78 240.046 161.458 239.593 162.281C239.15 161.489 238.432 160.785 237.647 160.328C238.452 159.858 239.15 159.201 239.593 158.381ZM239.593 126.381C240.055 127.183 240.732 127.88 241.547 128.328C240.723 128.78 240.046 129.458 239.593 130.281C239.15 129.489 238.432 128.785 237.647 128.328C238.452 127.858 239.15 127.201 239.593 126.381ZM223.593 206.381C224.055 207.183 224.732 207.88 225.547 208.328C224.723 208.78 224.046 209.458 223.593 210.281C223.15 209.489 222.432 208.785 221.647 208.328C222.452 207.858 223.15 207.201 223.593 206.381ZM223.593 190.381C224.055 191.183 224.732 191.88 225.547 192.328C224.723 192.78 224.046 193.458 223.593 194.281C223.15 193.489 222.432 192.785 221.647 192.328C222.452 191.858 223.15 191.201 223.593 190.381ZM223.593 174.381C224.055 175.183 224.732 175.88 225.547 176.328C224.723 176.78 224.046 177.458 223.593 178.281C223.15 177.489 222.432 176.785 221.647 176.328C222.452 175.858 223.15 175.201 223.593 174.381ZM223.593 110.381C224.055 111.183 224.732 111.88 225.547 112.328C224.723 112.78 224.046 113.458 223.593 114.281C223.15 113.489 222.432 112.785 221.647 112.328C222.452 111.857 223.15 111.201 223.593 110.381ZM207.593 190.381C208.055 191.183 208.732 191.88 209.547 192.328C208.723 192.78 208.046 193.458 207.593 194.281C207.15 193.489 206.432 192.785 205.647 192.328C206.452 191.858 207.15 191.201 207.593 190.381ZM207.593 174.381C208.055 175.183 208.732 175.88 209.547 176.328C208.723 176.78 208.046 177.458 207.593 178.281C207.15 177.489 206.432 176.785 205.647 176.328C206.452 175.858 207.15 175.201 207.593 174.381ZM191.593 174.381C192.055 175.183 192.732 175.88 193.547 176.328C192.723 176.78 192.046 177.458 191.593 178.281C191.15 177.489 190.432 176.785 189.647 176.328C190.452 175.858 191.15 175.201 191.593 174.381Z" fill="var(--fill-0, #1E1E1E)"/>
</g>
<defs>
<clipPath id="clip0_0_41">
<rect width="400" height="416" fill="white"/>
</clipPath>
</defs>
</svg>
