<svg preserveAspectRatio="none" width="100%" height="100%" overflow="visible" style="display: block;" viewBox="0 0 64 64" fill="none" xmlns="http://www.w3.org/2000/svg">
<g id="svg4235191907" clip-path="url(#clip0_0_85)">
<path id="Vector" d="M9.6 64C4.298 64 0 64 0 64V0C0 0 4.298 0 9.6 0H54.4C59.702 0 64 0 64 0V64C64 64 59.702 64 54.4 64H9.6Z" fill="var(--fill-0, #333333)"/>
<path id="Vector_2" d="M48.774 26.63C48.766 26.59 48.76 26.549 48.75 26.509L48.726 26.438C48.715 26.403 48.703 26.369 48.69 26.334C48.68 26.31 48.668 26.286 48.658 26.264C48.642 26.232 48.625 26.199 48.608 26.168C48.595 26.144 48.581 26.123 48.567 26.101C48.48 25.966 48.371 25.847 48.246 25.748C48.223 25.731 48.202 25.714 48.18 25.698L48.156 25.68L32.8 15.442C32.315 15.119 31.683 15.119 31.198 15.442L15.843 25.68C15.834 25.686 15.827 25.692 15.819 25.698C15.768 25.735 15.719 25.774 15.672 25.815C15.578 25.898 15.498 25.995 15.432 26.102L15.39 26.168C15.373 26.199 15.357 26.231 15.342 26.263C15.315 26.32 15.291 26.379 15.272 26.438L15.25 26.506C15.239 26.546 15.232 26.586 15.224 26.627L15.213 26.69C15.204 26.752 15.2 26.815 15.2 26.878V37.118C15.2 37.182 15.205 37.245 15.214 37.306C15.217 37.33 15.222 37.347 15.227 37.369C15.234 37.41 15.241 37.45 15.254 37.491C15.261 37.514 15.268 37.537 15.277 37.562C15.288 37.598 15.299 37.634 15.313 37.667C15.322 37.69 15.336 37.712 15.345 37.734C15.372 37.79 15.402 37.845 15.435 37.898C15.454 37.93 15.476 37.956 15.499 37.983C15.515 38.006 15.53 38.023 15.549 38.046C15.571 38.073 15.594 38.1 15.621 38.124C15.639 38.142 15.657 38.164 15.679 38.178C15.706 38.201 15.734 38.223 15.761 38.247C15.782 38.265 15.806 38.279 15.825 38.296C15.833 38.301 15.838 38.31 15.847 38.314L31.199 48.557C31.442 48.72 31.719 48.801 32 48.8C32.28 48.798 32.558 48.718 32.801 48.557L48.157 38.319L48.181 38.302C48.232 38.265 48.281 38.225 48.328 38.183C48.422 38.101 48.502 38.005 48.568 37.898C48.602 37.846 48.632 37.792 48.658 37.736C48.687 37.68 48.71 37.622 48.728 37.562C48.736 37.538 48.744 37.515 48.75 37.491C48.761 37.451 48.768 37.411 48.776 37.37C48.78 37.35 48.785 37.329 48.787 37.308C48.796 37.245 48.8 37.182 48.8 37.119V26.882C48.8 26.818 48.795 26.755 48.787 26.693C48.784 26.67 48.777 26.653 48.772 26.63H48.774ZM32 35.415L26.894 32L31.999 28.584L37.106 32L31.999 35.416L32 35.415ZM30.557 26.076L24.298 30.263L19.245 26.883L30.557 19.342V26.076ZM21.7 32L18.088 34.416V29.584L21.7 32ZM24.297 33.738L30.556 37.925V44.659L19.244 37.117L24.297 33.738ZM33.443 37.923L39.703 33.737L44.756 37.117L33.444 44.658L33.443 37.923ZM42.299 32.001L45.912 29.585V34.417L42.3 32L42.299 32.001ZM39.703 30.263L33.443 26.077V19.342L44.756 26.883L39.703 30.263Z" fill="var(--fill-0, #F7F7F7)"/>
</g>
<defs>
<clipPath id="clip0_0_85">
<rect width="64" height="64" fill="white"/>
</clipPath>
</defs>
</svg>
