<svg preserveAspectRatio="none" width="100%" height="100%" overflow="visible" style="display: block;" viewBox="0 0 58 58" fill="none" xmlns="http://www.w3.org/2000/svg">
<g id="svg997363850_1278">
<path id="Vector" fill-rule="evenodd" clip-rule="evenodd" d="M22.4358 18.1946H9.72515C8.46099 18.1946 7.24861 18.6968 6.35472 19.5907C5.46082 20.4846 4.95864 21.697 4.95864 22.9611C4.95864 24.2253 5.46082 25.4377 6.35472 26.3315C7.24861 27.2254 8.46099 27.7276 9.72515 27.7276H22.4358C23.7001 27.7276 24.9126 27.2254 25.8065 26.3314C26.7005 25.4375 27.2027 24.225 27.2027 22.9607C27.2027 21.6965 26.7005 20.484 25.8065 19.5901C24.9126 18.6961 23.7001 18.1939 22.4358 18.1939V18.1946Z" fill="var(--fill-0, #36C5F0)"/>
<path id="Vector_2" fill-rule="evenodd" clip-rule="evenodd" d="M39.9207 22.9586V10.2479C39.9207 8.98372 39.4185 7.77134 38.5246 6.87744C37.6307 5.98355 36.4183 5.48136 35.1542 5.48136C33.89 5.48136 32.6776 5.98355 31.7837 6.87744C30.8898 7.77134 30.3877 8.98372 30.3877 10.2479V22.9586C30.3877 24.2227 30.8898 25.4351 31.7837 26.329C32.6776 27.2229 33.89 27.7251 35.1542 27.7251C36.4183 27.7251 37.6307 27.2229 38.5246 26.329C39.4185 25.4351 39.9207 24.2227 39.9207 22.9586Z" fill="var(--fill-0, #2EB67D)"/>
<path id="Vector_3" fill-rule="evenodd" clip-rule="evenodd" d="M35.1538 40.4333H47.8645C49.1287 40.4333 50.341 39.9311 51.2349 39.0372C52.1288 38.1433 52.631 36.9309 52.631 35.6667C52.631 34.4026 52.1288 33.1902 51.2349 32.2963C50.341 31.4024 49.1287 30.9002 47.8645 30.9002H35.1538C33.8896 30.9002 32.6773 31.4024 31.7834 32.2963C30.8895 33.1902 30.3873 34.4026 30.3873 35.6667C30.3873 36.9309 30.8895 38.1433 31.7834 39.0372C32.6773 39.9311 33.8896 40.4333 35.1538 40.4333Z" fill="var(--fill-0, #ECB22E)"/>
<path id="Vector_4" fill-rule="evenodd" clip-rule="evenodd" d="M17.6719 35.6671V48.3771C17.6719 49.003 17.7952 49.6228 18.0347 50.2011C18.2742 50.7794 18.6253 51.3049 19.068 51.7475C19.5106 52.1901 20.036 52.5412 20.6143 52.7808C21.1926 53.0203 21.8124 53.1436 22.4384 53.1436C23.0643 53.1436 23.6842 53.0203 24.2625 52.7808C24.8408 52.5412 25.3662 52.1901 25.8088 51.7475C26.2514 51.3049 26.6025 50.7794 26.8421 50.2011C27.0816 49.6228 27.2049 49.003 27.2049 48.3771V35.6664C27.2049 35.0404 27.0816 34.4206 26.8421 33.8423C26.6025 33.264 26.2514 32.7386 25.8088 32.2959C25.3662 31.8533 24.8408 31.5022 24.2625 31.2627C23.6842 31.0232 23.0643 30.8999 22.4384 30.8999C21.8124 30.8999 21.1926 31.0232 20.6143 31.2627C20.036 31.5022 19.5106 31.8533 19.068 32.2959C18.6253 32.7386 18.2742 33.264 18.0347 33.8423C17.7952 34.4206 17.6719 35.0412 17.6719 35.6671Z" fill="var(--fill-0, #E01E5A)"/>
<path id="Vector_5" fill-rule="evenodd" clip-rule="evenodd" d="M22.4388 5.481C21.1745 5.481 19.962 5.98322 19.0681 6.87719C18.1741 7.77115 17.6719 8.98362 17.6719 10.2479C17.6719 11.5121 18.1741 12.7246 19.0681 13.6186C19.962 14.5125 21.1745 15.0147 22.4388 15.0147H27.2049V10.2479C27.2049 9.62191 27.0816 9.00208 26.842 8.42378C26.6025 7.84548 26.2513 7.32003 25.8087 6.87744C25.366 6.43485 24.8405 6.0838 24.2622 5.84432C23.6838 5.60484 23.064 5.48163 22.438 5.48172L22.4388 5.481Z" fill="var(--fill-0, #36C5F0)"/>
<path id="Vector_6" fill-rule="evenodd" clip-rule="evenodd" d="M52.6248 22.9608C52.6248 21.6967 52.1227 20.4844 51.2289 19.5906C50.3351 18.6967 49.1228 18.1946 47.8587 18.1946C46.5946 18.1946 45.3823 18.6967 44.4885 19.5906C43.5947 20.4844 43.0925 21.6967 43.0925 22.9608V27.7276H47.8587C48.4847 27.7276 49.1045 27.6043 49.6828 27.3648C50.2611 27.1252 50.7865 26.7741 51.2291 26.3314C51.6717 25.8887 52.0228 25.3632 52.2623 24.7849C52.5017 24.2066 52.6249 23.5867 52.6248 22.9608Z" fill="var(--fill-0, #2EB67D)"/>
<path id="Vector_7" fill-rule="evenodd" clip-rule="evenodd" d="M35.1538 53.1461C36.418 53.1461 37.6303 52.6439 38.5242 51.75C39.4181 50.8561 39.9203 49.6438 39.9203 48.3796C39.9203 47.1155 39.4181 45.9031 38.5242 45.0092C37.6303 44.1153 36.418 43.6131 35.1538 43.6131H30.3877V48.38C30.3877 49.644 30.8898 50.8563 31.7836 51.7501C32.6775 52.644 33.8897 53.1461 35.1538 53.1461Z" fill="var(--fill-0, #ECB22E)"/>
<path id="Vector_8" fill-rule="evenodd" clip-rule="evenodd" d="M4.959 35.6671C4.959 36.9313 5.46119 38.1436 6.35508 39.0375C7.24897 39.9314 8.46135 40.4336 9.72551 40.4336C10.9897 40.4336 12.2021 39.9314 13.0959 39.0375C13.9898 38.1436 14.492 36.9313 14.492 35.6671V30.8995H9.72515C9.09919 30.8995 8.47936 31.0228 7.90106 31.2624C7.32275 31.5019 6.7973 31.8531 6.35472 32.2957C5.91213 32.7384 5.56107 33.2639 5.32159 33.8422C5.08211 34.4206 4.9589 35.0411 4.959 35.6671Z" fill="var(--fill-0, #E01E5A)"/>
</g>
</svg>
